<mxfile host="app.diagrams.net" modified="2024-03-05T04:21:33.112Z" agent="Mozilla/5.0 (Windows NT 10.0; Win64; x64) AppleWebKit/537.36 (KHTML, like Gecko) Chrome/122.0.0.0 Safari/537.36 Edg/122.0.0.0" etag="zC5oxLc_Qz9CGUy1wA9m" version="24.0.1" type="device">
  <diagram name="Page-1" id="yoQFOyTUOvwmUGVvGdhE">
    <mxGraphModel dx="1002" dy="577" grid="1" gridSize="10" guides="1" tooltips="1" connect="1" arrows="1" fold="1" page="1" pageScale="1" pageWidth="827" pageHeight="1169" math="0" shadow="0">
      <root>
        <mxCell id="0" />
        <mxCell id="1" parent="0" />
        <mxCell id="rPZamDuF4Wgf_CICPfCr-1" value="games" style="swimlane;fontStyle=0;childLayout=stackLayout;horizontal=1;startSize=30;horizontalStack=0;resizeParent=1;resizeParentMax=0;resizeLast=0;collapsible=1;marginBottom=0;whiteSpace=wrap;html=1;" vertex="1" parent="1">
          <mxGeometry y="180" width="328.57" height="260" as="geometry" />
        </mxCell>
        <mxCell id="rPZamDuF4Wgf_CICPfCr-14" value="" style="shape=image;verticalLabelPosition=bottom;labelBackgroundColor=default;verticalAlign=top;aspect=fixed;imageAspect=0;image=data:image/png,iVBORw0KGgoAAAANSUhEUgAAA2EAAAD1CAYAAADZE/33AAAAAXNSR0IArs4c6QAAAARnQU1BAACxjwv8YQUAAAAJcEhZcwAADsMAAA7DAcdvqGQAAIjqSURBVHhe7d0PXBRl/gfwTxorCvK3W45QMUvUTH6eqad5/rsLM9GCIvE61Az/RGRqmmYpV6h5kvinJFNET93O8DS8Es/AUiH/BEoIUgiKICKyBSwICIu4v2dmn4Xl3+4s4Abe991rcuaZh5l5npmB+e7zzLMPaBgQQgghhBBCCDGLTvxfQgghhBBCCCFmQEEYIYQQQgghhJgRBWGEEEIIIYQQYkYUhBFCCCGEEEKIGVEQRgghhBBCCCFmREEYIYQQQgghhJgRBWGEEEIIIYQQYkYUhBFCCCGEEEKIGVEQRgghhBBCCCFmREEYIYQQQgghhJgRBWGEEEIIIYQQYkYUhBFCCCGEEEKIGVEQRgghhBBCCCFmREEYIYQQQgghhJgRBWGEEEIIIYQQYkYUhBFCCCGEEEKIGVEQRgghhBBCCCFmREEYIYQQQgghhJgRBWGEEEIIIYQQYkYUhBFCCCGEEEKIGd0fQVhxNjKvqvgCIYQQQgghhLRfHT8IKz6F4HnL4b8oAAFReTyxGddOYUf4LjadQj5PMifViU+RfSKHLxlXemYDsj5QoFDNEzoQY2W9WxiPq0s+bbpsqgwUJMSjyMxxtannx9za+/G1VEcv153rx3D1HW9kzGLTm8twLUHJ13Rghu5BdSquLfkQNwv5MiGEEEJM9oCG4fMd0/VoBLyhQBqbdZ26Fntf7q1Nb0ryLox5P4bNTMDWQ7MwUJvaZm6d/xTKD7bgjpI9hMlfRJe/h6DXk7a1ke4vWx5CEf6Lfm8M4ymG/bL9cRTtHI3u0dvwsCNPvAeEh+Dbj70O5x48Qc+tb4OQr0jlS3Ue9NuGPn+R86XGDJb1diKyXwkC3j2E3v/XhSfqubABl+Z9iC7bfmXreVoDpRcOoujQ11AXOsFi3GQ4Pj8aNp35ypoM5EccQxVf1Okyqeky6hg+P1X49XAEyqw90XucK0/LQf726Eb70XKD3dynYceXpKjIOIxfDx1D5fUukE3wgcOzw+rKxJh6/Rgi1J/qm3hU/gxY/OVp2DzP6rA7X8ndvZWBm/siUH6mAJ1H+sD2r43zGDwPnLHtSC2XlH21Fcn7UrNr2Xcp7r7yMX43thc6qwtwu8YVjs7a69rYORVIORdStlNXzxnoNOBFWL/iB6cGt6iUcyoycg/eZutzPwTs//kWfteVJxJCCCFEso7fEtbDE5u3BmPTqvXY6msgALvHhIeS/CVxsFh1Bo+cysPDq/4P1Uum4dqFph/Rpfid/4/odfzeBmCAEmX/CUJVM59qW41ejB4b/4key1/EAz/boutyNs+WnUc3H4AZVoWbn7yGmumfoVdTAZhAfLhk22/yAbuKPbQ/i/zQC+j87LtwWuwDS1UECnanoprnQGEqynbG4S5fbAslh99E4ZYIVF001spRiZrvg6BW26KZ0jVJuH6ur4zHA88sQo8V/rC8EYr8ZQdRUsMztJkqFCqmsSC1ABZT2L7WvY6uFQr8+twy5Ou3erBA+drsv+J2Nx/IN36A7t2O4dfZG/DLbb6eXTc317LzwLZj+UoIeiz1wYM/fdj4mI1uRwqJ+2oTJu7r53hU2fnD7vlB6G5ni25yt9oAzPg5lXYuJF0bQuvU7AWo6u2P37P786FnqlA2Yx5u6F+uppwLg/cg0PX/3oLT9Eso+iQeJp1KQgghhGgJLWEdj1pzI+VHzfmE+lN2EV+tr+BHzZfbd2rC//29JvvHSM2rz0/TjH5+p+YiX13rTrEmO/2q5tYdvmySbM01f0dNxtcFfFmr5OuZmnT/vZpivqz8xFGT/kkC25dKU5gcp7n5Q4KmULeSq65QacqL9adKTTVf11BlbgrbhrCdFI2qiic2UFNVoPlVzBOnUWar6m2rUtz+Jc211x01WfF6+yyt1NTwPLUKDmgy/jhTk1u/iHVYmYr1ylRb1oZy92oypoZpfjVUzwb2VXMpTHPJa43mZgVPaIrw8+NCNUq+2CyJx1yTLRxzqCb3X+x8NlUmPTU3DmguT2+ifHcqNaXZCc2cL3b9vDJOk/MTXxSpNHnvOmouf6Piy9KuHx1D513Djq3++c3W5LJr4Mqxun0VH/TVpK+P09QdZqXm5voBmoyD2XyZbaNUpal3Gu6kaHK8WDku8WVGynaklEvKvkQG67mOoXtHyr5qqvi9Er9Gk/76Xs2vje4daefU+LmQuJ3kUE36wgOaEr4oKNzvVe93kpRzUcvY/S64I/ze89Vcy+XLhBBCCJGsg7aEFSNJsQ4L19SfDjd4rUSdvAvT567DxugY7FFswfQPD6O5N0/Sdr6J6cuWw2un0LHRRIWpUF+cjK5P1m8dsnlyCjpdjEeFfitT/gFceXkBSn5Ixe0TYfjF2xvZF+tay1QHX8H1RXya92fkTgxjpW2gJgf5q59F9vsKVCSz7ZyJQMFz83C93otuVSj6ciEyn/GC6gTLkxyPW6v+jKyQeJSL61NRIO5nGSp+YnX1id5+t+jySCR0L5w1EgURsWw/iSgJmgZV6iC+sr6iMweh8fGEYzOfsIsce+FBuMGiiRbA4jP/Bl7+G5wMdYFS5uDuYFfDLVFSj1loPVgZj66b3oJNU9229LHzciNkByxWvF6vfNVXFMj0fAo3/ynsKxUVh4Nw87mFeq0UStT87IpO9cprC7s/++NOcgrqvTZn5Poxft4Zdmz1bvzbSlTfGIYHe9vyBCUqTh+DbNxoyHgKWG3+bpwf7p5OxS2e0qm7Leqdhs42eKBe/0tp2xEZKZfxfUmpZ0bCvSNlX+Xxodp75ZODwE+forDRvSPxnEo4F5K24yhHp+xLuK3XLHX3ViU6W+vuAhPOhcDAPVirsyusnqlidXj/vadICCGE3HM8GOtwqsrKNbdKhOmq5suFQuvWNM2WH/lKwZ0Mze7p2vTXtv6ouVFSoMn4fKW43FRLWPbnr4nr/D6/ylNMkBqqSf9jUy0vCZqrfxyguZqqXRI/8V+4V1Os10pSuN+30SfYtYRPt5vYrviJ9uIDGpXedipOr9Skv/u1powvV/2wRpM+bq4m9wZPEFVqykv5bK0CTe5CR83VZL7YnGY/Gdd+mp6+Lk6v9aBSk7+qqValAk3eYgn70qRocl7ZofmFL9XR/nzWDyrNr9+Eaa7M99JcemWm5sreBE2pfsuTUG/jRmrSp4zUXJo6RJy/vDdFU16bR+Ix38nW5C4eorn8dbbYWiG2bBpoCRPrvN42uTsqTWm9lh22r3UDNJf+mcKXtefg8pGCulYRtu+8VRPrXRtSrh/p512lKfwhVpO7d6Xm8vS5mqvnVHotMkLLj5fmWrZGU3NphyZjqq/mmtAKlL1Xc8krTPOrNlMjYitlvVZOadsx+b5gGu+LMVrP0u6dhprcl04TLVBa0s6plqFzIX07qiMLNOnPzNRkfZ2g+TV+jSZjVaxeOU09p83dgw0I5V/8tabR5UUIIYQQgzrsO2Eyq26wttFOsrqPduvkXcTJUmFmFGa+MhjONnL0ffwRcVVTXF/eimN79hge2KMtPNoPdnqtJA7DJ+OBM5dwW/K7LTm49fUxyCY/DYtbJahQaSdN7+Gw+DYDFWKeKhSd2IAHXn8XPZzFBK4LuhlrzTFZCm7/2wldvUbrtR50QedmRqS4WzMZDxp9nWwQeu3yx0N8Sd9dVk/q1Utxq9vT+N36KPRevxgWyTORH5Fa1yrwhB9+98//4tGvTsMt8jz6frUZnb8ej7z/6D6xl3LMVfhl62uo6P0ZHp7sKuHlyRL8+h8FZOOG129FEXS2RXe27Tu3lSi6EI/8LyNwW+kEza1KnkGOh5f+E9j8LC6/E4TskIXIeD0CeHw0X6/H4PVjynlXoSo5A3fEC6YEd3OuoVLvGryrssUDrCB3bhWwdZns3yqga1c8oKps+l07scXwa8je9a/XCih5O6bcF83sy3g9S7l3GmhuX0aZcE4NnguJ26nJQXnybVjM9YHFjQMoWq1gP9oFD/DVAtPOafP3YD1ydm/UVKFjj+5ECCGEmF+HDcKMKlIhU5yxQndLccYomY0FnzOR8CCCS6huOLhFYQFqMNxw0CE8BAkPXk0+ATZF6J7EApGtvPuTbno3AncGsIcsMU8J7uSDPXA1CgfanlhGVv5mgq7GcnC3Ud8n6TqxB2GLt0LQ+09u6M6Cb5njIPSc/y6wL5aVmussh4OrLR7ki526D4PD9Ml13a4kHLP6YhiKFZbo3DkRBds/RTabCoVh1JMPsHkFfmlYhluJqPzWB10HN9EJ8nYqrr35FK6s3ILyAnbMw/8Gmz/qRljU6uQ8GY9Gn0bPdxZDPncd+mwLRveubH/Ochi8fOtdP6acd1c4z30dvecG49Fd6yA77asXpDrhwcGHxW3JnnwX/c6exyNPsnLlN9PN83YGclc2NdiKidvR19x90ey+GKP1LOXe0WNoXxJIP6eGzoWU7VShYNMLqBz3Mfq8MBk9WJ6+0Wdgo/4Q+Zvi+YcTrTgXhrCAjgIwQgghxHT3bxDW0wUjxJmryNa9E3K3dvy8xmpUyLmUjbKmPnk3Rj4UlgMO4vb52jBAVH7+GHu4exrdDARhd4WHIGdXyCS3ULniwZHAg/7/hNuuqAaT7pNrOboMkOPupUv13ye6Fxxd0blrgvhwZxwLjJxTcadQ/x0mU7ByDRqEO780+PIiGXtgNzJEm0b/vEo5ZkcP2H78FqyfHMQCK+3UpSeL2pzc2Pz/QdbwqTUrBdVP/h+6NtEq+0uELypH/hN91wej54TRcOxhC4um4qTOXdBVGGHPrgsLIEtw6/uD7MHZXe8dnsbqXz8tPO+dXWEzbjjunk/l7zOx7TwqR/WVukBAoLqSADzaC9Z8WSQEPgv/CvXoL+HaqMXQhO000OR9YXBfUupZyr3DGdmXZKae00bngjO4HaFldxBkj+pdlJ1t4fTibHT6dyLLLWj5uTBEXXgTGmMfFBBCCCGkkfs3CHMcjLH9hJlMbFwShI2frkNAyHFxVVNaNTAHe7hz8PPHna0f4sZ1bcqd64dRsDUGFn5T4KBN0rqSgkLeinL3ViKuffghOr3sCXttkgRyOE59HXci6vYluKvOQWFOXXDj+My77AHsQ+R9r8QdniZ8R9D1w4kNhpRmD6o95FD/wIIjngIWsEgf3t0NVi86oWrvQah4oCOU/Va8dr6+Lug+2A/V51NaPHy847OL0ZmV/bqu7DUlKDi4Axq/0awkwnIOrm/egAK9wRjuKI+h6F8JsHh2NLTP9MaPWeY8CE7DR9ebrB9le3B2Z/ODYNvgKbo0NwXo2qWJG6oKNRX6I0MIxxOPoq/Zw6+eu/mp+EUvm+o/S3Hr8rvsgVw3QANn5Poxet6F+lkbhOsZJbXn4O6tVKgOHUYnFnBa8TTHKe8Cn3yKfN66e7fwMIo+KUHXCcNqyyh+4fYrr6Da60s88jwLcHi6PinbERkpl/F9SalnafeOlHJJYfScSjwXxq8NN3SZkIDb3+fU3cOM6szXuDvBHd34suRzYYKS8weMflBACCGEkMY6/pc1Q4noZQuw7hLg+/4+BA7myYLCBIQt34JIpdACZoEhUyfA9VA0otSNv6w5518BmL5fZfwLn5sljEq3DL98ooD4tNvVDQ/O/ycefsGt9h0h4UtpVd02weL0p6hSsweojBw88NdtcH6DBQdNvW9yQfjCVMDh7Fv4HU/SUcUE4ZcNn+Ku7Wg80K0SmnwnyN75AD3GubKSat3+OQI3loXijtoVD8hLoFH2guyNYPx+ct0xCe7mH8bVWa/gjoxty1HY1jDY/pvlYxFL6eFXkL/6MM9Zp9OKn9B3Mm/iE7ptrf4rKk53YfupguaxRbB94hhKCgMbfwHv7XhkeR9G1y/WwVlyF8b6hHJdX/QpNM692Dm+Box8Fw8tfBEOvFC1X5qNfnig6zWx3BaL2f70y23KMXNiXWQ3vb7o3974peDdJtfV1q9wrlCJB56cDYfhl/DrRY/a/KUJn6IgaAvuytkxs+BB4xYMu7+/Die90emkXj/Gznu9+rErgCajCp3mfobfzxxWbzsl3wahYHU00FsOTbYlLFZsQu+/6FqFlLix5HHc+l5cqG8kO6aNL8KGLxrejpRySduXlHoWGL53pJdLJNyj/3RtnM5IOadSzoWU7Ygtdyvnscvaid3DbLmCXfdOr8NxjT8e0mtNNHYuTCLey7HoFsWuLf1fKIQQQggxqv0FYTXVKCtvvtugMCCHrKmAxQB1aQXUlt1gbeTjWnVpdcvfC9OpqUKFMDR0d1t0MXCc6lslqOli22T3tVoGgjCdKhXbTmdLWHZvqhVGS9jXnRpLyMSuTM0TtwXj+Zpz53YJ1LBFNyMPZKX/nYf8VD/0Wqo/MIbpxONlddjc/rTlBh5k56K5a0bqMbcF4XjvdjN8zo2VSUfK9WPsvItlrzJcP1KvZ6Pa8r4wQko9C8S6NnLvtAUp51TKuZCynbvqElRWsF/shsrfJue0CgWbvVDmthuPPmt0pB1CCCGENND+gjBlDJbO3YWzfLG+vli2PRie9/HffGH0P2HwCUHRv6fhl9TZ6Bn8dG2XovtDFX7ZMg2q7sHoMXNQqwIxQoi5VeHX3TNRdGsxer4xjO5fQgghpAXaXxBWqURa6g32Z74pFnAeNBDO9+tb4OpEZPssgNrRCagpgEY5HN13bcLD9YYbv0/UlODX89fQ7clB6NaaFhZCiHnRvUsIIYS02n3wTth9pqYKt29VisM+G+wmRgghhBBCCOmQKAgjhBBCCCGEEDO6l++jE0IIIYQQQghpgIIwQgghhBBCCDEjCsIIIYQQQgghxIwoCCOEEEIIIYQQM6IgjBBCCCGEEELM6P4IwoqzkXlVxRcIIYQQQgghpP3q+EFY8SkEz1sO/0UBCIjK44kSXTuFHeG76k1x1/i6dqQqLwXxiSlQVgpLxchIPIeUPLW4rkUq06EID8aGHwp4AmmsHBlfr8DSE8V8uX0qORGMBV9nNfPl5lptfv0QQgghhJBWaXffE1b07Ua8fSCbLzXm5vMBlv3Fji8x16MR8IYCaWzWdepa7H25tza9ViYiA7Ygpo8XPnp7PBx4qih5F8a8H8MXtHzf34fAwXyhnVAeXYoBicC22SHwcU7BhlUrcGFYOHZPdOI50hERGoqv+ZI+9ydDEDzOni9xymjM27YNcW6r8bOvO0/s4FQpUJwCpni6w5YntUYOq3PvK2MRFeAJV/2PKlS5iD21H4fT0wH7sfB4yhuT+1vxlXWUifux5VwsUtAfPkP94DdMd6703FWjJP0kDqTK8LTvWLjy5FpS9nW3AAe2BiL20TBsq70e6jN+/RBCCCGEEHNqfy1hlcXIzFc2OxVWNvgEv4cnNm8NxqZV67HVt2EAxiiv4rzws79W8wQ9g/xwZE8Em9Zi0SM8rd2yhm1XPttIf/j5b8Ju/Wn8SFRW9sToJxoEYAK5J7Yt2ofkl+6TAEyQdQYLsnINtghJlrUfy1IfxbaZDQKwjP2YFhaMeHjgLf/VCOxXDsXB17EhqZxn0BICuIlxBRjusRrbPdyRExeIeUfrtzoqv1uBAWt80OfgJ1iakQ4lT68lcV/o5ASfmUHolxoMRRZPa5Kh64cQQgghhJhTuwvCHDyDEXdonzhtncgTJ66oTQvxlLOEauSnJiMpUTtdvM4eTCt/QWGpNruoOFu7/mwGcoTlUr4sTtkoE9I6W8Dapps4yWRCggE1KuTER2m7LSpikNboqbl56vxMFkA2EQRKJJc/yv7vBDuxAVCGLuxYnSythYVaXeysYKubbHKh+PYIhv95MTwe4hmEVhdVed10h1VZcz3SirKQmHgO8YnpyKn9mQaZDeVRs32VNsgv7r9BmpBPPBFMZQFSxO2lsO3xNJ2yXL7uHBIvN+geWMn3fZtt6G45VLXHUo6q5spnkBrxcfvRa9hUDKtfxYAbC14DwxHs6Q5XOye4jZqHbSN7Yg07rhKeBZVnoDhfjrdenI/JjzlB/pgH3nvRDyXnFYgXuwNqyf+8Gj+v/AqFnp48pQEp+9Kxdkfgn/pgQ9yZJoNQKdcPIYQQQggxnw76TlgxkhTrsHBN/emwGG1xOce16TtPIV9Yzj+O4Nq8x7WBmVSFCdg4NwDTQ/djT3QM9hzYhQC2HJZcwTMYUBiDFQFB8A9YhWOFPM1UdvYYbdeDd1ezh1M34Pc2jbvA6aRErcUWx8V4b6Renl9PIjRiIWbyaWLYX/HmicbvhFUlbcPErR8j4RZQcl2BeZ/MxMRw4Wf2I0Vqnou70Gd3bP3WnYJYvPnJLiTyRZGQ7/OTyGHb89q4FBGp55GSuh8Hr+iip2LE/nMOhnzyCQ5ksXVZJ7Elcg68IlNqgw3l2Y+1Zfr+DAvWorBUr4yKDJ7JFJXnEZs7ElNGNNGCCCHI5bOcZdcG+TJSoLD2wGj9RtneI+FjfQaJJh2PhH3p6fKHpzA59zQS9AK9WiZeP4QQQggh5N7qoEGYHB5BQjdCA10JdV0NF4/SLj8yFRFifmHyw0BtqgQqxIVtQRQLoEZMDcaRg/tw7GM/jJCpELnhS2TyXM2ysIKj0Moms4fMQptkMmt7uNs5oIu44AS3HiMxqIe40EhVyjYsvTwUe6aO5Pk5uQeCF4fjkDitxmIbnl5POnbEnsCU5zch8M9DMdl7NT5+wh6ujwexn/GDtvOilDwmUO3Egh+csHnxbmx+dR4CX12Nt57UNUvaY8xzITizLATBvmyd72Ls/utUWGYcQhxvLZOPW64tk4cHYOOH7bVlDIf/E9o8JmFB1L/t+qOfJV82qBhxKWfg36/uPbSSogIouzvh90IAuYMFpztOokQIfLqrcbOoQVdCkzTeVz2Wfdg10kygZ8L1QwghhBBC7r0OGoSxmMZK242w2a6Euq6G3fkn/jIWDPH81jYmREOlaTiRJHQl7AYUfo8vdu7Cnm/y2EOvsC4DGca6JdqMwjIFC/wUizCmycBHAiGAmj6y9uHb3Xs5PIRemQ1VpiDsm9OY4PFq4650kqhRdccatqyoOl26WCFWpd8FUEoeE6j7I3C6F1ybOodMFwd7FjyoUZKbjvhT0YhITGepZSi5rV3f5u4ASjsnFuYbl3N0LZbdmYXAMXUtVFV3ythBW7FjZsdYXo6c8mIWxstgySKgkjst6h8pampf9TnB1Y5tnx1/I1KvH0IIIYQQYhYdNggzm8py7ftjqMDZb2O03RGjj+Os/vtnxshY4NdMkNF2ypF4MBQxDy9G4JCWdjVzx9P91Vjz3/1IuVnOAp+TUKQV471B/fl6gZQ8pnCAnYGAMefEWnitW4Q1p6+g0moApjwzFoP4unumgpWLzzan5Ewo5jUxeIfc4VGgKBdK9ITPggP4eQELMFGAnCKgHwsoW6K5fdVXDpWE3rGEEEIIIeS3978ThJWW4xafNegu/1fH0YW30rhg0cfawUHqpmCI44QY0dqBOaSoSlJg5Y2nsOp59/rdEE1ka9UTEx4CEk8qoDhdgOEvfYq33OtHkFLyoKIAN/ms6G4Lyp8fjaB4IHB+GEJ8PeExuA/kdva4p4P8Ce9PlRXA0Fd/C4Gh7/fWWDVnXuMWR+cemFyajkv672ZVZuFSaX/0cubLJjC4r3qKUFDmxOqHLxJCCCGEkHbr/g/CXHtjjPBvfhSCg7eLoxuGhcY0GJhDjt6PaLsoRoYsx8bw7Qj+LIGPoDgQL8zsCxnysHHpEgR/qv1S57DgJVh3wtCjOtcWA3MYU5aCsG9PY8Izs1rYDVEnHYfPAx7jp8JffAdrKjx6N2xVk5BHCETU5+veT1JlQXE4Eql8UbLbDVqk7pYj42g06n+zG+fgBA/VGSTodw9tGFBL0dsdHnfOIVEczaUh4Qucl8L7vANWBbCgqKmAx3kcZjufQdjX6XzwkHKkfM2C1YdYEGlSECZhX/ryUxB7ZyTcm/iWBkIIIYQQ0r60uy9r1pf22V8RcJTNCEPUv9bcUBpKRC9bgHWXmv+i5fwTG7Hi0wRk6l7JkQ1E0NYVeNqRLwvK07Bj0TrsUfIWG9l4bFLMxRCxgacCOdE78Y+9p5Cma+GwdMHTLAh5x1sI0AwoPYV1s7cgGsOxekcr3gszQPtlvMK7Uo1NbvJLeQtw4JM5+Lpv43U5MUsx7Yd06OIn+YNO6NetJ6aMng//IdrudMbzlCMxciFmZBSg64MsQJO5Y900D6TuPI/RK1lAof0xIGkbHKOBo/pp9fDtXC5DP0trVN6xx5Q/+8H2rAKWPsIXD/NsIt0+i+HazR6W6mJYPhGCL6b04euly/k6EPPU83H0xQZdLFO2YcB/oht/pxfznudXeGsIXyhLR8SuFVhfZo9+KMY1ay/8c5Yf3GsDZO0XJq/hS/pqz5fUfXHCMS/DO6y8PXkKIYQQQghpr9p1ENamaqpRVi4EWMKAHc0PzKEur4C6pvk86lK2Xhj0w8qEwT3UFSiDOd4La6X8aMz713XMnjcP7nfLUclbklTnQjHxBydEvsfSpeTRJrFgpBwldyxga9fKggvfBVYpcTtiXvavpRVsJY1w2IRKFiR9sg3yF8PgZ3oMV6uqlNUPu95sbe7xic87hJn/KsDi+azuW1pmQgghhBBiNv8774TVfjGz4eBJO+pi83lkwjZMCcAEZhmYow1cS8cB2/5ii00XG/7Fz2yy62oFOPTRfs+UlDw61sK6Nii4EFBJ3Y6Yl02tCUYs3fHWy5MQH7UWsXk8rQXE+rnnAdhJLP3iNKa8TAEYIYQQQkhH8b/TEkaMq0xHRPgH2NFpKPwe0vadK/j1BGLveuBj31cxTBiEREqe+0X2OcRjaP0vXm5vOsIxEkIIIYSQeigII41UqXJxKbMAJRYO6NenB+RNtOZIyUMIIYQQQghpjIIwQgghhBBCCDGj/513wgghhBBCCCGkHaAgjBBCCCGEEELMiIIwQgghhBBCCDEjCsIIIYQQQgghxIwoCCOEEEIIIYQQM7p/R0e8dgo7vsngC1puz8zCmF58gXQIVXkpSLgB9BvkDrllMTISr6DyYXe4u7RySPxfz0ERD0zwHop7/tVm5txXC92zeiaEEEIIIY20wyAsE5EBWxDDlwTdewzE2DGe8HjKBdadeaIxybsw5n39rQC+7+9D4GC+0GE1qB+rhzFkxJ8wecIouNrwNJPw7fXxwkdvj4cDT20vlEeXYkAisG12CHycU7Bh1QpcGBaO3ROdeA5GlYvYU/txOD0dsB/LrhNvTO5vxVc2LSc6EAvuvoNDU3ryFO6uGiXpJ3EgVYanfcfClScLSpIPQXGpgC/VZ9vPD36Dm95nk/uSeMzKxP3Yci4WKegPn6FsH8P0yq1j4JhFEvYlqZ4JIYQQQkibaIfdEdX4NV+JTL0pKfE4NoYugdeKGBTxXEYN8sORPRFsWotFj/C0+0KD+rmcjEjFFkyfvQA7kit4HhMor+K8sJ1fq3lCe2QN2658tqGM/ZgWFox4eOAt/9UI7FcOxcHXsSGpnGdoSi7iWTziM6h+AKb8bgUGrPFBn4OfYGlGOpQ83aDbP0Nx+Qosf9dc0NfEviQecw4LjCbGFWC4x2ps93BHTlwg5h2tHwQaPWaT6sdAPRNCCCGEkDbTrt8JE1qu4g6xaftcPC1j4cfP0Th5ja8U1KiQEx+FHeG7sEMRgzT9J9DOFrC26SZOMmM9qgxth1PnZ+Js9H6DeVCcjSS9PElXVXyFHgn7kkqsn/2bETLOjh2gEns2fInMGr6SMXjMwrEmJiPpbAZyhOVSvixO2SgTM3GtOGbhGDLzWx7gyeWPsv87wY4VEZChCzuXTpbWwoKWmye2BYYj2NMdrnZOcBs1D9tG9sSaxHMo4VkauRiLCNkkTOjNlzn5n1fj55VfodDTk6fUZzvYC4G+8/QmPwy3KMfoUcvh48IzNdTUvqQcc+UZKM6X460X52PyY06QP+aB9170Q8l5BeIreR7G2DFLrR+j9UwIIYQQQtpMxxiYQ+6GQY7CTDEKdU+OhQnYODcA00P3Y090DPYc2IUAthxmamuQ0e1UI+0zfzwdEISl4VHN7kudugvTZy3HQr08CxcFwOuzNKh5njY7Zn0yOUa8NgveQqBZGoOTPwmJEo455zgWrlmHhTtPIV9Yzj+OYGFZnI5rAzNBa465MAYr2DH4B6zCsUKeZio7e4y268G72NnDqRvwexv9Vicr2IqBQx3LrvZ8rmmJF47AfeBTrX4/q+r8Tqws88N745rfX9P7knDMGSlQWHtgtH7w1nskfKzPILH+q45GSKwfo/VMCCGEEELaSrsOwtS3KlB2PRNnFdsQJkQKsj/ATXxKVCEubAui2IP9iKnBOHJwH4597IcRMhUihdYgIYskUrZjgYGTfOE79Q3s3S50b9yMiKl9xZ+N3HlcG8AwmadixMBlyMz12ta7L9Zj68ypeMd3ILQNcW11zE2w7A03sctlNTLyhNY3Cces6665eJSwBDwyFRFi901h8sNAMbGVx2xhBUeh8DJ7yCy0SSaztoe7nQO6iAtOcOsxEoN6iAvNKEZcyhn493OHLU+pp/IMYrJZMPOU4UDNuFz8Oy4dfh5jm96PQPK+Gh9zSVEBlN2d8Hu2LnbHTEzccRIlQnDUXY2bRYa6WhrTTP2YXM+EEEIIIaSl2nUQFhXqj0lvBGHpgUyoZXJ4vv43jBEGnyhNw4kkoYtbN6Dwe3yxcxf2fJPHghFhXQYypHaXk7qdXhMQ+KwLChMP4wvFLoSdyNMGVteUte+oOThp+6Ml7V6O6UvWIexwBmQjJmOE7vm7rY5ZKmPHrOuu2Z23dshYwMS7b1rb8IiptcdsMwrLFCyoUyzSnreWkHsgePrI2oDB3Xs5PAw0YeUcXYtld2YhcEzTgU/Vj6ehcHkKw4UytIbQzRAeGN2HLzdB6r6aOuaqO2VAFysWFJWhpLwcOeXFLCSWwZJFSSV3attWTdZs/ZhYz4QQQgghpOXadRA25uVlWD1RG9zInpiKwHH8qbCynL+zVIGz38Zou8lFH8fZUjFROonbyT+6GpOEroZ7jyP7thxPDHKB2DtSj/NzwYiYPx4jWLCRIw6WsR3+Af7wD+fdEdvqmJtS8wuyrwozFnBz0fY9k3LMRrXFMctYUKdtCrznSs6EYl7qo9g20xOuTV7ZxYhNPoc3ho7kLT4tl3IpFraPPdl4JMJa0vbV3DHLHR4FinKhRE/4LDiAnxd4sX0VIIdF0P0cjLWsNc14/RBCCCGEEHNo149izm6DMWb6VPF9J3XSTuxO4u8hObrAVXywd8Gij/ngHbVTMDyb+wT/Lv9XR9J20vDlZ2ksGBmOkIitWL14Fmb7/BHOwip95Wo4j5uLkD17EPfFZuydP4o9NFcjkwUtScJACi09ZgnyoyMRJUR6suEYIvQ6lHrM+krLcYvP1mqDY27twBxS5ZxYC9/vrbFqzjwMa248ifzT+HepB0Y/zpdbrAAZN8ox7OEGw9vrk7Avg8fs3AOTS9NxSW8QDlRm4VJpf/QyeCKbJql+CCGEEEKIWXR+n+Hz7cQvSPwijoURwBPjfDC8lwv6dUvBF0kFSLtYgz9NdodjZzl6srSvkrJx6vhZ5CrzkJmcjDPRn+O4Zjj+1Fu//5cVqq98hejLd5H2w3moirMQm1iDJ4e6QNZJynZ+QcqXcbhQo8SNAhVu/nQKe7ZGI+mOsO1HMXnaHyBn66KDF+H1iFNsG+WofvBBFP18BkczVahxHIoZLw6EnaR9SVFXPzkX4vHdl/uw7ewvqIEFRsxZhBni9z9JOGZhVtBFhSv/OY+csgxczPgFv2Sk4MyJX+D01KOtP+bCGCyfuxGfRl9ET4/x6NONp7epcmR8vQIvXXTBhtdYgGGg22NO3GYclc9EYL9m3+LSyj+PkEzAb+xQFn42JQtHY76HxeNTMbKZr9EyvC8Jx9zdBQ9d/gRh2e6YMvAhPMh+JiUqFEEPeGPtuN5ij9B6mj1m6fVDCCGEEELMo0N0SnL4iy98hYfHwmiER2tfRHL2fAcRc0ZhIPJwLEbbVS7yJ6Cq+Je60Qi5gdOXYYbcAqjMRlT0cRz7LhkZPJPx7QyE5+vD0VdWjbRTbP232XCd/gYC6333mDWemDQZTz+kZNvYL44yGBydDVmPUVi9emptlzVTjlmKsmIlMksB10HjEbT+M4RM1IVWUo6Zsx+PwIXavJlJx7XH9EMCMvlohq065rYYmMOYFAWeT05HTkU0Jm58Do6r6qYNSTyPKB2HLwKTBzbXeiV8QTH/2ehotsy2x5dnNvhuLqGbpgp90Ot3fLkRI/uSdMxWGD11NTxursDgtXPgtXYmXrk5EpF/0x8IRMIxS64fQgghhBBiLg9oGD7fYalLK6AWBpqwMvykry5n+WqEASmazmdwOzXVKCuvhsyqG2SdeVpT1BUoE7qQCe9CGWgoknrMrSL1mAU8r/BeWYvqpzlCfcB874U16+JOjI/viUMBHvVHBbwX2nhfVaXlqGTnxdbmt65EQgghhBDSFu6LIIwQYxI/94HCORyb/9yyQS1MYc59EUIIIYSQjoeCMPI/oBw5SVfQ9XF3yKW+etdi5twXIYQQQgjpiCgII4QQQgghhBAzom8LIoQQQgghhBAzoiCMEEIIIYQQQsyIgjBCCCGEEEIIMSMKwgghhBBCCCHEjCgII4QQQgghhBAzoiCMEEIIIYQQQsyIhqg35top7Pgmgy9ouT0zC2N68YX/QVV5KUi4AfQbJHwXVjEyEq+g8mF3uLvIeI7fSGU6FHv3Q+k+D2/90YknEmJm99l12G7vd0IIIaQDa4ctYZmIDFgAf920ZB3CDpxCTilfbW5FGdgTHVNvSi3i6/5HlaQq4HVUgbhiYSkXh48GIzRVXGigAIfD58ArPBZKntIiqhQoolNQwhebVXoF8TfPITy7gCf8FtIREcrKXDstxNLIWGSo+GpTSSm71Pq554oRu0O/7HVTxEWexRTmLFdb7qtdXIcmMFJ26fc7IYQQQqRqh0GYGr/mK5Gpmy4nI1KxBdNnL8CO5Aqex4wG+eHIngg2rcWiR3gaYaxh25XPNif/HP5d6gTX0ljE5fO0lsg6gwVZuajii82Se2Lbon1IfsmdJ/wW1CipsIKP5ybs9mfT1Ncw/LYCI8MVqN+eKpGUskutn3uOlf12AWzdlmvLrjf5ufEspjBnudpyX+3iOjSBpLJLuN8JIYQQIlm7fifM9/19iNu/GSHj7NjznRJ7NnyJzBq+UlCjQk58FHaE78IORQzS9Jpb1MpMJCUmI+ly/SaIsqssjaVnKqt5CmNgO+hsAWubbuIkM9b7hh1jWvR+cTuR0WnIV/N0EduHcDypeVDX6PLtR3RyE21Eho5HUJwtliEtX1uGouQYRAp5DyQgv1JMMkidn8kCXL3ym0guf5T93wl27LQAMnRh9eJkaS0s1KO8cBIlbvPg3zsXX19ovlWg5HIK4hPPsSkdSv3jryxHiYpNt8uAu+VQCfN8qtLV7V324K+XXnKH/Vi9etdTlIVEcT8pyGjYmiluh/+gLl9yFkqa25ZBMljaWsHWjk09+8Nnsh/8KlOQogtE1WxfpQ02rL9/gZSyS8mjY7ayMxa87HqTcI2IpOzLlHJVFiMjWSjXOSRebqJ1RqhrthlRZQFSeB3k6H4tmLKvslz+803sS8p1KKXsZdr9lqQL63JRcpfNZwv3B7s3Gm7PUNnbsJ6l3u+EEEIIka4dvhOWhjCv1Yhkc0IQFjiYzVQmYOOMjYhSW2DGqj2YPYilFbK0pSytUPgZHTv2M6HsZ7oB16MR8IYCabIJ2LpvFgZ2FtbnISpgCTbmu2DRlvXw7sGSjG2nlhLRyxZg3SW949KjvhaNFUsUOKv/kCPri0XrV8K7lwVb0JXLDq6OLMiq3Z8FRsxZjxBPuXZRyvEk78KY92OAiW9gKxQIOKp7ohyPTQfnYohY1mYUxmCp/y6cRV8ERQTjaUeeboqs/fCKtsL2+Z6QowAHPpmDa6O+wltD+HqRkL4QBX9hdVW5DQNO9cBJMb8e5Rms2RuKg53c8eLD7CGv/AoULHIN9A2B32MyKE+sxdzzWcCdYsTfscBovQe/Kc+Ew/8JNqOMRdDe/UjRJqOAPWi7PRmO3RPrv4uTw7Y171QW+vUeCjd2bLHZV+A2KoQF+DxffjRm7sjClNFlOJAqw2i5DBnXTyLGchaOBnjCVfLHFSnYsEqBXrND4OOsTak6/wkmfmeFzYtfhbuwnaRtcGT18bN+fYj7v443Vs7DMLYopeyS6ocxX9m118LXfRvXfy0J+5JarqqLOzHzP7GwdR4Hdyu2d3YtJDgE4T9/c0cXbRZtXSf2R9KwdCz45jRcnZ5idZCLqv8LwltPSrzGhG6W/1yKZfn2mNznURaOlCHh8hmUPBaESF++LynXoYSyJ37+HEJ/7YMuVo/CrjgW+J0HKllEZFl2Bim9VuP4S/3FTRktexvWs7T7nRBCCCEmEYKw9uWiZsvz0zSj2bTlR56kKdAcXqpNe/u/xWy5WHPyg+na5c8zNLfuaDRVOYc1b7/E8kzfq8kQf6ZYE/t34Wem120n50vNq8K2//6d5paYIGU7OnXHUHdc3J0Mze5XteuE7RSWFGgyPl8pLo9+lW2HbVe/XH4bv9NkF7A8kSs1fxHSXvpEc/62kEfi8fy4U7vtl6Zr/vLSm5p/fPm95nzCj5rz56/zchlQ8r3mH8L2XtqgOVnC00xVEKNZuee0RsUXL3z5oSamgC/o3DismbH6M01CDZuvuaAJXf225t83tKu0rmn2bpiieUZxQVPJU0TFZfWXBec/0zh8fJidAWNuav798RTNjP/e5Mvc1SiNbzDb/3W+LLgepZkR/Lpm71W+LBxv8IuauV9dqdv/rROat4PZ+U7jy5KwsrLtjAiZrXl+vTDN0Dyz4TNNnP7BN1Uecf+svvhiLSllN5THrGXX1n//D3Vl104rjxfx9Ywp+zJUrtunNatXz9CEni/jCUyNcE2x7aTyZYGwjX/M0Dz/aZQmu4qnNcVIPVcWFmkqhWtZ50okq9cPNDHCr6NGmrkOJZQ9QTFF4xB+Qlxf8N+3647p3Md181LK3lb1LJByvxNCCCHEJJI/425XStNwIknoTtcNKPweX+zchT3f5AGWwroMZIjd9+wwYpzQXFWNqLNpQgJyzp5AJvt3zOg/QPzMV9J2JMi7iJNiy9UovPBCXzjYyNH3hcnwFpIKE3GRbVLfiHHj4SpneV58QZtH/SMu5rB/TT0etRW8312LZd6jMGTYYAwZ4qItlyE2o7BMEYEjikUYY8PTTCX3QPD0kbDli+7ey+FRr4kLYlfEhN4jMUy4wjr1xzCXrPpdErPO4EDZWLz3ol6rhUDousZn24oy/TRi5Z7wcOEJAhcP+MlzEZuu302yDzyG9qnbv3V/DLcpR5WELp712WPyk/OweIwwvYrZ8p+xdO9axLbmvbgWMn/ZgX69pvKyayefvlZ8jU7r91X142ls6OaJp/ugtgtdSakD+vWQIeF6g66v6v4InO4F11YM5tfFwZ4drxoluemIPxWNiMR0llqGktva9dJJKHtXYV+cQ09ta+kDdQcvvextdE4l3O+EEEIIMU3HCMJqfkH2VWHGAm4uduK7DNrXPCpw9lvdqIXHcbbBCIrWI8bDmz27qL9LQFpNHpKOC1HMYEwYJr7cIHk7RhWpxOAOsEJ3IWASWFpB+9ikxI3mRlPsLHRTFFTglvAwZ/LxDMe4el0mJZJ1g3UrHkiNK0BcZjqUWSvguOo5NvnAK1eNw5nn6kZJVBUjnoWMlrr6uodulmSxi8G+9iFSywp2LGJNKGnwwN5Qi+4Qe/QbMBSjhwnTWPj8bRO29UrBm3G6zmrmY/6yA7aO7rzs2knSUOYm7qtEOPaKKARFLMRMvWnNNRlcLRvuz0Esb2sIXTq91i3CmtNXUGk1AFOeGQuhV3SbuKdlb6Bj/MYnhBBC7nsd4k9yfnQkooR3rWTDMaQv+9fRhX+q7YJFH+9D3CH9KRi616tgORwT/swCHfX3OB+fhjP5bBPjxmOErgVI6nYausv/1enjhqfFmTRkXBdngOvZ0I7KPRiD+ogzjV3L4Hn6ol9P9k9Lj8dErR2Yw6j8c/haNRaH3v4KhSv59PZyBKpO1o2S2KMHfJCCS9l8+R5ydXJngXJug2HyC5DDguMpTsKgA/eeraU1lHf4gqCiADf5rOjuvTkf7aHs94IwWIT8QQ8ELwrHocX1p+Bx9jxXG8mPRlA8EDg/DCG+nvAY3AdyO3v8VoMFmrXshBBCCLkn2nUQFr15AfxnzIDvzkyohQEsXp2KIULLSeeBeGFmX8iQh41LlyD4013iSIJhwUuw7kT90RAHjp0AZ1QgemckzrJteI74A2+hYkzYDnv0Qe9HtC1XkSHLsTF8O4I/S9C2XNn8AS9OFFrX2HaWCOu2YOESBQvJ2EPwxMl1QR8XtSFIm2fpfjGPbPRkjBEGyDDpeFqoMAYrAoLgH7AKx+oN/tF2hK6Ih12ewnD9Vi5Ld4yWp9d1SZSPg59LAdZE76/3HVrKU4cQ26D7Jhyc4KE6gwT9SKJhIGyA7dBJeKtCgfXHcnkKkHNsG8IqPPDS0IZd5dqYWo2cZAU+TCnGW49pB1WAcw9MVp9Hom7MelUWFIcjkcoX65FSdgN5ftOyt5ahsg+ehPdkR/BhVIo4gqBOyU9ZDQJOiQzt63Z5/e/QuluOjKPRiOGLZmfOshNCCCHknmjXQVhZsRKZpSyQGTQeQes/Q8jEuqYgZ893EDFnFAaygOVYjLbrXuRPQFXxLyxg0zPgj/BkQVB+aQWLdsZjwjBdF0AtydthBk5fhhly9vOV2YiKPo5j3yUjQ8zUDQPnrMWm53rDWlx3CkmVFhjy3DJsnjOwLugTyTFmUDVixTyA9WPe2Pra8No8phxPi1hYwVHYmcwesvpV0Ua0XREDBzxZ9y6KyArD+w3V65JohdGvhOFjq5OY9okPRn40BxPX+OD55CLYNTyu3h5Y7FaAt7f5YKLw5b9rfTAtOouvlMB6KN7zfRWWFxZhwFrtz0+8YIHFvvMxrJXd1JqWjnk7hG6YbFr3MqYdz8LwCWF474/8LDuPwxtuaqyPfA5D1v4VQyIi4TR5Mfy0a+uTUnZDecxeduBw4hzeDbVumnnUSNfHphgqV6ee8JsVBI+bazGC1aH4pdBs/cz4c7jZks8rDO2rjyfec8vCm5u1+5n40QeIdfSEH+/VbHbmLDshhBBC7ol2OES96dQswFIL3+dl1bqoQup21OUsX43w/WFN5KupRll5NWRW3SCrN1S8boh6Psx+vwqUVRveV1uVqxE12zcLHO/te2EmEL7LqaJafI/O1tA7YsL3GgmDChjLZ0BVaTkq2TmwtWkHhS9j5bnDjsVOwrFIKbuRPO2q7KYwVna+3rKb3veRtZShfYnrJJ4vczFX2QkhhBDSpu6LIKxjaOL7zwghhBBCCCH/c2isLLOR4SFnOfqy6aH6/fQIIYQQQggh/0OoJYwQQgghhBBCzIhawgghhBBCCCHEjCgII4QQQgghhBAzoiCMEEIIIYQQQsyIgjBCCCGEEEIIMSMKwgghhBBCCCHEjCgIM1VxNjKvqvgCIYQQQgghhJjmPh6iPg9x4THIYHNuz8zCmF7a1HquncKOb4QcdZrNKyg+heB5W3BMDQycuR5bvV34CikkHE8HUZWXgoQbQL9B7pBbFiMj8QoqH3aHu4uM52hnVClQfJOFfs94YZgdTyP1dLhzSgghhBDSgbXDljAV4j5aAP8AvWnlFkRGp6GohmeRRIXU6BjsYVNqEU9qqChDXK8/NZtXUK5CPgvABGW3q7Uzkkk4ng6iJFUBr6MKxBULS7k4fDQYoaniQi3libXwCp3TaAo6UT+fWdzORWzGaeTc5su/uXRENFE3XqEKpPAc5iblnBJCCCGEkLbRDoMwNW79qkRmvt6Uegph4asxdUUM8k0KxIwY5IcjeyLYtBaLHuFphvTwxOatwdi0aj22+vbmif+rrGHblc82pbIY8Q96IMR/E3brTYtH2PMM/8v6w4/XR6BjAeId/Xj9TIU7z/HbMHJOCSGEEEJIm2jX74T5vr8PcYfYtGsRfG1YePazAtE/CWtUyElMRlJiGvIrxaziu1pJQlqqkoVx+rqhe2cl0qL3Y0f4fkQnK3k609kC1jbdxEnWbK+rauSnCvvSThevl7MA4xcUlvLV+oRjEPezCzsUMUhq8t0xOR52AIqSYxDJ8jXZwlfDyhcfVbudNL1DFvGypuVrW+N029pxIKGuPgxQ52ey4NbUlrw6cvmj7P9OsBO79snQhdWdk6W1sFBfJyuWxwq2+pMlXydQq1FSxucrC5CSeA7xiSnIaVhtLKDLSBbWnUPi5aZbZ6ry0sX1wpSSW/8KqKcoC4lCvuQslOhnE46ltMHP3WVpKr00KXkk6sLrw86CLVjY8/rRuwj1t9vcMespuZzCy58OpYRroCHJ55QQQgghhLRaxxiYw743ejsLM9UoVFWwf/NweM06LFwTiSRdMJRznC2zNEUydM/1WtXYs2oBAsKjsCc6CuveX4Kl0Q2jGkOKkaQQ9lV/OpzDV3Pq1F2YPms5For7icGeA7uwcFEAvD5LaxAUluHw6hnwen8Xwlg+sYXvk4S6PIUJ2Dg3ANND99duJ4AthyUL5eZ4WQP+k4C0z9g++Lb2sLLnCw/1hhTGYEVAEPwDVuFYIU8zlZ09Rtv1gKu4YA+nbsDvbazEJZNc3IU+n59ETtI2eG1ciojU80hJ3Y+DV+pqrOriTkwLfR2hSWxd1nl8/d85mPh5Cqr4ekFK1ByM/GI/UgrLUaI8jwNfzcTI8JMo4eu1nFD581pM+zwKCVlncODbpRgRHo2cu3y1cCy7Y1HvyiiIxZuf7EIiX5SUp62I292GAycMHLNAeQZrQn0w/utDiGP1k5K6E8+HLoTicjPRWnPa6pwSQgghhBCjOkQQVnbpFE5eFea6wVnOng5NUg3np+Zi7/bNiHi5L2Rs+ezu/UiS3Fogh0eQ0GXRcLfFzFMxEOKyITPXa1vvvliPrTOn4h3fgWyf+iqQYzUem7bojocFcCfSkCmuUyEubAuiWHA0Ymowjhzch2Mf+2GETIXIDV/yPHq+24YF38ngOfMNbHpvGTYFecKtM1/XHAsrOAo7ldlDZixga461PdztHNBFXHCCW4+RGNRDXKhPnYUE3jolTikF9YInkWonFvzghM2Ld2Pzq/MQ+OpqvPUkr7HKM1j/n5MY/uwObBPW+c5DcOBG+CnXYsdFbRYWguHYxQL4jQ9C4MSxmOwp5NmHMzPHwpbn0DqD+HJf7J6/mG1nPjbPm48pRQocTuer26WTiL1l6Jhzofh8LeJ/H4Qzi4LwHqufwFdDcCZwDV56rP5VZ5TUc0oIIYQQQlqtXQdhke//FWO8/opJy/bjrBpwnfgWpvXjK00wYtx4uMrl6PviC/AWEtQ/4mKDlixDZFbaLouGui06OGlHSkzavRzTl6xD2OEMyEZMRlOvQHnPnIUhPdjxjPsThogpV5EtNK+UpuFEktBNkAWahd/ji527sOebPEDowleagYyGDXhqK3i/uxbLvEdhyLDBGDLEBUY7kNmMwjIFCygVizDGhqeZSu6B4Okja4Mcd+/l8JDzBX13cnFBaJ3RTbkFaBT7qvsjcLoXXJuo16ofT2NDN0883QcoUZVrp1IH9OshQ8L1Ap6rP552s0f48WBEfJeCjJu8BajR9vrAY2gfHmQw1v0x3KYcVS3oumc+Ro5ZaB0rG4v3XnSvyyOws6q/LIXUc0oIIYQQQlqtXQdhA4dNwAxPYZqKkI1bsfe1hq1KJuqsa/qpwK02HinP+TkWBMwfjxEssMm5nIxIxXb4B/jDP7xhd0QDKst5V8oKnP1WO5LinujjONvU+2ei4Rg32NSWQUbGAspWVaRE3cZijtA6o5s83Ru0TgkcYNdM5FhSwgKtiigERSzETL1pzTUZXC11BZDB3Xc3Tj47El2y92Pp7pfhuCYQQUezGre6NdQxOuPWp3/MqmLEs7DbUv89O0IIIYQQ0u6168fQJzxnYfYcYfLGiEea+oKnEqh5q4D6loQvUL6WAW0vtr7o11OcaUz/fRtTlKvhPG4uQvbsQdwXm7F3/ii4ohqZLIiS3PXR0YW3CLlg0cd8UJLaKRiebdQy0dqBOcxFGCxC/qAHgheF49Di+lPwuPpNjPLHPeD36mocWnYAhf5eqDy/FGGmjvdeUYCbfFZ0t4k6kpLHXHr0gA9ScCmbLxshDF6Skmfiu2KEEEIIIaTNdcS2AMYOD4sDdSgRtiIIwWuWwCs0QVzTlKgNQdgYvgULl+5HGluWjZ6MMY7adVpy9H5E20oWGbKc5d2O4M8SGgzwYUCNEtFr38Skvy1B8KdROJZ6A5lZecgX1jnK4Sy1paLzQLwwU3hPLA8blwrb2iWOkBgWvATrTkgIMqVoi4E5zGXwJLwnO4IPo1JQohccl/yUVTc4RlkKDkSnQKkfW1jbw/ZBC3R5kC9L4dwDk9Xnkaj77m5VFhSHI5HKF0VS8piTfBz8XAqwJno/MvQuD+WpQ4jN4ws6ymi8uXMpxu9cgcMNu7USQgghhBCz6qBBmAs8500QR3JTl2ayoMcOc9a/AV/tyvpsxmPOxGrERp8SW6SsH/PG1teGN+rWOHD6MsyQs0CsMhtR0cdx7LtkZEhuNLDGE5Mm4+mHlDgWs58FhesQHJ0NWY9RWL16Kh9xThpnz3cQMWcUBrJA7FiMtkti5E9AVfEv0rs1GtIWA3OYS6ee8JsVBI+bazFi7V+1X2i81gcz48/hpi7oeNAJTupDePMjH0zkX3o8cnMorrn9HbMf53mkcB6HN9zUWB/5HIawfQ2JiITT5MXw46tFUvJIkoINq56DI5smZrHFrBXivOOqbSaOsmiF0a+E4WOrk5j2iQ9GfjQHE9f44PnkIu3Q9/pk1rAV7vZO9uLw84QQQggh5LfzgIbh8x2PugJlLLASBs6QGRsVUMhbbQFrK8ORh7q8Auoa4fvDWhih8GMS37tq5bs66lJ2LMJ3mRk5ZpMJxwgzvRfWVirLUcLq1bKbVbNBRFVpOSrvsjw2LE9LP14oY/u5Y1H/O7sakpLH3ITvMKuoZoVv8F1s+oQ6ZIFbs+sJIYQQQohZdOwgjBBCCCGEEEI6mA7aHZEQQgghhBBCOiYKwgghhBBCCCHEjCgII4QQQgghhBAzoiCMEEIIIYQQQsyIgjBCCCGEEEIIMSMKwgghhBBCCCHEjCgII4QQQgghhBAzoiCMEEIIIYQQQsyIgjBCCCGEEEIIMSMKwu4TVXkpiE9MgbJSWCpGRuI5pOSpxXW/qcp0KMKDseGHAp7Q9tpt2QkhhBBCCGlC+w3CSrNx7NPV8J8xA2Om+sN/pQJJSr6ONFKSqoDXUQXiioWlXBw+GozQVHGhgQIcDp8Dr/BYtKo6VSlQRKeghC82q/QK4m+eQ3j2vQvCpJedEEIIIYSQ3177DMLyY7B09nIEx6Qhs7QaUFcgMzUaSz89jiKehTTFGrZd+Wxz8s/h36VOcC2NRVw+T2uJrDNYkJWLKr7YLLknti3ah+SX3HnCvSKh7IQQQgghhLQD7TAIUyEuXIGzakA2wA+RB/ch7tA+HHl/Gba+PR4OPJeoRoWc+CjsCN+FHYoYpNVr2mHrEpORlJoHdU1Fbb7I6DQU1fAsguJsJLF8afks2GOKkmMQKWzvQALyxe5tnMF9ccK2ovfX5km6quIrjFPnZyKTH0NLyOWPsv87wc5OWJKhi4wtWVoLC/UoL5xEids8+PfOxdcXmm+dKrksdPE7x6Z03s2PqyxHiYpNt8uAu+VQCfN8qtL1ALyrrk0Tpzvsx5rrHViUhURxPynIaBhhi9vhP6jLl5yFkgbbklp2QgghhBBC2oMHNAyfbx8KY7DUfxfOwgWLtqyHdw+e3lBhAjYu3YioQr4ssoPv+6EIHNyNzachzGs1ItEXYwZnIy65LsCRjVuEIwuHs8d1JnkXxrwfA0x8A1uhQMBRXeA0HpsOzsWQzmzW6L5YEJW6C/4rY5AjLtVxmLgC+18bqN1Xc2rL3BdBEcF42pGnmyJrP7yirbB9vifkKMCBT+bg2qiv8NYQvl4kpC9EwV/2IbByGwac6oGTYn49yjNYszcUBzu548WHWWBTfgWKfDUCfUPg95gMyhNrMfd8FnCnGPF3LDBaL9iZ8kw4/J9gM8pYBO3djxRtMgoqC+D2ZDh2T3TiKVo5bFvzTmWhX++hcGPHFpt9BW6jQhAyjufLj8bMHVmYMroMB1JlGC2XIeP6ScRYzsLRAE+46j5CkFR2QgghhBBC2of21xKWm8eCEcFAuAkBWGkaooSWJXGKRlqpsE6FuLAtYlA0Ymowjhzch2Mf+2GETIXIDV8iU8hSKxNnS1hAtWUzIl7uKwZD6hNpDfIw323Dgu9k8Jz5Bja9twybgjzhJgRgEveVeUobgA2ZuV5suYv7Yj22zpyKd3yNBGACCys4Cplk9pBZaJNMZm0PdzsHdBEXnFjdjcSghgFs/jl8XToOw/uz+cEjMaf0ZIMuiblQfL4W8b8PwplFQXjPdx4CXw3BmcA1eIkFYAL5uOU4tDgchzw8ABs/bBfm+SQGYGImDwTXpq/GYhueri/7EJbFF2P2K+HY/De2n78F4dAr3iiID4Yim+cRnUTsLV/snr+YBYLzsXnefEwpUuBwOl8tkFJ2QgghhBBC2on2OzCHTmUezkTHYI84/YBsoWscC8xOJAktW92Awu/xxc5d2PNNHmAprMtARoOugt4zZ2FIDzn6jvsTtI0jV5HdsDuh2gre767FMu9RGDJsMIYMcYHYxiNxXw5OLuK/SbuXY/qSdQg7nAHZiMkYYS8mG2YzCssUETiiWIQxTQUsUgiBz/SRsOWL7t7L4VGviUvbFTGh90gME856p/4Y5pJVv0ti1hkcKBuL91505wENZ2dVf7kNKNNPI1buCQ9ttWm5eMBPnovYdP1ukn3gMbRP3f6t+2O4TTmq9LtISig7IYQQQggh7UX7C8Ic7NBXnFGiUGj1chyPoD1rsegRMVGrshxl4kwFzn6rC9CO46zYStZSwzGOdy2sR+K+nJ8LRsT88RjBgqicy8mIVGyHf4A//MPT0NzrUPXIusHaaJNZaxQgLjMdyqwVcFz1HJt84JWrxuHMc3WjJKqKEc9CT0shwLzHbpZkiS1YusBJywp2LPJNKDEykmL7/+iAEEIIIYSQZrW/x1mXJzBWbA1Kxr7D2UBnC1jbdINMP0BxdIGruOyCRR9rB+6om4Lh2ZatIFL3Va6G87i5CNmzB3FfbMbe+aPgimpksoAtSb/VphmtHZjDKKEromosDr39FQpX8unt5QhU6XVJ7NEDPkjBpXrdAe8NVyd3oCi3wTD5BcgpAqY4CQNtEEIIIYQQcn9qf0FY576Y9tYEFsAAafuXY9KsBfAP+DvCLmlXizoPxAszhfe78rBx6RIEf6p9ZywseAnWnZA+IqEkUvZVo0T02jcx6W/C+igcS72BzKw8iLGNoxzOxlqWCmOwIiCIlXMVjtUb/KPtCF0RD7s8heH6x2LpjtHy9LouifJx8HMpwJro/cjQq0blqUOIzeMLOg5O8FCdQYJ+FHWX/yuB7dBJeKtCgfXHcnkKkHNsG8IqPPDSUCueQgghhBBCyP2nXXbskg2ehc1BnhhhY4GyYiUy81Uos3SB95xXMZaPHOjs+Q4i5ozCQBYcHYvRdhOM/AmoKv5FWvc/ExjflzWemDQZTz+kZOv3I3jNOgRHZ0PWYxRWr54qBpQGtcXAHAZpuyIGDniywbtdVhjeb6hel0QrjH4lDB9bncS0T3ww8qM5mLjGB88nF8Gu4XH19sBitwK8vc0HE0PnwGutD6ZFZ/GVElgPxXu+r8LywiIMWKv9+YkXLLDYdz6G0ejyhBBCCCHkPtb+hqhvQF1eAXWN0CWx+ehEXcryCN0Wre5JBFOP0X2pK1AmdD8U3vEy5d0q4edwr98LM4FajZKKasDSCraGyiF8b5hQXmP5DKgqLUclLGBr014KTwghhBBCyL3T7oMwQgghhBBCCLmf0DhzhBBCCCGEEGJGFIQRQgghhBBCiBlREEYIIYQQQgghZkRBGCGEEEIIIYSYEQVhhBBCCCGEEGJGFIQRQgghhBBCiBlREEYIIYQQQgghZkRBGNEqzkbmVRVfIIQQQgghhNwr9GXN96Nrp7Djmwy+oOX2zCyM6cUXGio+heB5W3BMDQycuR5bvV34it9YbTnc4DlnFJy1qfdMVV4KEm4A/Qa5Q25ZjIzEK6h82B3uLjKeg1OlQPHNGZTwRaA/JvuOhStf0lJDmZKCS+iJ4e5O6MJTf1OV6VDs3Q+l+zy89UcnnngvGCp7LmIjj6Du6nTC8Ge8MMyOL3KSzwUhhBBCSAfUflvCSrNx7NPV8J8xA2Om+sN/pQJJSr7uPleUtB/BSwIwyeuveHrGAqz49DgyS/lKKYoysCc6pt6UWsTXNaVchXwWgAnKbldrZ+rJRGTAAvh/dBzNb0ZKHhPVliOj7bZpQEmqAl5HFYgrFpZycfhoMEJTxYX6brNAQtkDL/nOQ6A4NQzABMWIOxkMr5Pn9IK1hgpwOHwOvMJj0apLWwgKo1MM7IcrvYL4m+cQnl3AE+4VQ2XvCY/aevOCk/I0cm7zVXoknwtCCCGEkA6ofQZh+TFYOns5gmPSWPDBggJ1BTJTo7GUBSPmeBj/LalPbcHU4Cgcu6xCmbBcqkRczHYEbDKh7IP8cGRPBJvWYtEjPM2QHp7YvDUYm1atx1bf3jxRj/IqzucrkflrUwEaJyVPh2AN2658tlVksBTuLkN3WP45/LvUCa6lsYjL52ktkXUGC7JyUcUXmyX3xLZF+5D8kjtPuFcklF2StjoXhBBCCCHtSzsMwlSIC1fgrJo9yg3wQ+TBfYg7tA9H3l+GrW+PhwPPJapRISc+CjvCd2GHIgZp9ZoT2LrEZCSl5kFdU1GbLzI6DUU1PIugOBtJLF9avjZ4KEqOQaSwvQMJyK8Uk7QM7osTthW9vzZPksnvWLGyHz4FoVFqzGtbxXLHHdyKiDmzsHmxruz65VIiTdzffkQn6x1QZwtY23QTJ1mzvbeqkZ/KtiNsi00Xr5cDlb+gUL/FjddN0tkM5AjLpXxZnLLFIFFSHh0pdahMRpRY/6fY9qzQlydLoc7PRCY/jy0hlz/K/u8EO7FrnAxdWN05WVoLCy1gDydhO3Y9IdcmNKK8cBIlbvPg3zsXX19ovnWq5HIK4hPPsSkdSv1rsrIcJSo23Wa1fLccKmGeT1W8ZRN31bVp4nSH/ZhuXUNFWUgU95OCjIYRv7gd/oO6fMlZKGlyW8bLbkzbngtCCCGEkPal/b0TVhiDpf67cBYuWLRlPbx78PSGChOwcelGRBXyZZEdfN8PReDgbmw+DWFeqxHJHuPHDM5GXHLdw7ls3CIcWTicPdoxybsw5v0YYOIb2AoFAo7qAqfx2HRwLoZ0ZrNG98UCgNRd8F8Zow1E9DhMXIH9rw3U7ssoFY4tD0Dwz4DzkKkImjMZA50t+DodXbns4OrIgpraY7LAiDnrEeKp/9irRPSyBVh3CexY97Fj5cmiunX66uXT1U2TJmDroVkYKCWPMCulDtm2/Nm2autQZgGZupoFpXrbaU7tddMXQRHBeNqRp5siaz+8oq2wfb4nCx4KcOCTObg26iu8NYSv18mPxswDwEdivublHFmIICzH7klNvX8lbH8hCv7C6rtyGwac6oGTDbenPIM1e0NxsJM7XnyYBSTlV6DIVyPQNwR+j8mgPLEWc89nAXeKEX/HAqP1gpQpz4TD/wk2o4xF0N79SNEmo6CyAG5PhmP3xPrHlMO2Ne9UFvr1Hgo3dmyx2VfgNioEIeN4PqHMO7IwZXQZDqTKMFouQ8b1k4ixnIWjAZ5wbfBxjuGy6wh1EAr4hMCn4Qt/Us8FIYQQQkgH1P5awnLz2IO0YCDchACsNE3bMiJO0UgTW2pUiAvbIj7Qj5gajCMH9+HYx34YIVMhcsOXyBSy1MrE2RIWUG3ZjIiX+4rBkPpEWoM8zHfbsOA7GTxnvoFN7y3DpiBPuAkBmMR9ZZ7SBg9DZq7XtmB9sR5bZ07FO75SAzCBHcb4ThDfL8pP2o+AgBmYtGR7/VauWixYHDQXe7frylWNs7v3I0m/pcQgOTyChC6LBrot6ro1Lh6lXX5kKiLE/MLkpw2KpOSRUoc1mfhig7YOB05chsg9rFxevcVWQUksrOAoVLTMXojdWsbaHu52DnwgCSd2/Y3EoOY+BJCgazcnuHZr5uznn8PXpeMwvD+bHzwSc0pPNuiSmAvF52sR//sgnFkUhPeEd6heDcGZwDV4iQVgAvm45Ti0OByHPDwAGz9sF+b5JAZgYiYPBNemr8ZiG56uL/sQlsUXY/Yr4dj8N7afvwXh0CveKIgPhiKb5xGdROwtX+yev5gFgvOxed58TClS4HA6X63HYNmlaONzQQghhBDSnrTD7ogNVObhTO0AEz8gWwgyWGB2Iklo2eoGFH6PL3buwp5v8gBLYV0GMhrELN4zZ2FIDzn6jvsTtB+kX0V2w7hGbQXvd9dimfcoDBk2GEOGuEBsV5C4Lwcn7YiCSbuXY/qSdQg7nAHZiMkYYS8mSyYbPAsRW97A7AHdxOCt7PJxrHt/AaZ/ltYoIBkxbjxc5axcL74AbyFB/SMuNmyKM0Bmpe2y2Gy3RV23xu5W2mUZC3R4fmsbHulIySOlDvMu4qQYYI/CzFcGw9mGletxKS+0cTajsEzBAj/FIoxpKtCQQghYpo+ELV90914Oj5b2p2OEICl4XNMXgNAVMaH3SAwT7sBO/THMJat+l8SsMzhQNhbvvehef3RBO6s2H2lRmX4asXJPeOgPiuniAT95LmLT9btJ9oHH0D51+7fuj+E25ahqIvA3VHZJ2vhcEEIIIYS0J+0vCHOw4+8BKbXvJzmOR1DDlprKcv6uUQXOfqsL0I7jrCkjCDYyHON4t7h6JO7L+blgRMwfjxEsAMi5nIxIxXb4B/jDP7xx8GSMrMcozFgbgWO71iLEs7cYjOUcjURsUw1iAhYIaVXgVhMjzf3mpNRhkYq3KlqhuxCctYSMBX6taHwxnwLEZaZDmbUCjqueY5MPvHLVOJx5rm6URFUx4mENy5bWhQlulmSJLU+6gEfLCnbWQEKJkZEU2//HOIQQQggh7U77e4RyeQJjxZaMZOw7nF3b0lKvpcbRBa7isgsWfawduKNuCka916JaS+q+ytVwHjcXIXv2IO6Lzdg7fxRcUY1MFmxI7yLI5J9CVDx/FLfvjRGv+mpbuVACdXPbuZaBi+JMX/TrKc40dpf/2xql5bjFZ5vVVB4pddjTBSOELPqtlHdNG2SjtQNzmI3QFVE1Fofe/gqFK/n09nIEqvS6JPboAR+k4FK97oD3hquTOwuCcxsMk1+AnCJgipMwQAYhhBBCCGlL7S8I69wX097SvheVtn85Js1aAP+AvyNMfwCJzgPxwkzhPag8bFy6BMGfat8ZCwtegnUnTB2R0Agp+6pRInrtm5j0N2F9FI6l3kBmVh7E52lHOZyltmaUpyFsxRZsDF0gfj+Yv/C9W7M2IFJY12schjT4DuWoDUHYGL4FC5fuRxpblo2ejDH1BqSQo/cj2layyJDlLO92BH+WUH/EQilce2OM8G9+FIKDt2vLH9pgEBJDeaTUoeNgjO0nzGRi4xJWrk/XISDkuLhKksIYrAgIYnW2CsfqDf7R/ghdEQ+7PIXh+teFpTtGy9PruiTKx8HPpQBrovcjQ++SVp46hNg8vqDj4AQP1Rkk6EdRJgTdtkMn4a0KBdYfy+UpQM6xbQir8MBLQ3k3U0IIIYQQ0mbaZWci4b2ozUGeGGFjgbJiJTLzVSizdIH3nFcxlgcZzp7vIGLOKAxkD/bHYrRd3CJ/AqqKfzG5+58xxvdljScmTcbTDynZ+v0IXrMOwdHZYrfC1aunNvFFvs2wGoiZy2fBu4eF+P1gmcL3bpWyZ+wB3ti62huu4kAhOnKMGVSN2OhTYkub9WMsz2t8xEc9A6cvwww5C8QqsxEVfRzHvktGhqkVZD8egQuHo6+sGplJx7Xl/yEBmfrBjpE8xutQDs+li+DLjlVdmomomDR0ec4T3g0L1Jy2GJjDLLRdEQMHPNng3S4rDO83VK9LohVGvxKGj61OYtonPhj50RxMXOOD55OLYNewfL09sNitAG9v88HE0DnwWuuDadFZfKUE1kPxnu+rsLywCAPWan9+4gULLPadj2E0KjwhhBBCSJtrf0PUN6Aur4C6RuiS2PyTtbqU5RG6LVrd+6dvo/tSV6BM6DYovJ/Umvd5dNuxbPiek26IegvMWLUHs/uxfNXGyy6lHo2qqUZZudDdz8B2JOQxVofi+kbllkCoM5jhvTCJQ9S3GbUaJRWsTi2tYGvomhK+N0y8ZozkM6CqtByV7NzZ2tzrShQYGKKeEEIIIeQ+1u5fq9eO4Gc4cJAJI/GZIQATGN2XEHwJeVoTgAl022n2WbgaVcKXTgv5JJRdSj0axd/PM7gdCXmM1aG4viUxgDkH5lBnIUH8YmNhykIJT74nZDLY2kkIrITgS0o+A7rYsJ+/pwFYMTJq6y0Fl9q62ZoQQgghpANo9y1hpKFMRAZsgfD1yBPe3AzfAdpUYkZ31Sgp1R8AxIIFP+aK/jq+KpXQ2lbHkgV+XWiURUIIIYT8D6EgjBBCCCGEEELMiD5/JoQQQgghhBAzoiCMEEIIIYQQQsyIgjBCCCGEEEIIMSMKwgghhBBCCCHEjCgII4QQQgghhBAzoiCMEEIIIYQQQsyIgjBCCCGEEEIIMaN2+D1hui8j7o2ZqxdhjCNLKjyOdSsOIQOj8NbWqRiozdjuFCXtx5Z/HcfZyyqobeQYMcILM/3Go68Nz/C/prQcR05UIur8XeDhznj2z93wQl9LvlKi6tv47r+3EXWxBpWOD8L72a6Y1MvEbRBCCCGEENKOtMOWMDV+zVciM78Yt2p4Uk01CsW0cp7Q/qhPbcHU4CgcYwFYmbBcqkRczHYEbDqOIm2W/y35Kvj9vRw7yzrj9bnd8Lr7AzijKMOXv/L1UtytwL823sKGUmEb3fHuSOC/n93CmhQ1z0AIIYQQQkjH0w5bwtIQ5rUakeiLZduD4SlnScoYLJ27C2cxAVsPzaprCSvORtLpBCTdYMFZVxcMGTUcQx6x4yu5GhVyTh9HbLpKzDNywgQMFLapI2yDBU5degzEQGcLFCXHIDYxD7fsB8Jz8nA4S2p0UeHY8gAE/wyMeW0rVk9kx8D2m3k0AepxbH9WPBtXdjUZJ0/9iPzbgGOfP2HE6L5wlvGVArUSabEncIaVq/vDwzHGY2D99VKP2VjZDVDnZyIHvdGXbd90t3Fk8y3s7GuNA5O68TTTVf5QiG7fd0bRYjvUntWfivDkHmDHhw74A3WmJYQQQgghHVCHDcLUqbvgvzKGBQr1OUxcgf2vDYQYsxQmYOPSjYgqFFdxdvB9PxSBg3lwkLwLY96PASa+ga1QIOAoC1hE47Hp4FwM6cwXDaoLwpyHTEXQnMlicNRIjRJxH/0dK87q9sH18EbEhqnoyw5afS0aK5YocFa/sUfWF4vWr4R3L75NKccspezNKWT17S/Ud18ERQTjaaFLqClKVZi/sgbeIY74cxee1gI3v/kFD9+wxN1Z3XmKoAyh79yG3Wu/g39vnkQIIYQQQkgH0mHbEjJPaQOwITPXI+7QPsR9sR5bZ07FO748AGOBUVzYFjEIGTE1GEcO7sOxj/0wQqZC5IYvkSnm0fPdNiz4TgbPmW9g03vLsCnIE26SAjCBHcb4ToArm8tP2o+AgBmYtGQ7opOV2tVcpoIHYI7Dsej99TiyZzP2LvZG0HxtAIaaTHzxgTYAE475EFsfMbUvi8wysfGDSGTqumfqNHvMJpa9IQsrOArHI7OHrCUNYdfu4uBDnfHIrVJEbPsFT/+dTaFF+DLLtG6Ev3fujN9fqsaP1TwBNVBdVON4lQY3S3kSIYQQQgghHUyHDcIcnFzEf5N2L8f0JesQdjgDshGTMcJeTAZK03AiSXh67wYUfo8vdu7Cnm/yAKGrXmkGMurHRyzQsYL3u2uxzHsUhgwbjCFDXGDNV0khGzwLEVvewOwB3cQgsOzycax7fwGmf5YGbeiRiTPfalusvF99A96D2fZt5HAdPRVP9xOTgbyLOCm2XI3CCy/0hQNb3/eFyfAWkgoTcZEdfj3NHbOpZW/IZhSWKSJwRLEIY1oyqMhd4GaRGvP31+DxybY4tsIW4U9pEPpJCb4s4HmkcLfGwSdq4PPeL5gfUYT5HxThjZ874VkHvp4QQgghhJAOqMMGYc7PBSNi/niMYEFCzuVkRCq2wz/AH/7hPOipLBcHyAAqcPbbGOyJFqbjONtsC8pwjDPWTc8IWY9RmLE2Asd2rUWIZ28xGMs5GolYMehR4xbft8yqmealIhVvpbJCd917XZZWvGVPiRuNRvho5phNLnsTZN1grd2x6dhV9fuuD+Kj1+wx0oVtxEKGR0Z2x6r+GnyZcptnkkKGkX6/w5UP2M++1A2r3nGA4qXOUBU9gN//r444SQghhBBCOrx2GITJ0F18wM5GRmaFmIJCpfbdLxsLHpAw5Wo4j5uLkD17EPfFZuydPwquqEYmCzaSKtl6Rxe4ipldsOjjfdoui7UTf9esLeWfQlQ8b2Ky740Rr/pqW7BQArVwPPgdevMWr7NJ+h0CK1CmC476uOFpcSYNGdfFGeB6Ni6KM4MxqI84Y1wblF0YmCMzv7YfoGl6dcKL5RrU//HOYHEZKu82fAWxBpX5t/BjvoGuil0tYWfDpi6dgZ+q8SX7d0gvvo4QQgghhJAOpvP7DJ9vJxzRrfRbfJVegfRzx/D9d9/hwNFkXL8DuE6ajtmDHcUBLqKDF+H1iFPIVZaj+sEHUfTzGRzNVKHGcShmvDgQdp3k6NktBV8lZePU8bMsXx4yk5NxJvpzHNcMx59686amm8nYdeIKm3kUk6f9AS2KzcrTEPb2euz49ig+PxKPkzFH8dW/jyOu6i4LSDwR+NIAdjxW6P27WzjJ9pVz6Xv850Ieyq4m4Mst27A+2Qoe4x9F964P4SFVHKIv/4Kz352HqjgdkduikSKUfeJsBI6Ss1CGMXbMUsvenMIYLJ+7EZ9GX0RPj/HoY2oDYZdOcC6sxNsXavDi/3WB5QMsLa8Uyw/dxXM+dhik38/z11K88mEV5n9fhUHDrDCg3r7U+DnlNix+J9Nuo7QUaz5lwdqfuyHwsZa8rEYIIYQQQshvr112R+zr9wFWs4BDpq5AZr4SOZUW6DvqDYT49eU5rPHEpMl4+iEljsXsR/CadQiOzha7A65ePVUcIEPg7PkOIuaMwkDksXzabnmRPwFVxb/w97TaiNVAzFw+C949LMTvBxOOObMUcBjgja2rveHKB/gQ3hvbHOQpdqEs+vkUO55TiCu3x5hBcmgHEeyGgXPWYtNzvWFdmY0otj6JlX3Ic8uweY5uwBFpWlX21g7MwY70Dy9b4b3bVXjyHe3AHI9urMYf/KzxshPPoiN7APbCVdjpAVg2LGCpGj9+fxuPL2XbWKnEw3+vgmpsN+zwaF23UUIIIYQQQn5L7XCIej0sCCsTuvJZGng/SZdHeIfJQAOPurQC6s4WsG7ufay2IuWYGXU5O54adjw2zRxPTTXKyqshs+oGmeRRGpvWorIL5WBBYYvfC9OpYoFTFasO6y6wbC7kF/LgQW13w6ZI2QYhhBBCCCEdRPsOwgghhBBCCCHkPkPtCoQQQgghhBBiRhSEEUIIIYQQQogZURBGCCGEEEIIIWZEQRghhBBCCCGEmBEFYYQQQgghhBBiRhSEEUIIIYQQQogZURBGCCGEEEIIIWZEQVhHV5yNzKsqvkAIIYQQQghp7ygI68iKTyF43nL4LwpAQFQeTySEEEIIIYS0Z+0wCMtEZMAC+AdsRFwhTyo8jnVi2n6k8aT2RXfMddPCNdsRFZ+HshqexSR8ex8dRxFPaVK5Cvlq7WzZ7WrtTHtWo0TSv9Zh4awZGOM1A15vrkNkopKv/C1IrOd75a4aqksqhClKcJUnNSu/hOUrxplSvkwIIYQQQjqsdhiEqfFrvhKZ+cW4pQtgaqpRKKaV84T2RnfMdVNS4nFsDF0CrxUxpj/gK6/ivLCdX40EVj08sXlrMDatWo+tvr15YjtVnok9S5Zg4f5kJBUL5apG0bVkhH20Hcd0wba5Sa3ne+Dmt7/i4UUqOHyqxvzEGtzk6U26fQtrPq3ChvN3cPU2TyOEEEIIIR1W5/cZPt9O/ILEL+KQBkf8acp4uFmxpPIriP06GdfxKCZP+wPk2ozi+1BJ38Ug+mQCkn7+BejuCGd7S76Sq1Eh59R/cSDmrJiny+8fhVzYpo6wjYvZKOrkCHn3zihKjsFXX8fh7NVqOPdxQfcHeT6DdMcM+L6/D1sX+mDWnx2R+815ZBbcgPNTz2KArTanOj8TiXHf4ig/5nrHw48lP/1HRP+YizKZPdycOkN14ybyb1Siu4sdZCx4yU9NReY1Ie0mlKUsgLhTAVj9HnZd+XbAypyYjqyiGjg+9CCunzoslj/zpgwPPypHV/3QW5mG6KhoxP2QjBzVA7hdqN2urj5EUurZiMx9K/D+GXacjqMQsjkEK/2FOnoMA/44GWN6WfBcjFqJtKPR+IrtSzhex95y6A6jtlw3WNTmyNKFc6Ors6JOcHSyAqst42WXVM+GCecxq8wGjnUHZxLrPt2w+Fkr/N2lCh/8CPg/2xU9+br61PhuZxli3WUYk3EXvxtthUHWfBUhhBBCCOmQHtAwfL6dSEOY12pEoi+WbQ+GpxBxKWOwdO4unMUEbD00CwNZkjp1F/xXxiBH/Jk6DhNXYP9rA7UP0YUJ2Lh0I6LqtbTYsUApFIGDu2kXk3dhzPsxwMQ3sBUKBBzVDXIxHpsOzsUQSc/YumPWBmGBg4W0PEQFLMHGfAvMWLUHswdVI+2z19j2WSBSj97x6I6lSbqyKxG9bAHWXeLJXN1+BXV1OGZwNuKS61p6ZOMW4cjC4WL9qNn+/Nn+cmABV3sgR2yh0hoxZzNCWOVLqmej0rBj6mrsUVvA+50ILBqhF3TpUV+LxoolCpzlXSxFsr5YtH4lvMVArYlrQ1dn/Wbh0LoJcJBSdkn1bEAhux79heuxL4IigvG0I09viZQidIoATm12wEieVKcGV78pwpwbljg8CwhdUIlH3v0dXnbiqwkhhBBCSIfUDrsjSpN5ShsYDJm5HnGH9iHui/XYOnMq3vHVBQYqxIVtEQOwEVODceTgPhz72A8jZCpEbvgSmWIePd9tw4LvZPCc+QY2vbcMm4I84daCRg71rQqUXc/EWcU2hOWzBNkf4OYqrLHAwEm+8J36BvZuj8CRPZsRMbUvS2fHs/M4hKwY5MfS2brFo4Ql4JGpiBCWxcmPBwZyeATp0tZi0SNiYjPYcZSwYHIL29fLfbWB14k0XnZWP5FCHXbD7LV7sHfXZwgZIaTbYfaqCAR5aNsbjdezBMo8ZIiBVW8M6tt0AIaaTHzxgTYAE87XIV39qDOx8YNIZJr8bp2BskuqZwMsrOAobFBmD1kzxWkLlSkl8DvZGaumdYdp7Y6EEEIIIaQ967BBmIOTi/hv0u7lmL5kHcIOZ0A2YjJG2IvJQGkaTiQJrSDdgMLv8cXOXdjzTR7Ep9nSDGQ0HA9CbQXvd9dimfcoDBk2GEOGuKAlvb6iQv0x6Y0gLD2QCbVMDs/X/4YxNnxlrwkIfNYFhYmH8YViF8JO5GkDmWtK7XtjnS1gbdMN1t15/0QZe9gXlsWp7mlfZqVL6waZkUjIe+YsDOkhR99xf8IQMeUqssWyq1F1V/jXGtrdsW2J/6pwq4Ztm2/XaD2bxKr5oCXvIk6KLZaj8MILfeFgw475hcnwFpIKE3GxBYM/Nlt2ifXcLJtRWKZgAZtiUd25bWv5KszeU4PA+bYYWdvNlBBCCCGE3A86bBDm/FwwIuaPxwj2EJxzORmRiu3wD/CHf3gaCy+YynKUiTkrcPbbGOyJFqbjONvs6HLDMU7XRbEVxry8DKsnagMX2RNTETiu9g025B9djUmzlmPh3uPIvi3HE4Nc0JqebK0jx9jJw1kIpsTGpUuwYiWbvmXJjhMwrr82h8BoPUthYwdncSYD2c0FU0Uq3kJnhe66Zh9LFrSJM0rc+E2GLzRAVheotr0KfLlXjR8dOiH/2xKEKorYVIUz0ODIV2z++/Y6QA0hhBBCCJGiHQZhMnQXWxeykZHJ358qVGrfSbKxqOsCV66G87i5CNmzB3FfbMbe+aPgimpkskArqZKtd3SBq5jZBYs+3qftSlc78feJ7gFnt8EYM30qvNm+1Uk7sTtJ9w5YGr78LI0FhsMRErEVqxfPwmyfP/LgpBml5bjFZ+8JCwsWBLrg6b8MRO9eAzFzzgoc2j4LA/X7vhmrZyks3fDkEKGFqQJ79kQjv3bUSyXSUvk7eH3c8LQ4k4aM6+IMcD0bF8WZwRjUR5zhSqDm+1bfaoMvqm5BPQsDc2Tm171v1rYewIC/WOKTZyzwhwEP8qkzu1YewCN92HyPDvvZCSGEEEIIYdrh01xfjPyLHfu3GlGb54vfuTX9A/bgzlJc//JHtpZhD+/Ra9/EpL8tQfCnUTiWegOZWXna96oc5XAWgojOA/HCTOFdoDyxpSf4013YEb4LYcFLsO5EGzy4G2I1HDPZvoWgIzLsy9r3mbqIQeGP2C0eyxYsXKRAkrimAdfeGCP8mx+F4ODt2uMObTw4RuuocPY/p8RtOvb5A4YM/gP6yquR/VM2inRNXFLqWRI7jJkjvI/HgpefFfD9W4D2vP5tAQJWLseen1kwY/MHvDhROO/sfC1Zjo1C/SxRsJCMVcfEyWJLnLCdh8WoVYmwFUEIXrMEXqEJQkLLtLSeC2OwIiCIlWHVPRpevysGPGmDP9ebHoTwJQQDnmDzval/IiGEEEJIR9YuP1Lv6/cBVo+SQ6auEL9zK6fSAn1HvYEQPzEEY6zxxKTJePohJY7F7GcP4+sQHJ0NWY9RWL16KsRxMBhnz3cQMWcUBrIH+2Mx2i6JkT8BVcW/SO9K10IOf/GFrxA4FEYjPFp4EWkgPF8fjr6yaqSdYsfybTZcp7+BwKYG1rAfj8CF2ryZSce1x/1DAjLb9IGfBUYvjIIDq5vIT9ZhIatDcWJBkZffAuxJFVp5pNWzJM4TELLhDfg+ZgFUqmrP65Dn5mGym9BK1g0D56zFpud6w7oyG1HRp5Akrl+GzXN0g4C4wHPeBHG/6tJMFhTaYc56tk1xXQu0tJ5bPTDHLaxZoEQnYYq4w5bvYBRf9vmm4eiZhBBCCCHkftMOh6jXw4KwMqHbmaWB9290eYR3dAy0zKhLK6AWBmSwatFTc9upqUZZebU4uIbM2OiLPK8wsqKkASNMUZmGHYGr8UWfudg7/4/ozpJu5Wcg6fAnWBdfUTtEfS2J9SwJ31azdWCsjoz9vKlaUs/CMbDA8d69F0YIIYQQQu5X7fvlEuGBXxixztCDri6PkcBAJuT5rQMwAR+ZT1LwoBvFr60DMEFpHjIKWSyRn420/GKeWIz860IwYocnHmvw0pzEepaEb6vZOjBWR8Z+3lQtqWfhGCgAI4QQQgghLdC+W8LIPVSBzH/9A28fyqx7BwwWcOg1HHPefBWej7V+pEhCCCGEEEJIYxSEEW1XTfZvm3XvI4QQQgghhDSLgjBCCCGEEEIIMSP6wiFCCCGEEEIIMSMKwgghhBBCCCHEjCgII4QQQgghhBAzoiCMEEIIIYQQQsyIgjBCCCGEEEIIMSMKwgghhBBCCCHEjDrmEPXXTmHHNxl8QcvtmVkY04sv3EvKNETHJCD/trBgh95jRmFMPzlk4krSXuunKi8FCTeAfoPcIbcsRkbiFVQ+7A53lwZHpkqB4pszKOGLQH9M9h0LV75U6245cs6fwLGs66hsMo8aypQUXEJPDHd3QheeKln2SYT9kM4XANt+fvAbbMWX7iFWrpT/hiI0PVesA1f7qQj084Dbb3ICW1mHJpG4r8p0KPbuh9J9Ht76oxNP/K2VI+PrtdjRfTFCxtnzND2tOWbxfshCv2e8MMyOp7U3v56DIh6Y4D0Ucp5U67c4X03UWcmJYATd8kPIlD5GruN2eM03h35HEbPpQPeFSeh+N8oM97vk58N7oB0GYSrEffR37M7ii4KH+mLCiPHwmDgQDsKXCSfvwpj3Y7TrON/39yFwMF8wWSYiA7Ygpo8XPnp7PBx4aiOXFJi+LBo5fFHQ9+X1iJjqwpc6kibqWcdYPTSnHdeP8uhSDEgEts0OgY9zCjasWoELw8Kxe2KDB7P8aMw8AHw037PxA52enOhAvFLkh0jvkZBb88R6CnDgkzmYx/77udG20hERGoqv+ZLA1mYkXhrti8n9+S+1oizEXyliM8WIi/sEGQObOFZTCA+Gp4Apnu6w5UlNEevp50dxyMcP7t3Zj90ogN3jfQz+zL1jqA7bmsR9KaMxb9s2xLmtxs++7jyRK8vCgQOh+DA3l90DMnj0nIVgH0+46V8fPE9oXi4y7srYOnfMHjMf/k82ETxJlMPOmfeVsYgK8IRrU30bmj1mCdehcD/sOIkp4n2jTWpvhHtxwd13cGhKT56ipzVlb6mm6uwuu762BiL20TBsM3gft5drnn5HtZbyxFrMPV8OvxdXw6c3T8yOxoKDh2D7ZAiCm/rAxBCJ9XN/al9/C5SJ+7HlXCxS1D3hMYgFI+PY9af/u1eVi9hThxB7OQUF3dzhMXgq/IY1dW/Q/d4e7nfJz4f3QDvsjqjGrV+VyMzXm1JPISx8NaauiEF+DcvCLvojeyLYtBaLHtH+VKsor+K8sJ9fq3lCU6px9rA2wHD+yyIcObgPcfu34qOJHTEAEzRRz7rJYD00pyPUjzVsu/LZVlKyX7JTBjYXgAlksBTuribvMDVKKgowbMQm7PYXpiAsfrQaioOvI+wnnsWhD0YPG8omd/Rriw9jss5gQVYuqvhi0woQl5mOwBGzMLqnFWztrOD6mz7cGKrDtiZxX3JPbFu0D8kvNQjAhIfs3Uux444Xvlj0FQoXhcDvzn48v5vdE3d5HvbHK/ZzlgdT8cX8Ayhc9i/855knkXM2CimVPIupsvZjWeqj2DazmQBM0NwxS7kO271cxKcDPoOaCMAE7aXsnZzgMzMI/VKDoWjqg69a7eWap99RrVZZjJI7V6BIzeUJQE7qISSoy5BTqeYpJpBUP/er9vO3QHlsKSYmqDFlMrsvfP3geu0D+P47pe68/HoSS7cGIx4jMdt3E4KH9UTKiTmYeLCuFakO3e/t535vu+dDU5jl1LeU0LoVd4hNuxbB14ZdJj8rEC1cEJ0tYG3TTZxkRi4GdX4mzkbvx47wXdihiEGakq8QFGcjKTEZSWcztK03pXxZnLJRJmaqRn6qsPw9zl8WE9DXHshIYmkXVJCx46qlViKN7ysyOg35DX/P8v2l5WuDnKLkGEQKx3UgAfnsIUydn8bWs58rVyHpANvGt9lQ1yjr5sWf4oRt6ZUr6aqKr5BKDs912vrdOpEnTVyhre91E3grmAo5Ql2k5rHjqEBOfFRt2YqEYFjUhvVjgHAeM3m9tYRc/ij7vxPsxO5BMnRh142TZbMRlCQ3S8v5XFPs4STsy65ns59ude2q/aViy/K4/3keFvcqxoGfm/pFbURZLlISzyGeTYmXi3kiV1mOEhWbbrOr+W45VMI8n6r06r+Kp1WygKHL3eom84iKspAo7isFGcKHYg2p2S9z7Y3D9l3AjysFObrLs0y7zZJ0lp6cixK2v5LsFJYnHcpG14PxOhRU5aUjJc+Ei6lJBvZ1l5WJ14c43WFFa7C7qkQFVpZ5YJXQTUK4rKz7YLLfYswp2wVFoi5zLlJZISe4j4WrDbsA2S8v+eOeCA58Fe6WPItJ1IiP249ew6ZiWMNLWcIx60i+DnXnPjkLJU1ty9C1IR4P/yFj22EPrxnJwnaauJ4buhiLCNkkTNC1NAjauuyG7i+dm+ni+vifClBVG3Q3YO2OwD/1wYa4MwYePKRd822Dfke1/neUYSndesL28nneOyQX8Rk9Mdqhib8bhq55ifUjknCtCr8vxWuVTSm5zReo5LJQZiEfK3dTHxK1tp51JN3v7eRvgRAUsOvfb6QfhglBwe/Z7/lpr2F4xhmk8Bx4aCxCloUj2HMo3H7PgobBXgj5swcr2+m6PLXofr/n97sE9+L5UKoH+b/tm31v9Ba6dZRWo1BVwWa6icmGVSPts9cQcFTIX2fPgSgW3IUicDDbRs5xLFyj160x/ziC1xznCxOw9dAsDEQxkhTrsO4ST2biDmxEnDiny8N+31yLxoolCpytvUBiELa7LxatXwnvXhbaJN3+Jr6BrVCwY9P9NqrGEO/h6JIUiYXhmXB1tENOobDue5yIAtKuC2U4jhtWEVg0wgLq1F3wXxnDf7Fr7WGBmgMLova/NpBdQm0lD4fXrEMk+mLM4GzEJeuCoBiEZy7CkYXD2b7asH6aUxiDFQG7cJYdR1BEMJ525OmmsLPHaPbLRfveFvtlxE5/lU3Lux25OvZHQaXwF6b5bcjt2S9odmNL1ok9y90x5Q9IMWL/uRTL8u0xuc+jbE9lSLj8D5Q8FoRIX3exz7fy7MeYez4LuMN+Ed45h6URsdofZaY8Ew7/J4S5dCgitF0RCtgf26rvFyLxrJCun4ddvifWYt6pLPTrzf64sD9GsTGhcBsVgpBxemW8uAt9EvsjaVg6FnxzGq5OT7G8uUjs1B9vPSlD4n/+itBf+6CL1aOwK47FgWQPVLLfqpZl7I9Y9mocf6k/35CW0TpURuPNndtwAP2xe14IJrfiL1mz+/r1JEL37q/9A1rAHijcnqzfVeFS9hkoH34Hw/SDKUt3jH5YjRnZ6Xjvj0JLjL3YcqpIOQm/x8dC3qLAS0/lecTmjsSUaU10a5JwzM1qdB06ofLntZiWJsNouQwZ109i7qlZOKrX/dHotVEQizd3ZGHK6DIcSG1+O1UXd2Lmf2Jh6zwO7uzWKlD+AysdgvCfv2mv54YSLxyB+8Dw+g8VbVZ24/eXIOfYCnj/UIDRYtmPIKxIeBJo+rdwlz88hcnHTiOhciRGN3P+Tf690Qr0O6r1v6MMcngKHspYxGd7sb8953FY9iR8rM/V6/Zl7JqXVj/SrtWUqDl4Jasn/AeOhWtNOmITQjFP9hqOzhlb17qgPIM1e0NxsJM7XnyYPZiWX8HSGDUCfUPg95j2um6LehaYcr+3i78FwrNDdxm+vlnA5vn6sjKUWLLARbukxX+f6eQU5ELuyH7P8WV9dL/f4/tdijZ+PjSJ8E5Y+1KgObx0mmb089M0W37UptxK/1Lz9ktC2qua3enaNK3GeevJ+Uaz5fPvNdkF5ZpbJQWajM9XinlHzz+suSGsv6Nm6Wxd3Cfa9IVfajKEZXFSi5sQVJUJy1c1Xy7U7mtDXIM8dzI0u1/Vrnv78wxNof6+Xt2rybijzab5cac27aXpmr+89KbmH19+rzmf8KPm/PnrmltsdeFh3fFFai4e2yDOT13/vebM3jfF+b9svyhu5uJW7b4WfHldXNbcvq65+OWXmjNF2kVT6bY3eqt2+3UuarYI6cK+F+7UnM9l5YpcqfmLmLaTrdVqs/ppTsn3mn8I5/+lDZqTJTzNVAUxmpV7TmtUfPHClx9qYgr4gr4bhzUzPj7MrizDLn05WzM31nCFFxz/ULPyeFN5LmhCg6doQs/zRabySpRm7uppLK2Kp+jc1Pz74ymaGf+9yZfrqyws0lTW8AXBlUiNb/AHmphivqxz/jONg9Fyafelf1y1rkax7b6t+Te/5ETXozQzgl/X7L3KlwXCfv4xQ/P8p1Ga7IZFYRIUUzQO4Sc0lWy+4L9v1x3TuY+bPL7m65ArPqF5ezXb5mp2PhuW2URG9yVq6nwUab7e0vQ5Esu4Ra9cBac1oRteZMc7TTNXcViTkM/TW+LCZ5r+Eq7V5q8hCdehcD8Ev6iZ+9UV8ZyJbrE6D2a/c9P4spRrQ8p2bp/WrF49g+27jCcwNdc0ezewPKl8WZ+Yf70m7jZfblIrys4Yvb/EsrNyXuHLgkt7Nc8L9SH+kWlIOJ4XNaEX+GITpF2HbYN+R/E0Pab+jmqO+LOKC+K/voevabIPv65589uf69eVKde8kfoxXs+Nz6moXh0I+56ieYYdd+19Kiguq1tuo3o29X5vN38LbrF6XP+i5vnP9mpi0i5o9n66gB2vXhm4yusXNHHfRmpWf/a6xnfXYc0l4SGvCXS/G9IG97sUUp8P74EG8Xr7Evn+XzHG66+YtGy/2ILiOvEtTOvHV0rRawICn3VBYeJhfKHYhbATedrPJ68pIbZa6ro1ducRr8wKjrybo7VNXeuMzKp+10dZ9wZ58i7iZKEwMwovvNAXDjZy9H1hMryFpMJEXMwTZvSoreD97los8x6FIcMGY8gQF9Rr+Hx8IAY6iu2icO3fF2722s9Y1LwLoIOT9j2rpN3LMX3JOoQdzoBsxGSMaPm7/UZ5z5yFIT1Yucb9CUPElKvI5l0727x+GrIZhWWKCBxRLMIY/e6NppB7IHj6yNpPq9y9l8OjBZ+U5cRvw5rwQATd9ECgkQqXj1tu8OXrNdHPwXGVdhoceRr9xoXgrSG8EiXq4mCPLkJ/7tx0xJ+KRkSi0HWgDCXi6JRtR5l+GrFyT3jov+Ln4gE/eS5i04VPBfWo+yNwuhdcmytKV+GYOQfeNeKBpjMbq0PYjUXI4n3IWszOp/aWaTGj+2oL8pF4a9EBZPm+huFlhzAj3AdekefELk8mu8POi51Tq7uxGL8O+8BjqN6oftb9MdymHFW8i5L0a8Pwdqp+PI0N3TzxdB/Udj0pKXVAvx4yJFxvcI0xQn6Fy1MY3ooWRWNlN3Z/acs+FVPYMdfqbm/gnQUnuNqxP2bs3DXHLNchR7+j+HJDJvyOMqgoF/i/seiSdQQHs+zh4V6/rk295g0xXs/98bSbPcKPByPiuxRk3OQtHPrFyjqDA2Vj8d6LDVqi7Kxql9uqnk0te3v5W1CSlYJLlh6Y3VeG+ONrsabMCU5N9Cmr/CULKb8Ui61JleVZyPmVr2iA7veWMek6NKaNng9bol0HYQOHTcAMT2GaipCNW7HXxK52+UdXY9Ks5Vi49ziyb8vxxCAXtKQnm1FFKmSKM1bornsgsLTix6rEjUb9VIdjnNAdsoWcn2O/ROePxwgWkORcTkakYjv8A/zhH57GLv12yOT6aYKMBXWm/S64J1z/4Ae/YR7oVRGLxGs8sYXe8/wKhSu108/L2S+7Uc0MLmCA0BzvtW4R1py+gkqrAZjyzFgM4uva0s2SLPbQ3PDh0gp21kBCScNfeA5iutkIXUFa27WvVbR97RvXA6+3Jvrg2z42Fv7zwvHzdD84Xf4H1pwx9H6hARXswYXPtlSLrkO9vxymXRsN6G2nRMhbEYWgiIWYqTetuSaDq2XDm78Yscnn8MbQkfUfFk1krOzG7q+my25IOcQe9R0E/Y5qA85P4aUHo7HGij0wPsTTONOuecOM17MM7r67cfJZds9k78fS3S/DcU0ggo5m1b2jqCpGPKxhaeD3aVvVc1uWvda9/luQfQjzvpXh3YB5mPznqQgO3IefXxqA2INLocjmeTjbwV4I9J2H9+aEIXKkDKGfhyKef+DUXt2/93v71a6DsCc8Z2H2HGHyxohHjHy00eiT5DR8+Vkai7+HIyRiK1YvZtvx+SMMjrJcWo5bfNYkfdzwtDiThozr4gxwPRsXxZnBGKT/KWlbKFfDedxchOzZg7gvNmPv/FFwRTUyo48jqT3e5G1QP60dmKPNWFuJL9ouGWiPuGu/8Y2eH42geCBwfhhCfNkf+MF9ILezx70Y4MfVyV38VFd/XBugADksgJ7iJLzU+ttpm5exW8e9z1gos88hRf/30N10xGerEdhH7x2Shr+nenvBz0WNglu6N9hNIPRjLytAw/fcza2trg3h5Wj5gx4IXhSOQ4vrT40+vc0/jX+XemD043z5XpBwf/3ekf3yalR2Q4pQUObEtsMXW6ooCxm/8TUvCf2OYuzhMXk1jj/zZKMPDEy65g0xoZ7lj3vA79XVOLTsAAr9vVB5finCdC9Q9ugBH6TgUoOAQt9vcr9LdK//FmhbX/rXH4mW/Q6f3ctw60uXISMx4e4ZpPDBy0xG93sj7fmZxBTtOggzTo7ej2i7vEWGLMfG8O0I/iyBBV5awggnwI/Y/eku7AjfgoWLFEgS1zTg2htjhH/zoxAcvF0cvS8stP7AFwbZ/AEvThT+quZh4xLhONi+lihYyME2PXGy2GLVZmqUiF77Jib9bQmCP43CsdQbyMzKQ76wzlEOZ8mfAgnfE7YA/gEL8I8TPOnEFnHZ/6Pj2u6abaW19SMOzBHEjm0VjondGn97t6uL+dy95gRXBxmu6X+yo/tdfLtBK8jdcmQcjUb9b9DjHJzgoTqDBP3fWCZ0gbMdOglvVSiw/pjecMvHtiGswgMvDTXTC6xNEV/GXorxO1fgsPQn4TbX5Y+eCO50CB8eTNF2LWTnIuXgJwjq5AWfP/JPdS/uhNfGtTjwk961k30Iijx7DO/Vgheze7vD4845JIo3/2+nza6NwZPwnuwIPozidciV/JTVKMjJSTqCqic84H4v/4JJuL/kA8dismo/FOd5S6Zw3k/HIkG71Fh+CmLvjIS7/miOpqo8gzVbF2LkzjmIyOBpvyn6HWVMl57NfPGrCde8wfqRUs9lKTgQnVJ/hEehJeFBC3TRdaeTj4OfSwHWRO9Hht6nO0rhO6/4awO/xf0uiRn+Fsh79cew6ycRr//Jl+ocYm7U/Q6vOr8NCyLP1avnnGOH8HUndt8/xhNMQfd7k4xfh7k4sNkHjh8pkIEsRIT6YEAou66F+Y+ew4DNh6Q/499DHTwIAwZOX4YZchaIVWYjKvo4jn2XjAzxghgIz9eHo6+sGmmnYrDn22y4Tn8DgU19r5j9eAQu1ObNTDqOPdExiPwhAZmSH/i7YeCctdj0XG9Yi8dxCkmVFhjy3DJsntOWoxUKrPHEpMl4+iEljsXsR/CadQiOzoasxyisXj21ydF3mlb3PWE5utazSlUrvifMkFbWj4UVHIVMMnvI6l7V+00pSwvg9jvzjGg0bNwsuF9egSHr5sBrrQ+CdA98fTzxnlsW3tz8V3iFzsHEjz5ArKMn/Jr6lL23Bxa7FeDtbT6YyPIK25kWncVXSmA9FO/5vgrLC4swYK325ydesMBi3/loNDy6OcmstV+S2cmef+jyG+nUH4Ezl2P49WD0WfMcHNf8Fa9c749DM1+tCxSe8EXIQBkORM2s7Xfv+HksnEaFILAlLTpsn5MfL8eO00Kf+99QW10bnXrCb1YQPG6uxYi12mta2NbM+HO4Wa+5Lx2HLwKTB5reVcYkUu4vZ098/PRQxB39q3h/jly7EF8/zPLw1Q3lnGPB4+OtDB5lffB/7CFI6JKZcM1cHwYZRr+jWkjyNc8Yqh8p9fygE5zUh/DmR/zn2TRycyiuuf0ds2t//1hh9Cth+NjqJKZ94oORH7FtrfHB88lFsNP97TX7/S6ROf4WPP4qtv1RjbAwvToM24aqYatrf4d36eeB0bd3YeI6bZ6J7O+BUD+BL72G5kZENYju96YZvQ6rUaLWi4TvqqFkk45SXdYuvnPvAWF0Dj7foanLK6CuEQbaaPCUXlONsvJqcfAIWWee1hyelz31N96OVKbsr7XUFSgTAijhfanf9J0YE7S0foSysmDunr8Xlh+NmQeAj4x8e33i58/h6z4HEDzSTE/+wncflbJrs6k+78L3brCg1tZOwrGIedm/reg7X1Vajkp2j9gK33XVHghlYg8Pv+17YXWk1I+Y567Ec2ZIZQo2fLIN8hfD4NfW3Z5boM2uDX6dWnazavxAdXEnxsf3xKEADxPexWoFKfcXvz8tbdjxNhdg5R3CzH8VYPH8eS38Xjh9asTvfBmJQw/gLXee9Fuj31GtY+ia12eofiTWs/b3D9uEoetV+J6vimbOJ2eW+90UwnbM9LdA+B4rsezN1bXufniQHU+rPwSg+92QZq9D4Rq+K9NuV//aYPNVnVp5rbWR+yYII6RNCEHYv7Lw0hjdSDkOcB/W+Bvaq1J2wjc2C1P+4AW37k3nIcQs8qIx74sU+ExbXn+kqPtU4uc+UDiHY/OfzTOiWJvIO4mlX0Rj+LQQ+LTBOarKUGDuf9RYvFivpZUQcl+i+/3+RUEYIfp0n+7UMvBpju4THEN5CDGH7HOIx1CMbs27Rh1COXKSrqDr4+6t/7Jrc2rD81P1QyjGfS9DyPT5GG2mYZQJIb8Nut/vbxSEEUIIIR2F8PI6fRpOyP8Gut/vaxSEEUIIIYQQQogZUXxNCCGEEEIIIWZEQRghhBBCCCGEmBEFYYQQQgghhBBiRhSEEUIIIYQQQogZURBGCCGEEEIIIWZEQRghhBBCCCGEmBEFYYQQQgghhBBiRhSEEUIIIYQQQogZURBGCCGEEEIIIWZEQRghhBBCCCGEmBEFYYQQQgghhBBiRhSEEUIIIYQQQogZURBGCCGEEEIIIWZEQRghhBBCCCGEmBEFYYQQQgghhBBiNsD/AyV0gEEkuXnwAAAAAElFTkSuQmCC;" vertex="1" parent="rPZamDuF4Wgf_CICPfCr-1">
          <mxGeometry y="30" width="328.57" height="230" as="geometry" />
        </mxCell>
        <mxCell id="rPZamDuF4Wgf_CICPfCr-5" value="users" style="swimlane;fontStyle=0;childLayout=stackLayout;horizontal=1;startSize=30;horizontalStack=0;resizeParent=1;resizeParentMax=0;resizeLast=0;collapsible=1;marginBottom=0;whiteSpace=wrap;html=1;" vertex="1" parent="1">
          <mxGeometry x="520" y="180" width="340" height="119" as="geometry" />
        </mxCell>
        <mxCell id="rPZamDuF4Wgf_CICPfCr-12" value="" style="shape=image;verticalLabelPosition=bottom;labelBackgroundColor=default;verticalAlign=top;aspect=fixed;imageAspect=0;image=data:image/png,iVBORw0KGgoAAAANSUhEUgAAAqMAAACpCAYAAAAfmzQnAAAAAXNSR0IArs4c6QAAAARnQU1BAACxjwv8YQUAAAAJcEhZcwAADsMAAA7DAcdvqGQAAHVOSURBVHhe7Z0JXFTl+sd/igyLKCgFkQumV9RM8q9pWpe0EtPAxDKpLl40XFIzNbuYptwbblevuKRopmgq3dI0LaFF7GpSWpCmoMXiwqLioMCww7Cc/3vOnIGZYZZ3dBSr5/v5HDjvMu++POd53/ecFgIDBEEQBEEQBNEMtJT/EwRBEARBEMQdh4RRgiAIgiAIotkgYZQgCIIgCIJoNkgYJQiCIAiCIJoNEkYJgiAIgiCIZoOEUYIgCIIgCKLZIGGUIAiCIAiCaDZIGCUIgiAIgiCaDRJGCYIgCIIgiGaDhFGCIAiCIAii2SBhlCAIgiAIgmg2SBglCIIgCIIgmg0SRgmCIAiCIIhmg4RRgiAIgiAIotkgYZQgCIIgCIJoNkgYJQiCIAiCIJoNEkYJgiAIgiCIZoOEUYIgCIIgCKLZIGGUIAiCIAiCaDZIGCUIgiAIgiCaDRJGCYIgCIIgiGajeYTRoixkXlLJBoIgCIIgCOLPyp0XRot+QOTU+QibMw3T9l+RLU2Q8wO2btnOrh+QJ1vdSVRHNyLraLZsskzJidW4+G4sCtSyxe8IS3mtL0jEpbc2Gs+bKgPKpEQU3uHnC3Nprr18GJfeHoOMiex6Yx5ykvJll5vD2rbwZ8FW5Wzr+rrbsbY9WSwfc31QnYqct5bhWoFsJgiCuMtoITDk+zvD5XhMez0W59it97jl2PVKF429MU5vxxP/OsRuhmPTgYnorbG1GaUnNyL/3Q2ozWcDu8cLcPjnSnTu79ogoV/fcA8K8RV6vD5AtjHP9Q8eROE2P7SJ34z73WXL24A4kVX+ZTq8OsoWOpR+G4G82FTZ1EirkM3o+rSHbGqK2bxWJiNrQgSw4AC6POwgW+pwZjXSpy6Dw+YbzF22M6DkzD4UHjgIdYEn7IcGwn20H9rayY51GciLOYxq2ajF4VnjedRiMs1qlt7gcNRPeA/3DukMO7USlXXecPfSpL2+NAPXPo5B+Qkl7AaPhevLLD1tJCeTWNsWJKzIV21lNgq+ikdNt7+h48Ousq0+ZsuQYcldC09cPH4slbOYHtU3iaj6DbB/ehjajjZRzhbCsY5q3IiLQZlLALoM9ZbtNPCkh8dPRUYcbhw4jKrLDlAMH4v2Iwc0KWdLbcyq9sRTPhb6YCVzz10GtPvwTdzrJFsSBEHcJdx5zWjHAKzbFIm1i1dhU7AZQfQ2Iw7OeW8dg/3iE3jghyu4f/HDqHnrJeScMRQd+Lk37Bd0PnJ7BVEgH2WfR6DahJajtd9cdFzzITrOfwEtfnOF03x2z8xefqYFUfNU49r611A3/n10NiaIikgTMQvfiOAj/v76hpHIizoDu5EL4Dl3LBxVMVDuSEWN7AMFqSjbdgz1svGW+S0R1W5hcBvdB23cXOHs4dM4cTPBOmfSy6h0HguPNe+ijfNh3Ji0GtcrNc42hStfqcgacQ8uPNkfqpURqMw11v4slWE+ri1n7jFKOE5YiY7hY9Hq12XIm7cPxXWSBxmeuHj8yJgs52oUxL4kpcd+1Bx0XDEdThWxuPHcPOQZ09yZqy8rKY57AwUbYlB9VldzyJMevjSL48blRYlo8QzzszAMjlejmpazrdsYT/mY7YOA08NvwnN8OgrXJ+J2NHWCIIhbQtSM3n7UwtWUX4STSfpXVqHsrIvyF+GzD7YJWz79Xsj6Zbfw6uiXBL/R24SzsnMDtUVCVtolobRWNltFlpAT5i5kHFTKZg3FB0OFtLBdQpFszl/vLqStT2JxqYSC08eEaz8lCQVaR5maCpVQXqR7VQk1spshVbkpLAwxnBRBVS1bGlBXrRRuSH6OCflZKr2wqqTw04Wc6e7CxUSdOEuqhDrZTwPKvULGo6FCrn4WG2F5KtLJU0NeDcndJWSMixZumCtnM3HVpUcL6UFLhWsVsoUxxN8PjRLyZaNJLKS5rlouj8SlQtr0XcINI+VTtC9YSFt1TGgs/irh2qpeQsa+LNksw1k+ZuuUN18SSiF3dtM2KcJThnUlKkHPuTZFyA4aKmSny2Y9TMfViJn0cJSzwNqLfpvMEnJZu71wWCWbOcOR4eo7WWJbjRJy/8v6sWFdcaTHsh82bkxgZfqrbJRQCVcWuAvnv2kMh6eN8Ywt1pSPxf4uUiuOe8FCTq5sJgiCuEu4Q5rRIpyKXYHZS/WvOIMtU+rT2zF+ygqsiT+EnbEbMH5ZHEztqjq37Q2MnzcfQdvEBX8rKUiF+mwgnPrrawvb9h+FlmcTUaGrdczbiwuvzELxT6moPBqN62PGIOtso7ZItW8CLs+Rr6lPIXdENMutAXXZyFsyEln/ikXFaRbOiRgon5uKy3obYatR+NlsZD4TBNVR5ud0IkoXP4WLKxNRLrmnQinFMw8Vv7KyWq8T7watH07EZfeJg6GMSWDxJKM44iWoUvvIjvoUntgHYWwA3E1oXCTcO6MVfGBvRCNcdOJT4JW/wdPc0mB+Nur7esOsLowjzeWJUZryWL8P+HUjCpqUTz4qjh+GYqgfFJJZxAH3Dg1B/fFUlMo2XOXDU6c8+eKApwxbtnGFnrNdW7Rwk+9tjOVyZrD2oje4VOaj5uoAtOrSuOTPFQ5X32GI2shFiXBa+ybaGtsKwJEey37yUfebN1rqtXNXuD0VhtrTKdBsp+ZsYyIWxhau8tFipg82YOeN1s9UszKkvc8EQdxlyELpbae6rFwoLRavS8Jns0Vt50vChl9kR5HaDGHHeI39a5t+Ea4WK4WMjxZJZmOa0ayPXpPcQj66JNtYQWqUkPaoMY1VknDp0V7CpVSNSdJezN4lFOloBQv2BDO7vUKxbNbjtPFwJU3J3L2CSieciuOLhLQFB4Uy2Vz901IhbegUIfeqbCFRJZSXyLcNaDRWl07LRlOY1JRotDRpK47paNKqhLzFxjR/SuHKXI64hBQhe8JW4bpsakTz+4s/qYQb30QLF2YGCekTQoULu5KEEp2ykMpt6GAhbdRgIX1cP+n+/K4UobzBjzVpZojhGa0jUVsYJORkCUJd+lYhY1ywkCNqDrN2CelB0cINyQ9fXDx1ajlfupjSRHKWoQGSNtWkRvvWNKMNmCxnLSqh4KcEIXfXIuH8+CnCpZ9VTTV6ImbC4Srn2iwhd24/4fzBLCl8aYXDWLvgSo85P5oyOf+lstGOxX1l8Qid9PO0MSvHFovlLGKqDxoghjX3oNBkWCEIgmhG7tieUUVrZ7i01VyKRpVBI1fO4rsS8eZxhE7oC6+2Huj+4AOSkzG8X9mEwzt3mj8AZQu69YCbjlaw/cBAtDiRjkq9vXjmyEbpwcNQBA6DfWkxKlSaS+gyEPbfZqBC8lONwqOr0WL6AnT0kixkHOBsTMtzS6Sg8lNPOAX56WjSHGBnQotWXxeIVha3m/ZB5+1huEc26VLPykm9JBylzsNw76r96LJqLuxPhyIvJlXWJDEeCsG9H36Fbl8ch8/uk+j+xTrYHXwSVz7XanCsS7M56lWuaMECqS1Voj47k/2vBpyc0EJVJe/t5ImLp04ZFvPFB1cZ6iJpCQ9CsSDMvEb7tqNC9ekM1EoFUszKOwdV3P1GhK/vXN/0Giq6vI/7A70tbILnSY85Px64P/xDYN1InH87AlkrZyNjegzwoJ/srsFyG5O55bFFF9N9UA8PVkZ11bizp1YJgiDMc8eEUYsUqpAp3bRGG0fpxiKKtvbynZWIAzLSUWN4CKhAiToMNC98iZOKOEk1SByWEJf2mDCxSV5i014LYlDbi01akp9i1OaBTWCN4s9tQ8ojyz+3IJeNer21RetoySZb+zdXostffdCGPYQo3Pug08wFwMcJLNcydh5o7+2KVrKxZZsBaD8+sHFZ0+o0m8ITrfrGSWWt6L8APX48iQf6OwB5OsvpXHHx1CnDUr444SpDLZUZyF1k4cDZHcMbXlOmo8uUSHTbvgKK48FWCuKWy1l9NhpFsY6ws0uG8oONyGJXgfjKpNN72X0srusVNE96zPtp6RWIbvHH0entufCYsgJdN0eijRNz9/KAZtjiaGOmsHpsuQmYgEyCKEEQdxt3jzDaqQMGSTeXkKU9CFvfcN66KXUqZKdnoexmtAgej8Cx1z5UntSfystPHmaT3DA4mxFG68VJxcsbCm6NpTdaDQZahX0In+37DS6tJsMDDr08UJ+eblzTZUvcvWHnlCRNlpZhgpRXKmoLzJyoNgvLV58+qL1ucIRawSZdC0d6Bd16tSrN5mDp6eaBmgv6AojqQhLQrTNcRANXXDx1ahy9fHFhRRlWpiJn9stQ+30Gb4tawjuMnTfaDh2I+pOpVuxv5ihnd3+4vvcmXPr3gVNfzeXQiT1JePqw+4ehMCX98aTHlB87BziJp9rdHNiDRjFKv9/HBFBfeY8oRxszgfVji/WoC65BaBCcCYIg7g7unvnKvS+G9BBvMrHmrQis2bgC01YekZyMcUsHmNgk1z4kDLWbluHqZY1N7eU4KDcdgn3IKLTXWGm4kIICWbtSX5qMnGXL0PKVALTTWHHgAfdx01Eb0xiXSL06GwXZjUKe+zML0PLTZbjyfT5qZTvxXYWX45INXsXiCvuOHlD/xIRE2QZMwOF/LZIPWr/giepd+6CSBSMx76WJmnt9HNCmbwhqTqbc9GuX3EfOhR3L+2Vt3uuKody3FUKIH8uJaM7G5XWrodR5E09t/mEU/jcJ9iP9oJmXrUmzedxHLQDWb0SerBWvL4hD4fpiOA0fIHcGnrg46pQrX3xYLEOG9FGCCRNQE/QZHhjNhDjZvlkQ8748ApczihvaTX1pKlQH4tCSCY2tZTvLWC5nhVcfeA7007tcurFS8fJl933gKkqIPOnhTHN9Xiqu69Sp6vNwlJ5fwITWxoNQltuYzC2PLdZTfHKvjuBMEARxd3AXKU88EBA+B8Ee9lCXZGL/oXNweC4AY0yMmi6tNdODl/zfWlo/HYl7x1ejdPw9SB90Dy6MXwZh/AF4Pd04qYi07OOA0jmPIf3vI5HpHwr1Y/tx3/PWaZ2cBkfCM8wB5ZNYXMHiV1RYWM/9EyWXrjW8a7Oldwg6bh+L+pVDcWHESGT8/TFkvhjB3PXTIwqI976yEnafPYkLz2nCSg+IQL48qZXETZDyk/7cVDapxqH8OU3+MuO0Myj7fdhmODssg3LYY8gI7o8Lm1RwDgqU3fVp7fcC7OP2Qmns/ZA8eATi/jUDUTmpv+brMWOeQnHpJNwTNkAzIdp5w/Wvjiib9CBLM3MX0xMcbVAX1qXZHGI5eyxkdTpWTA+rh7ExwML30dFH9sAZl8U65cqXTn0NehDlJ5hQsoT5l8yrcV32Y7EMIb5ndAzU2dmofbc/MqXfy9ecfZC2YjN44uJKjyXEvA+/D9VvDWZlwtIrtmX/Cah+7CvcxwRla+DpOxbhSQ9nmstyE6H6OyuTvzM/I+6B8tuH4bbxTdyrM05ZbmMabDG2WEVlIkrjxrI+bTimEARBNC+3/gWmuhqUlZueFsSDSworD1GoSyqgdnSGi4XHd3VJzc3vG9VSV42K0irYtXGFg5l0qkuLUefgCidzaZK+ggK0/5FNTrKVIdUqFo6dIxzbOJicdMS4auscoZCWAU0jhQXL/kxRW1kMNRN2nS1sVS35airyUkPQOVz3UI/1SOllZWgqPk2+gVasLky1Gd40W4Sj3nnjslSnPPnixVIZ3m1IZVhtw7xb6DuW4EkPjx+uerDl2HLLVEO5LghlPjvQbaTFE4kEQRB3lFsXRvMPIXzKdvwoG/XpjnkfRCLgDzz2iSedxQMmIoWfvoTrqZPQKXIYnDVWfxDELwC9BFWbSHQM7XNLAilBEHeaatzYEYrC0rno9PoA6r8EQdx13LowWpWPc6lX2XBnDHt49ekNrz/qbnnxm9FjZ0Ht7gnUKSHkD0Sb7Wtxv97rmf4g1BXjxskcOPfvA+db1HARBHEHob5LEMRdzq0Lo3926qpRWVolvS7FFkuRBEEQBEEQfyZIGCUIgiAIgiCajdt2cJMgCIIgCIIgLEHCKEEQBEEQBNFskDBKEARBEARBNBskjBIEQRAEQRDNBgmjBEEQBEEQRLNBwihBEARBEATRbNCrnX7nVF9JQdJVoEcfX3g4FiEj+QKq7veFbwf524JZ3yH6pzTNPcO1RwhC+t7c9/x5sJgegiAIgiAIHUgz+junODUWQV/H4liRaMpF3NeRiEqVDBradoJv1/7s6grV5XgkXCuTHW4PFtNDEARBEAShAwmjfwhc4Grqg9Ptu8JvwCPs8kWPO6acNJMegiAIgiAIHWwgjKqQnXwap5LPIa9KtirKYmZml5oPtWwlIdrH78HWLduxNfYQTl1SyQ461LHwEvc3+DmXL9trkcM+l1cjGQtPH8Ju0e/eJDl+OT2pV6Cuq2gIa3f8ORTWST9pQJ2XiR910qMblzrvnCZP5Sqc2st+/20WCy+/8V72J2EpzWYQ05Ap5+Vm8PDoxv56ws1NNCngwAROT0cX0cCPWo3iEr0cAfXMTqVjJ/pRlaO6XjaLSH6YnY43m6SHIAiCIIg/DTbYM3oO0UFLsBvdMe+DSAR4MKvT2/HEvw4BPSbiwIrhaM+s1KnbEbboELKl3zTSfsRC7HmtNxNbGAVJWBO+BvsLJCcZNwT/Kwoz+jprjNqwR7yOTYjFtK+1Au2TWLtvCvrZNabnib5ZOHa6UdBTDJ2DL2cPZHHV4Nz7r7HfVsguWhrjKoyPQNCWTHi7uyG7QIzDGb07stxeFn9jjzFvx2DOIHu+NJui4BDCw7bjR5bWiJhIDHOX7a3h4h4ExbfGBzMD4AEl9q6fjJzHv8Cb/WT3BjRuB7tvwY4RnrKdzKnNcP+hI36TwpDJi0fo1st4fdFUDJAsypG4LRRLXZfg6xd6SjbZX4djTHYAjkwdAlfJhsGdHoIgCIIgiDu4TJ/5g0YQ7Re6CscOfIxjn6zCptBxeDtYFkShwrHoDZJQN2hcJL7c9zEOvxeCQQoVdq/+DJmSHx3+txmz/qdAQOjrWPvOPKyNCICPnewmkYkfi5mAumEdYl7pLsWhPnpODscevZ8NRvC417Hrgxh8uZP5Gded2bO4th1BnuRHQ3brJ7Fp5kB2V4HCB17FyrGiuFaD+NQM9t/KNBti3xruYsIU7aBgcu1N4dIOvm7t4SAZPOHTcTD6MKHZ9rSG37gIDL+4HKtPlQNXDiDiTCds/puOICpyx9JDEARBEMQfgTsmjLb37CD9P7VjPsa/tQLRcRlQDArEoHaSNVByDkdPiVpMZ6Dge3yybTt2fnMFcBTdMpBhuPStbo0xC5Zj3pjH0W9AX/Tr1wGGi8FjQieiX0cPdB/6V2gUc5eQpQ2n83DMGNkBBclx+CR2O6KPXtEIxTn5KJQ8yDzYG73dpTVnePfsDp92GtFLLS75W5tmQ9o+jnmxTBiOnYMn2sp21uLhj8jxgxsEQt8x8+HfoN60MS6+mPHMYzj07XsI/2w/HvZ/FQMMC/1OpocgCIIgiN89d0wY9XouEjEzn8QgJnRlnz+N3bEfIGxaGMK2nNPsv6wqh+acdwV+/PYQdsaL1xH8WCJZGmEghlpaBjdD3tdL8OzE+Zi96wiyKj3wUJ8OsHqV3Oo0G0HhDBeNavh3gUPX/vCrP4EYtT8Cb+MrogiCIAiC+HNgQ2G0GGr5AJO61MjBpHI1vIZOwcqdO3Hsk3XYNfNxeKMGmUx4OyX+zr0DvCWhrAPmvPexZim/4ZL3otqMc/js/XNMkByIlTGbsGTuREwa+yi8ZFdubJDmWz3AZDMqlLgm30rUG0tTOZI/X4+MPmvx9X0JeOPjFFTLLgRBEARBEDeDDYRRN9wvSXH5iF4YgcilbyEoKklyaaAuH/HL38Czf3sLkRv343DqVWRevKLZm+nuAS9xWduuN54PFfd2XsGacNHfdul0enTkW1hx1Ihwe4uIp7yBX7BDimcDZs+JxSnJxQpuNc0Fh7BwWgTCpi3GYb0DULcDT3i3VyCnWCmbGdpT8F4dEag+iWRxG6yI6iJi43YjVTZqyT/8LqaqxiFyRFcMGD0Xw68ux6qT5bIrQRAEQRCE9dhAGO2AgKnD4c3u1CWZTNB0w+RVryNY4yjjgoeeDcSwe/Jx+NAeJrCuQGR8FhQdH8eSJeOk34p4BbyNmMmPozcT7g4f0ix77/4VqC66rv8qpVumNwKmD0R3RQ3O/cDi+TYL3uNfx4wHZGcruKU02+IAkxUMGDoRvucXot+KyQhaPhYRWkHSayhe91Fj1e7n0G/5y+gXsxuegXMRonHVcCUei34CFgQFwFtsNS6+ePOVEOR8/S72XtF4IQiCIAiCsBbbfQ5UXYGyKiZXtXaGQu9UuwGyP2mvpKgRNYG6pAJqO3u4tL6NUlpdDcrKayynmZObSrNYHriD+0bFd4OW1ACOreFqWP5l5SiutYer251KDEEQBEEQf3bo2/QEQRAEQRBEs3HHTtMTBEEQBEEQhCEkjBIEQRAEQRDNBgmjBEEQBEEQRLNBwihBEARBEATRbJAwShAEQRAEQTQbJIwSBEEQBEEQzQYJowRBEARBEESzQcLonwm1GsXiBwfuBH/UuAiCIAiCsCkkjNqanB+k79Nv3fKD5tv7t5nqKylITE5BviSMFSEj+WekXDHxIdKz2/HGUZ1v01uDKgWxuw8gmeOT+xK3Epe13Mm4iD8GWd8hevfmhiv2tPxpXIKwdqwj+LjxM2L3/4x82XhbqEpD7JZIrP6J5oPmwiqZRAf6ApOtOb0dT/zrELsZjk0HJqK3xva2kf91OHolA5snrcRYrxSsXrwQZwZswY4RnrIPGfEzoCfW443CMfjgma5wMPzipyoXCT/sQVxaGtBuCPwfG4PAnq1lR0ZePEK3fodRUjyynSksxSUi+kn7DntTFRgWPATesnUDltKjhScuU/y6By99pURY2Ez4u8l2WupTEL1mMxxHRiPsQdnORuQn78GGnxOQgp4Y+0gIQgbo1lUaYqKicFA2iXi380egfwD8OxnmX4m4LQuxFePwwWR/eMi2GvjCyT+6HFNOXpRNjfj2X4nIoe1kk2UshnM2FkHfAJFzQ+Aru4kDVcLWcOQM2oKwh2SrW4W3Tu+7iMQLhcyyCMeOrUdGbyN9RkRqhweQcD4FSmdf+PcdZ1BfPFhRp5b6hU1omh4tTeqdtx+aQqr3nzFq5FqdfqSJH8/o1HvZRezdG4VlubnIhoKVy0REjg2Aj4vsbmvM5YtnrDPanpvmy2i/cGX9dZJhfzUPfzjmxgQN5scfHjT9NrpYNuowSrdODciOn4FZ9W/jwKhOzKRG8u4ZiHWNwLoRormR7K8XYlZBAHb/bTAcZDvudpgfj6mbN+OYzxL8FtxYMw3canu2ApPlzD3vWNFPLWGxf1kxRlmAWyYxgDSjfwhc4Ook3xrjSjxmLX8FI46noTjjXQz+z2RE/C9XdmRksM4RHYlE+OPNsCWY0aMcsfumY/Wpm9AWWYqLkf+/hei1dCy67luP8Iy0pk/KvOnhiMss97SGa8UFFBvLpjIXSRXM3Yr+zkM266gjjikx0H8JPvD3RfaxGZj6te5TPBNGKpQYMGgtdoSJVwRCPC8gaue7iDNUtef9jE9LPOFdkoBjTdTwnOFUFSGxlT9WSn4ar7mDrMy4pXDU5UisKEe1xiTD0lipRLHlh2Z+eOu0fVf4DXiEXb7oYeoB5sZ3CN8ktsPBmBS8FpEDOiHl6GSM2McmMqvgqwuL/cJm9ESIQT3teHIwqqo6we8hnXpn/Wtq9BzElvkibFwEwnq4IOmrKMRZkzCp3i8i/LsENMoumvJoqPd6JfbuCMfW2iB8MucLFMxZiZDaPRi9Ix7Z9bIfW2KzfBlpz7r5YngMekO/nAf1RGKl9Q2eOxyzYwLP+MODpt+6+szXTxO7QnxkL03IRSLrNmP7aAVPBXw8OyH23AkmHOmiRHJmCnw6+DYKotbUl0cANs/5GKdfNCKI2qLeOTFbztzzDmc/tQRX/+Ibo/ixIJMYwQbCqArZyadxKvUK1HX5OBe/B1u37EH86aY1rM7LxI+S+3ZsjT2Ec8YaQVEWTun4OXXJyFqJST8VyD7F0pJ8DnmGewirWNrEdJ66gjLZCmpterdjdzz7jWHfFuNhvzmXVyMZC08fwm4xzr1J+uHnn8Z+yf4H1rFao7tszYNYJply+DeDh0c39tcTbtITlkLSDHo66qoT1Ej8ZjOUvmtw4h9bcGDuDpyaMR+jOraX3Rk+rAPP2ILIAF94u3nC5/Gp2Dy4E5Ym/6wzgTRSfSUNicwt8VclqvUmC464GB5PsafWRaxTBATINgZwpYcjLnEvqYpNGLppFDVPop1Y1x6d0AMXkSOPEdW5KUg8X6QxFCmRg27wljUj1SXl0u8MLykcXcpykSKWDbuStWFpqTqB2JPlePOFmQj8iyc8/uKPd14IQfHJWCQatFcnJzYguYlXJwwIeBWT2qbh4Dn98PLPfIdin6kI65KLg2eMTyg84aBla9Z+tP7ky1F201J4EclSvlKQISoUjcETjhmkMjbstyJVzL5ELmip/uR7bZpOX2wUAKyoU4vcMwQr54nt8BH43Nca3n2DsPIpf1avx5Eie2mgoXzSkN3QPvQbh6W6sNgvtHDEJT4cZJw20Q4ZDrp11DYXsd9+iYFPzYX/PbIHUfsVtx1V/xeNHcH+8O3UCb6PByFyTgQCDdRtDeMBu1JyDdIh4jYEb1ZtQ+xZ2WxAdXIsFpX5Y3GIv0ZT49IVgSFzMblsO2KT5fDEvqxtA1p024JImaY/FqeJbSIXxazfF2eJS4ZMsG/wxp8vCWNtzBocdcpZvJyMq3otliFnOGbHBJ7xh6ectdgbpIldJlemziYgRvEshneRzQzXvkMQVsHap66wo0pDkuoR+PfVauM46kse0xuuWpbVJsm1YXuWKT4vti3RH2tfuuOWpXK2Yoyy3E8ZYp1phZoqpTz/pLCxQWPF1b9kuOYLC1iWSYxjA2H0CuKWrsDsRUsQNmUWpm3Zj53x+7HiX28hPF4rbdbg3PthGDYtAuGS+yHs3Lsd06ZMQ/TpCtkPK9PU7Rg/cT5m6/iZPWcagt4/x0QPHj9qZH7K0rJ0CT4TlReyMJlZIN4nY4uYzk81Yalz4hEeok3vIURvWYLgkAjsz9ERDLOPsLBWYNrnSSz9LI5/bUe0GGfsaeTZa7yoT7P0TFmBNZL9BoxfFmfwpGeGgkNYyMokbNpiHBbTeDO4tYOfW0d5Oa8dPJ2B+9oaUauzCb3hKd6tKwb46PoRG598K+PoZOzJS42k+BkIjUtAysUT2PvVDAzenNBUg2M2Lh5408MwF5eiBimfhWL0/kZNVvahhXhy98+okgZNT3Rm8aQXip2tHMe+XIig+O809VfFfttQrkU4tmc2QmMar+Dol9E1+l0kNNQbG+w+nIx+69dj78WTrHy+w4bdkxG0O6UxfRkpiHXxh5/OgIwugzHW5QSSM2SzKZpoiJQ4lpkL/25sUH1gKJIyOfdiNQnHMtlHl2PEpuWIzWD5yjiA8E2hCL8de3R/ex+DtsQb5IM9dHwSioifZTWCMgFvrN+MvSxNL320H0liO/w2XPqd5imft045MRghs5W58HBnk4VsFqk+tZmVz3tIKmUT1OVYTF0fihFbxHayp6nQqstN1AVPXNVnt+GlqOmIOiW2w5M4+NVkjPhIpx0akLJ/OTa4z8U7g3X6jioFCfmDMekp80trKfsnY/AnLO4CJgTkn8TeL0IxeAsTiGR3DT3x4qBHsOGIYd1qSM86gfz7+2OA7oOLoy/87lcjNkvuu2e3o+sOg7FGagvbkSwbkz9/GaGbZuON71mbSJiBiJ3rEf5NAvYeW4jgz+VwOPMltqOq30y1MdvCV4Y8WBgTeMYfjnK+GZLPfAnf3o/pbxtw88UT9zDB77dGYaf6t58Rc89gDNSO/zz1deM7ROmMzSPY2NzkDIEt23P+CSyNGosnDx7AMXGsT92G0VGzEXtellIslvPNjVFG+6mIWGcfsd+zsSFoTThiUsU07cG+C5r0cPUvU9xMe+eVSQyw4TI9E8P7TMGuD9Yh5pXuTB6uwY879uCU9MRgj97PBiN43OvMPQZf7mR+xon6QxV2bzvScNAn84dDUoX0C12FYwc+xrFPVmFT6Di8HdybhafBvB83eHXVSInZ11QoO7NbEiajf2BdS5mPU8xe0bUD2tdl4pN3Y/Ejq6tB4yJxQJsedSbWvLsbmXVSEI38bzNm/U+BgNDXsfadeVgbEQAfO2YvhrNak57eI+ZhtxhOUBdJ2OWCPVm6ixlTtINCFm6txqUdfN3ay0sanvDpOBh9OkoGGQX8AuejT85C9F0ejtVfazcWm4MJXyknENbDF66yjQYlXB9eiU+mzsSM4JlYN3UuAgs3I1YsWImbiYsHY+nhias1/MZFYPjF5Zol/isHEHGmEzb/bYgcjie827NcVbLHyvoLSC3pBP+qFGSwppyff4F1KvZUK/lrB/9JovZVvl4KYh2tHd4Z+U8ENmjZ2uGJ51bixLyViAyeyspnLna8PA6OTHg7Jj+hFhcqkd/GE/eJgutWJkRsFQc51lnbqHGtUH/NprJSfspX5SJx93L2ZPsIxvbVEcjzfsbBkqEY2JPd9x2MySXfGV2WsxiOiPoikmRNgHSlKBsFl6wDmJdYhEkTtmDd31i+/haBAxPGQJkYyQYy2Y8Wc+Fw4DAgAK9XxeJTXQ0am2j2XmED+WO6af4OCaXB2DFzrtwOZ2JUYSzipHGVt075kTbk/28Plm6egXn5Q/D5S9r2I5KGrQlHMWr0Wsx46hEEjlmC9x5qB+8HWTnp7SfkrAuzcMRVdQKrPv8OA0duxeZXxXY4FZEz1iAkfzm2GtFMVqdsRvj5R7BznM7+PJGcNBxs2w2dVT8jdhubLKPYg9Wm9YjL0G2nKTh8VomQJyMwY8QQBAaIcX2ME6G65cNQXUbxo+PwTm0sGysMR8ci5NxQI/Be/X2DIt739kT+jVyjAqwpElqPwQeTZuKdPj0RW9oVi9kYtW7oEKRcu6AJhytfIieQWG6qjWlJwCLx9w1XFGJlF344y5AHC2OCNeMPD0m/yOUnXxFHTWjQWJs8lGXYh0WY0MLG9NjMFFnYUyPpt+8Q+IDOOM9TXx7+iNSOzXOXYG5b2V4Xm7XnXMR+tByJ90XgxJwIvCOO9a+ycX/GUrz4F42UYrmcrR+jTPZTLaptmPWTJ9bN3YF1Yr9/dQne7C+mx7r+detjFMOiTGIcm+4ZHTT0SXh7eKD7C89jjGih/gVnJXGf0Xk4ZozsgILkOHwSux3RR69oBMycfGhX/dp7dpD+n9oxH+PfYkJkXAYUgwKhu33Nkh+vTprHkWzldeRlZ8DF0R6nMrOQd+2SZN/v/nuZUHIW30karcfx/PPd0b4tS/PzgZo0FyTj7BXxRgd1a4xZsBzzxjyOfgP6ol+/DpCUzmI4JeLN4wid0BdeYjgPPiBa8NH2ccyLZcJ57Bw8YawD8SB2xPGDGzqL75j58DdsyR6D8c7cvfhu5BDgwnIMkQYO05qt7K9ZXmsnYsYTho2wE3p01HnCcekPfy81zlzTCcvKuHgwmR6euFx8MeOZx3Do2/cQ/tl+POz/KgborBh4tOuKxBI2iKaxgbztsxh7LxOifmODRnkue7oz8hRdloLV/90Ox0dX4s1++k97Du3bsQ6oRnEue9r/IR4xyeLMVYbiSo17dS0bfBxaMz/Mrrwc2eVF7HFMAUfWa4tr9Sfpfd+LT/nT8eT6GYiu9MfuyRF6SzPiclwSe9oeIPbglj0xoMNFo0v1lsKRqM3FGUmbK1+5Smjl+vy040jwCIC/pttp6OCPEI9cJKQZxGcmHC5YPkL6d8OGn080CLHZPx1Aik8A/PSW+7vC/5GujYOyS08MbFuOajkyq+vUAlXXLyLlOguPlXVV+UVk35AdJNSsXl3gyp7+tTiwOk5QNZ2YuerCLJbjqv7lOFY7B2BYV9ampEmFXSXtWb9VIOmyQX2xCTD6m+MYbtAnJGpZ3ZfFYl7cZfTwZ8LuzGis81Vjw6e6e8h6YphPO2w5EomY/7HJ9JrchrWaA11adpK0o1t+MLKSYkucxD4o076TZlJvoZMgrnyJmG9jGnrixSemYm7Dxdqp7MKPFWVoAUtjgjXjDw89Oo/TyftUjO1uXPsltsnYDo9hoJEtO669BiMw/2ekiOVan4bkvJ4Y9bBOH+WuLwvYqj2LWvKyIXjnBZ09rSJuYrlq4Clnq8Yoc/1Ui7onZowPgvdNtBtdbn2MYvDIJEawqTDagJ1WzVeBUnkizvt6CZ4Vl9d3HUFWpQce6tMB7hqnBryeY41g5pMYxASz7POnsTv2A4RNC0PYlsZlekt+2nd4QGo7eSWXkJFWgQAmIONMBk6VaJ69vDuwUilUIVMytUYbbQdxbC23uXxc1UrHDQzE0L46M4AWY+FYi8IZLrfYgHjx6BuAN9mT3o8jHkFS4mY2ickOOhSfiMLU1G7YHBoAb4utQ9PBciqbTrw8cfHAkx5LcTl07Q+/+hOIUfsjsGEvkgZvz26sHnORnJWCzp0ewRP390Ti1Yts0imH7z0Gg0LZRcTuiER6HzaQDWsq1IjL2UEr5mDp8Quoat0Lo54Zgj6ym4hHe01c+UyoHztrL36bJWpYlchm7a0HE2R1CfEXn/J34MMH2+FMtQt7yJMdJMTluDTkX1wI98XPsWssgnLViDOyVG8+HBnnIZgsaXPlK6BRM3Gt+KL0pNuoGRBpDTc2KCYVGwg3ZsIxjrrJ3i7Xx8ZhsjIeCZLAx57OM4CwAaKqxwI6bcOqOuXAtW+QlJ93Jkdj92AFoj6K0tnj64thPdVY+tUepFxjgl/ud4g9VyRp5gzhqguzWI6rWKyTiv2I0Fm2FK+lOQp4O+oONOVI3heFQ/fPxQyDhyqJVqy9KoIQ+WoQBnRiv1Ow3z8+E+946e4hU8A3eAd7GBwMh6w9CN/xCtyXzkDE16ysZR+6ODRoR13QueHhux083Yy0JYbU9txkgdJWcOXLBE3Gn07wlQ7Baa+eRpdXzWNdGZrG8phgzfjDg6u7r07eH4FvB2MTWRESTv+M1x8xodHzegSj3E4g+Vd2LwlmQ/CE7p7uW6kvXWzVntmDXyJc4GhmvucpZ/4xykI/baC9NCY3xbr+detj1M1ze4TRnAxoVoS6o4ekHT6Hz94/x54TBmJlzCYsmTsRk8Y+iibnCMrV8Bo6BSt37sSxT9Zh18zHWSXWIDP+iLzcz+Hn/g7oJ/q7/D2+u+CB+3t7oF/JFZxME7tkd3S5n/3r6oNhoh+WrozL0g3znyWnuS/6dJVuLNOpAwZJN5eQpe3x9dYdRrrVA0yWKUfGr7l6h3hce/Rk01pZk8M3ojAV/L0LFk+eavoJTA9NBxvgrl0C4I+LB/Pp4Y2LdebP1yOjz1p8fV8C3vjYYO9cO0/4qS8jMVeJgV084dGZTeyXE3CosDU8XXUGV/lEYqxbBN4z9oqKvHhEJAIz2BP3yuAA+PftCg+3dtA7UOjVEYElaUjX1a5UXUR6SU90NnGoxveZ1/DijfcRo7u8KS7HqYbgwD++QIF44EW8/jEfM1TGl+pFjIbDgbenrzyw6qKp91HigMqLpycCWd1U6eX9MjIquqKzbnE6+uKFh4oQdSRNc+jBMQijdPde8cBbpzeBQ7/BGM4ebFLOyxYM19adMPweIPk7JmgdZ3G+uBFv+pqO52brQsRSXOLhAY9W/oicI04q+pfuq2CqT8Vi0dXHsHi0gYZHCyuzUVVKKPWSyB4+7Vm1GWjRPB70R8irS3Bg3l4UhAWh6mQ4oo1tltVqR386CqXOzOPbdQjyL6cgQ3d/Wv1FJF9WI6yDThurUOKafCth5VgrYUW+bIJunhjV1WXynT4Wy9BSODxjAu/4Y4ty1pJ3HJ+W+MPP5OvxPPFE9644eCENGRdOwLOrr/7Dh63qy1btuWNHjEUK0g23KOnCU86cY5TFfsoBd//SwdIYJR7y4nl3qDXYVBjdvzoCa7ZswOzwPUzMY1XtF4gnZPWn5pTdL9ixcTu2in7mxEp7OBuoy0f88jfw7N/eQuTG/TicehWZF69o9pO6e8BLfBLh8ePeAT5iXJeycErdHV79OjAR9ByOSZJmR3iJ6Wn7f3hhhLhD+grWvDVfk+a3YqU0e48IlLSuXLj3xZAe4k0mC4flfeMKTFt5RHLiwhYHmCyhViLp2znouyIcEdILvtdj1mYmnPmE6KjOmWB3MBxjTrbH4mlM8NNuHm9CLpuEG5+wsr+MwqKSIRj1iPzExhUXDxzp4Ywr//C7mKoah8gRXTFg9FwMv7ocq07q7BO6vxN8KxKw5QZ7shcfQnr6YlhJCpLVneDdsDzBBNqPw7HVYSY2v2xiUBD32si3EvUsD1/HQ3zjbANeQzHJ6wSiD6bJAnE5Ug4yoeIeJryaEEbhMhiv9++Epd/GIkUeTMTluDjDZS9xQ7oHe8o3careWDg8uD7yLN6siMWqw42vzMo+zMq7wh8vauudhw794e/yHbZ+dVE65SyVz1f7Ee0yFAM6aLxo8R4SAr+MeKz+JQF+fW9i7xxXnWoR928pkKOrOZDH2OqTmzFr9886J7HFvB/AwZaD4fsX2QJpiDsJ+D85DmGSRngc/LtYKJebrAuuuPo+i3cUX2LZ/hRNOcsU/3qx8YGiLAXR3x7H8Gcmmn7odBuMEJ8ULN33c2M4WQewNUdnGZWFszc+Ra98JC16K3s4tJLNBjgMHod3qr7EBml7kwaHRwMQWX8AUV/rtLGv38eq+iCEPCHnT5zg1ScbD9qoLiI2bjdSZSM3PPmyFTcSMGvNcsRdlAtInYuDp05gQMdejQIXTxlyhMM1JvCMP7YqZ5nsU1+i+iF/+JqRNDx6PgbPi9sQxR7wAnsZ7G20VX3Zqj17DEVIByWWxu+R9nhqyRffRazd3sdTzjxjFE8/5YCrfxlibozKj8cb28Lx5LaFNn0tlg2FUQ880acGCfE/SBpKl7+MwabXBrJnD5HeCJg+EN0VNTj3wyHs/DYL3uNfxwy97ZUueOjZQAy7Jx+HD+1B5NIViIzPgqLj41iyZJy8/MHjpwO6iMK+ugZqrw7wan0/ujzA7sUG9gAziweP4Izek5dj7XNd4FKVhf1Smu3R77l5WDe58bCUZTwQED4HwR72UJdkYv+hc3B4LgBjeAOwxQEmSyi6ImTmXpz++6vwd8xFQm1PhL30XxwI1hGqUmIx+nQasiviMWKNuMTTeK3WfWJo+Qh8SjZj8PJQBC0fi36/KPDOi6/BT9tReOJiT5WrteHHxzMzi1M2h2rfw8aTHp64rsRj0U/AgiB5id/FF2++EoKcr9/FXu3A4dgOngo18t16ooc4kLfshYEeSiRWdIOnPNIX//Ae/n6xCMl5Uei3VD89DWnuGoB3fC7ijXUvS5vjR/znXSS4ByBET5AWD1Qtgf818dDVZFaGoZhwbTB2NxyoMo7H8JlY10ocTMS4NMtxM3r1NxCKW2Ngj0eMLtVr0Q+HE5dH8E7wq3A8Mwe9pDSPxYgz9pgbPNPKAbITQsbNhffFcHQVy3Dpyxh9sR0+GScuYRnABsKxPdnEkfMI/P+Pvzc2wFGnugwYOhG+5xei3wpN/iLkhxWHHv7wq9yOEStYnsU6ZekW8z5DbPMNk35PBA5QY+nmxjYhldO6SMScMr2M2LQuOPoFT1wtWTlPjGBtbDkGLde0RTFPoYk/45o8eeZ/H4ulVUVY+vnYhnC0V2NcCvi+uBJzKzfjSbFcokLR76Oj8B0xv/FF8K084ak+gDf+oykfMa7B66KQ4/NPTDKpCeuEFx8bzB5GZKNIy56YEToXPdIb29iYCz2xM/TVRiGGTfCv+6ixavdz6Mfy1S9mNzwD5yJEduaHI1+24h5/6RBJ7MdyOa+YgWUtQ/Cev87SG08ZWgyHd0zgGH+sKOe45Ml6bUe8GtuPCHt4OssEzN5ND8/o0aU/AlulYW896286RaPBVvVlq/bMynBCNN5r/R1eWj9Werf1iKVj2XxVCLeGOZyjnDnGKL5+ygFP/zKCyflC4QJX8Xct21n3kRkL2OALTOcQHbQEu2GPvy/eiUk9KlBWYw+X1kakq7oalJXXQNHaGQpJKDSBmoUhqrjF/ZS6T3q68PjhgTdNFlCXVEDteBP7P8V8MOH4juwbPbUZoflBFr+EYBHxvWYVgKubmUTbKi4e7mRclqgqRzF7sDFbNgzxnZpVrM+4tr0TFW8bbJVmnnDEr7VMqJiJIy823Xt5WxDfVVhSwyaJ1k3fjap1a8XcDAXwvHhM/e9lTJo6Fb71LF+ykKX6OQojfvLE7neYvcbq1rE2Lqktsiw5m3n/Iw/acNqycExMXlKdsvSY88ND/v8iMSSZ5WUOy4uxNJextNRa7l9ccOTLJphrPzpYLEPOcHiw2AdtUc5nt+HJxE44MM3f+tUNY9iqvmzVnqV50MSYIcMz1t1JLPYvXsQyZEK3Ne+RtoQNu2ANqsVXIonCoTFBVMSOCaltOYQ+MQzmz6yQyeOHB940WUAhpuVmKlfMx51qp+17wv++WxzFRBQKy4OUreLi4U7GZQnp5dSWK9SBDXK/J0FUxFZpthhO1gEsO+2JBU/eIUFUpKXYpk0Mrlo3Y00sJw17XXvCl7lJ+ZJeGN0abk6tWbvs2lTreytYG5f8ovRb1l5owzEzW2jTY84PDx5PzcXOjsfx5H9mIPyjzYj42uA9iC5iPDbqNxz5sgnm2o8OFsuQMxweLPZBG5Sz9G7RHo/YRhAVsVV92ao9S/Mg82dGBrFYzncYi/2LF7EMbSiIithAM5qJ3dM2SHvjhr+xDsG9NLYEQRDWUH0iCkOPnkBGfUesHL0UYQ+Z2M90N1GVhpgt72Jry0cQco9GSlDeOIqEen+8F/wqBhjZFnDT3Mm4mhnxgETS1TKgTTf49bT+pDfR3JQj+9QFOD3oCw8bCy3ErXM39i8bCKMEQRC2oVqlhoOtNF93kGpVLtIzlSi2b48eXTvC4zZqQ+5kXARBEHcCEkYJgiAIgiCIZuN275YhCIIgCIIgCJOQMEoQBEEQBEE0GySMEgRBEARBEM0GCaMEQRAEQRBEs0HCKEEQBEEQBNFs3EXCaAXO7Re/W78dx3Jkq98p1VdSkJicgvwq0VSEjOSfkXJF54O3qhTE7j6AZJ1v2xK/E+rLkRIfiVD5c3GztiUgQ/dbxrcDai/EHxyLYyZBEH9obPhqJ/nl912D8J9/PIn2si0/+YifNwsr0oHgf32MGX1l698h+V+Ho1cysHnSSoz1Er85vRBnBmxp/FxlXjxCt36HUZK7xup2k5+8Bxt+TkCKuhP8+4QgZGhXzfdlZYpP7UFspsG3tF0GIyTAV+8LGpbCkVDlIuGHPYhLSwPaDYH/Y2MQ2PM2vMCcJx61EokJe3DwfAqq2/gj8KkA+HdpmhaufDGkuv2tGw6MDYFvG5aEq0q4Pcj8yu5WceUEYr5XwveZIAzQ+4a9AQbtpfj0AcSmG/82sWsPlva+zfCyeKkuDiCBlbPS2Rf+fcchZMBNfp5V/Oxh2nfYm6rAsOAhtv2K0c1gqZ1ZaGNW1RdP3s2kx1Ztw+ZtzEIZWhwzCYL4Q2M7zWj+JZzMy0fmjRrZ4s+OC1yd5NtmJv9wOEYkqTEqcC12BIfAO+ddBH/KJk7ZXSTjt1jsvWFeE8ETDq7EY2r0HMSW+SJsXATCergg6asoxOXL7rYiYw9eio5EIvzxZtgSzOhRjth907H6VLnsgVGvxN4tMxDN0jIpeC3e7KdAwqcGfhhc+ZJQ4lhmGmYMmgi/TprPxXnfrCBaxibcT6IQff44sitlu1uh8jfEnr8Ax3utFBJswY3vEL5JrIvBUjlHDuiElKOTMWIfEzysJP9/C9Fr6Vh03bce4Rlp7BG1mbHUnjnbWBOM1BdX3m+mf9mqbdxsONxpvnvGTIIg7jCiZvSWKLwknEz6RTj5+Xph3OiXBL/XNgsJolm6LgmlsjeJaqVwNm63sOWDbcIncWeFq9WyvYRSiAtnv2dhbPhFtqotEjLksDJuqGVLBrPPOvaZFM6WXd8IZ5WyvQRzE3+Tclmori1v8CfGV1Are7FA9dUMIeOqTnzWcvJ9oX3k+0KSZPhN2PDvUcI/jpRJJomrccLfI/8hfHpVEKou/yYcS0oWjp27JlTVye66VBYK6b8wd+YnKbNQtjTArJ9rwqfvjRKiTspGkcrjwqKG9GlIih0lTEkwEb4ETziFwqH3XxD+Hn9NNpuhNEc4I+bbXL7MUiaoiuRbGdW37wjt3z8qqGRz1fFVQvuNhxrMEqkxwtB/xwhnGsqar3yqisT4Lgi71o4Slnwv3muuKr02zEuZcCzmBWHKV/uFJXI7aEKeTru43NhejFPG6m8Sa2PGy1GVeUYTVtJvgrJStrQWS/Vl2HZ/fk9oL5azbGyApz2L6PWhm8di3s2mx3J75mtjhpivL9N5t6J/NWAmLqv64M2Gw5lmS2MmQRB/aG5dM5p9BLOXrsDsbT8gTzTnHUGkaJauI8iWPAHqnHiEh8zCtC37sTP+EKK3LEFwSAT255jSpFbg3Jb5CGPhrDlpD293e411QRLWTJmG8VF7pHB27t2OacwcfbpC444riBPjXrQZkYtfa/AnxjdufRIs7kIqOISF09jT+7TFOFwg21mLWzv4uXWUl9jawdMZuK+toTZBjaT4GQiNS0DKxRPY+9UMDN6coKcNqT67DS9FTUfUqZPMz0kc/GoyRnykr7Gz7IfF30aBM9d0ltzKylDs2FpHo1cEpQro0d7cN2o5wlGlICF/MCY9ZW5prQgJH05Gv/XrsZelN+Xid9iwezKCdhvTRJpD1EzKtzKOTvrpLy5maW3rqa+5fOgxjMUJpGTJZq7ySUNszGyExixHdBmw73vxXnPFZsherCD763cR5RCB90Z0hTFFUPbhhegXE4W9Gax8ftmM0M8SzJZN9cltWFQWgneGGtRf/gksjRqLJw8ewDGxrFO3YXQUS/N5a/bicdaXwUiSrcyFh3s3vWVmnvZsMzjybjE9HO2Zr43pY7K+LMHVv/QxHpf1ffCmw+FNM9eYSRDEHxZZKL15atVCaXG5UHpsvaTV9Jv9mZAhmqVL1i7WZgg7XtVoPf/xUYZQUKwUMj5apPH/6i4hQ9JY6mpGy4Wzm16T7kPW/KSj0SwSvnt3fEM4pcy+OjtO+MeL7HfjWTiSn7PCBjFcdj09e5twMpfFtXuR8LRkt425WqD4e+HfYngvrha+K5btrEV5SFi083iDtuTMZ8uEQ7raW0kz+pKwJEnnyb/0uLBoyQuNGrrK48KSJX9nZh0/dTnCrtWsfFJlM48fkdIzQtSqF4TR7+8SDp07I+zaOIu562odNNrB/1v2kjDo35OEQUvY/epVwsFLsrMWS+GceV/ouXa/kJWXLOyKeUcYvWqSMHrje8LBdN24BKGqoFBfC3xhtxAc+a5wSKvprLzWoGnRv86Y0expNDB6mpuTLD3/fl84o6O9VJ2JEYJZ/vQ0oRbLR4sRLaoWzjRXsTQ9s/J9IUlaMmDxGmo8L+1nZTFd2HVBNouk7xJGm9SMivVt4F9CtB8lPBN7RqiSbSREba58y51mS/UlU3X5jHDs293CkvenC8Hb44R03WUR3raqxZR2kCvNPHnnSA9Pe+ZtYw2Yqi8dTOWds381Yjou3jrVcAvh8KbZ0phJEMQfmlvXjNrZw6WtM1zayE+xitZwF83SJWszr5zFd5KW8XE8/3x3tG/rge7PB2KMaFWQjLNXxJtGsnf/G7O+VgHuYxAxcyDa28kOJedw9JSoSWWPzQXf45Nt27HzG/ZjR9EtAxkGe5DGhE5Ev44srqF/RT/J5hKyzO2tEmn7OObFxuDL2Dl4oq1sZy0e/ogcP7hBW+I7Zj78PWRDA53Qo6POk79Lf/h7qRs0dNW/HMdq5wAM6woUq8o1V0l79hsFki7z+xEpvpiCdEd/TOquQOKR5Vha5gnPVrKjhCf8R63F13M+xol5W3DinS+wv4cS//goConS6VYNFsOpBfLLYjEv7jJ6+EfgwMxorPNVY8On7yJOUptrcGjfDg5Qozg3DYk/xCMmWdxbWIZi7d7JKqWkqWp6XUS2Tnp0yf56OebVTsSMJ3Q0N/1CsLPLz5gQNQPhH61H+JrJCL/A8uoiu8tYLh8OeNJ8JR5vfHUBk16ZigEGadCSn3YcCR7jMIrVaQNt2ulr3nQ5m4AY+MNP17+IqG0vG4J3XvBlZa2DW+tGM2c5W6wvmarrF5FyvUjSklaVszBuyA4M3rZqEZ40c+SdKz087ZmzjTVgqr544OxfDZiJi7dOJW4lHN40c42ZBEH8UbHdASZzFKqQKd20RhtRcBRxbA2FdJOPq4XSTQM//pbJhjdGwREcStUuvzOqytkwJ1KBH789pFmmjz+CH0skS9uhYIK0JnF3EAUc2UyZU6k50S4t/1XsR4S8HKy9luYo4O2oSRyPH2QdwNRvFVgwbSoCnxqHyBkf47cXeyFhXzhidZYRXbt0hYe2bhjez4Zgcv0JJGuXoXnCYQKchyIIka8GYUAnFr+CpePxmXjHKw0HzzWe1M8+uhxBK+Zg6fELqGrdC6OeGYI+spuEmy9CgqdiRpPL+Knz4hNRmJraDZtDA+Ct16JbY0DwFpyauRLvBLyKd6ZtweYxnVDMhE0PbTic5WMRi2lWIu7AdqS09YTy+82I3i1eB5CEXCQcZveJuVIw14ovsgcTM8KnASnpCXD9S/+mp65VRUiECxx16rQJnOVssb5kXPsGSb9/Z3I0dg9WIErnYYarrfLAk2aOvHOlh6s9c7QxHUzWFw+c/UuLubh461TklsKxMs0EQfw5sb0wWlKOUvm2ga4+GCbdnEPGZekGuJyFs9JNX/QxeOJWPBCATYvHoTdU2L06Fg0HU907wFuaJzpgznsf49gB3SsSATZ6klbnZSIz706/FUCJbCaUD3DvJJk8PLrBo5U/IudswYG5+lekvG+Lx49G09ZTX0jrEoRJnZkQlCZrgIxRr4aukoQrnM49MapKCaXelkQmZNuz54ha2TIvHhGJwIyZ0VgZHAD/vkwIdmtndO8kD+JkGPy9CxZPNq1thIvm5LurKJyc/RkHWw2GbxeN002Xj9Uo4DPwbawcNAS+XfvLV094MqGpcwd276VJ/H3urDMU5nKeIlci42o5BtyvaTN6dOyIsUhBujUCtTFusr4c+g3GcPYwk3JeY+ZpqzaDI+9c6eFpz1rMtLFGzNQXD9akx1xcVtXpLYZjVZoJgvizYjth1LsLnhD/5+1HZOQH0svro6MOaQ4wtf0/vDBCVBNcwZq35mPNlg2Y/VYsE03Zz0YEYpDBcviY0BD07jMGb7/SgQm3RxD+vnzwyK43ng/tzoYyFk74W4jcqHlJfnTkW1hx1EZvBLfFASYuctlE3SjsZH8ZhUUlQzDqEXnpvu+zeEfxJZbtT0FxvcZKpPjXi42CCocfDzYZDLj8HRJ1i0f1Mw5dbYeBnTWHCsTDCUu/vtgYRn05MuL3INbxWQx7SGPFEw7cBiPEJwVL9/3cGFbWAWzNYRPSw7KfynIUa+40iHF9HY9DspEf9ruD4Rhzsj0WT2OCqBEtlOTntE6+WHpXf/UlfPoHwFdu+Vz5sgnt4DPgEfjpXUwIZvY9erH7v8gPGL2HIFDFyv6k/AQmvmT/eAKSNCYDlMhRKeAk74bRw2MoQjoosZTVY4ZO3vLFd4EabIsxC0d9VZ/cjFm7f0a+jmyRffgADrZkAtlfZAue9mwrePLOkx6e9szRxhoxU188cKVHi5m4rOqDtxiOVWkmCOLPig1fes/k0KNrsHBjEjK1k5KiNyI2LcQwd3Zfp8KpHSuw8IsseandHv2eexMRoX3lPaFGXnpfl4mdUyKwtcAew2a+h4inRYmjAtnx2/DvXT/gnHaPmGMHDAueirfHiILqOUQHLcFuZt0QTv4hhE/Zjh/RHfM+sKBBLfkBKyZtQDwGYsnWW9g3ag7xJebb0uDftxzRKRfgySa0xPqeWPfifDZw6+wjVaUg5qPlWMUm1B6OLoC6CGg/DpHB4+DbsCRp2U/20SjM++EEVI7tpO21SlZu/oMjEPmUrO0ou4i9e6OwLFcJD+d2KK5SorptEDYHv4oBOmVlMRyReiUSti3EvOtAZ4UaOVXtEDbin5jRX6v9Kkfy7tn4+/kyKb1Vte0w6qkQuP4YC8exVnwEIGUzen0eb1SQeSfgC7wpbhJWpUn5WqRUowdLS7raBS/2n493RnTV20vIlS8JJfaun4ycx+Xwbxnx5d6x6Gzw8YPiE+sR+r8E5LTyhEMtpO0DOJyAHoYfSag6gYj/7IevqY8niHWxMxLzWL06sLy5srZR7PYs3ntRv17Nw1FfBu1H3NeZ7TgYi0e9gbFWtWfNy86XSp71CbT2Beg8eefpX5baM2cbkzBbX5x5t9i/ZMzGZUUftEU4vGkmCOJPi02FUYm6GpSVi0vc4sEmI4/TsruitTMU2oNJN4m6pAJq8QBV65tVNZhAXcEE5ju0b1StRnEF4OpmJrKqciYgMpnbuTUcTHnj8FOtKkcVqxeTcUlpYXXXqjVcNavGRrEYjog2PW1Zeozp3yV3C2HYCktpkeHK151C/BJPSY3FNHOhrVfxdVWitH0z8NSXnGZL7YenrdoMnrzzpMdSG+JsYzbDFvFJYdigvfOGc6fLiCCI3w22F0YJgiAIgiAIghN6PiUIgiAIgiCaDRJGCYIgCIIgiGaDhFGCIAiCIAii2SBhlCAIgiAIgmg2SBglCIIgCIIgmg0SRgmCIAiCIIhmo0Wr92+YfbWTU6sW8O9oj3f6OaHfva1kW4IgCIIgCIK4dSxqRitrBXyRpcbQL0pw6nqtbHuLFGUh85LOd/oIgiAIgiCIPyUWX3p/vbIe83+qxI70KjzXRYF9z7SRXWRyfsDWbzJkgwafZybiic6ywZCiHxA5dQMOq4HeoauwaUwH2aEC5/bvxokbFn5P3CVUIHvPauxwf13+TCs/hd+uwOqCYESM64Lb/QEegiAIgiDubixqRu91aonljzpJ9wmXxc98GlCYgZ3xh/Su1ELZzRjlKuTJ364vq9QNrwxZP3L8/ndDPg4vnYWwpUfwh8iOAXnx/8a0XwZi8lADQbTkCn7cuwELp83Cwqg9OHy+QnZopP3QiRj8SwQWxhv7sjxBEARBEH8muA4wiQKpiLhk34Q+IfhyZwy7lmPOA7KdOToGYN2mSKxdvAqbgrvIln9A8k/j0OV74XX5CE780WSunP2I/OwB/GfhcHjZyXYM9fn9mDZlJb6zexIzVryDyQPLsW/BXESfNhBI7TwQsHAevD9bif05sh1BEARBEH9Kbv00vZ09XNo6S5fC5JprDfJST+NUsuY6e7kcqLqOghLZ2RR1KmTKv8ks0NGiMvvsxP3YumU7tsYewjljwl5RFk7F72nwc8qKParqvExk5hnRAltBYfL3KHhyIkIHXcF3yUYSWFeDsir5Xp0v5/McsnXLhMePSNWVhnI6Z5BPdXkFymRNtB5qZl9+M3mswanP9sNr/Bj0bi1bySj+8gz+88E6zBvTG15tPeDtNxH/mdoBu7/4BWWynwZa98bkV7tgy2dJMJY8giAIgiD+HLTMvnwFv5z91ehVU2ujA0sowqnYFZi9VP+Ky5adjVKBc1vmI4z5W3PSHt7u9hrrgiSsmTIN46P2aLYF7N2Oacysq31Tp27H+InzMXvL/gY/s+dMQ9D75ywLPgWHsHBaBMKmLcbhAtnOavJx4tgVDHm4A7o//FecOna66VJ9aiyeXfkD8k5vR9ikf2LHsV+Yv/1ISNcREC36UeHHqFl4dspmxJ1mbqe/x5b5byBsm04+U7chaNEhg/iZQLnxNfz7R/ZQYC1Vv+C7owMxfJCxfaLiQ4l8K6NwNL2fVNF/IPyPJuGUVuAmCIIgCOJPR8t9cd9g1sLFTa55i1eirOwmhBWjeMA/QlzK513OZ4Lo+3Mx7WsVvIfOwbrJveWDLioci96A/UxIHDQuEl/u+xiH3wvBIIUKu1d/hkzJD5D5wyGIcm6/0FU4duBjHPtkFTaFjsPbwdpwzGDfGu6iJ0U7KGT512ryT+O7S39F/7+w+z4DMebS98aX6s/HYuEBDyzZvglL5k7EpLkLMWmAQaRm/bih36vv4sD2SMyZzNwmv461K8dA8UUcfpS1p4oBz+DvN3Yj7jeNWaLoe3x2fCCef9y6g0cSmecQ38MHPo6y2SxMWP42CcOe6A0X2UYPxy7w6ZGEs9qKIwiCIAjiT0fLmWHj0btHd9mooWXLllg2fy7aubnKNreOorVmKd/8cr6G7N3/xiwmiMJ9DCJmDkR77b7EknM4ekrUCjoDBd/jk23bsfObK0yoEd0ykCELfO09NSf0T+2Yj/FvrUB0XAYUgwIxqJ1kbZ62j2NeLBOaY+fgCQMtHy/iEv2ppwait5huOx8MfizL+FJ9iQ8m/yNAb99lEyz4UbRzYwJ2DcouZ+JU4iHslt5sUI5SrbbRrjuef+UBVk6Ny+F5R+OROeIZ9OMSKA2oA9QdPdBeNpojL341/l0Zgsl+poReD3h1rEE1C5MgCIIgiD8nLe3t7bFy0Tzc53GvbAWEz5iMR/r2kU13nh9/y9QITgVHcChV5/BLVbm897ACP36rPb1/pEELqMXruUjEzHwSg5gwmX3+NHbHfoCwaWEI28KxTC+iYEKzRRWqKcQlepb+r5fgiaCX2fV3zD5agx+NLdXDDW0M9l02xbyfvKNrEDZxPlYfugS1mw/8g/8KH9lNi8vjYzDm1CEcKxJNV/DjEeCl4foPIFZRpK0H0xT+sAHhRg456VOBMilNBEEQBEH8WZEOMLVxaY3V/1qA1s5OeHHUSDz79FDJ8aapl//fJIoHArBp8Tj0hrj8HotT2t0C7h3gLQmJHTDnvY81S/ANVyQCPCRfQLkaXkOnYOXOnTj2yTrsmvk4vFGDTCa48uxPvKUDTOISffrjWPmJTto+mYMx6SaW6m+F/ENYsxaYvGkVIl4djkF9uqB9W1FTaoBjbzw/RoUt+zOB347gk/YB8O8ou1lLezd0z8uHue20ooA8a1trzFkzsckhJ32KUJDngft51KwEQRAEQfwhaThN3/H++7Bl1TLMeHW8bGMtHujygGYv4+6V87FmyweIfD/JogbNGGNCQ9C7zxi8/UoHoOQIwlk4kkbTjglVod2ZsHUFa8LfQuTG7dJp+ejIt7DiqHyKvC4f8cvfwLN/E93343DqVWRevII80c3dA16WlqZv8QCTuET/o99A/SVwx4fQv1+m8aX6W6GqXF8orKtgAvch/CgbdfEaPg6DDn2D6MNHMMj/r8b3cPLQ4SEMKf8FZ41mRXwRPiu7/7rh7fcmop+lbQ7553CifAAe0n73gCAIgiCIPx16r3YSBdKWLVrIJuvpPX4e/u7BBNKqLOyPP4LD/zuNDK51ceN4vzAVk9wBdeIG/PtbjbDpFfA2YiY/jt5MID18SLNUv/tXoLrourwE74KHng3EsHvymfseRC5dgcj4LCg6Po4lS8bBW/Jjhls8wCQu0Y8Z9H8G2kln9Huir4ml+lug8zN4MyALCyeGMeF5FsZP+jdOeAzH8z1kd11aD0TgyHPYnfh/GNL/JjKmxa47hgRW4JOvjJw6St3NBNFMlOUfwrS/iVsUGq/o07IfHbKPHkJp4JPobm7PLEEQBEEQf2gsfg5URPwk6P07i+DUqgVKwiyvqYrvtlTXie8fvQWhhwN1CYtHfM9paxPxiO/SFJflxT2g1hzWEX8nvqbopveN3mGkfFou77z9b2F20VTsfvUW9ouKVJ3D1hnb4f7PVRhzs59tzYtH+MJ8hEZPRO+bOUhFEARBEMQfAosvvdd+m17EvyOfcKk5OX97BVERhXg635QgKiIKoaIfa4WdWzrA1AxI+bRQ3pfjsWb3vZgx5hYFURHH3pi0ZDhOLFmDY9L+ByvJ+wEr/vkThiwhQZQgCIIg/uy0aPX+DYuaURFRK3r0ubbod28r2Yb4PaD+YQPGbU5CoboDZvxzEYJ7OcsuNuDyaZxCX/Sz9jDUzf6OIAiCIIg/HBaFUVEIFTWi7/RzIkH0d4q6pAaKO6CpJgiCIAiCsBauPaMEQRAEQRAEcTuwuGeUIAiCIAiCIG4XJIwSBEEQBEEQzQYJowRBEARBEESzQcIoQRAEQRAE0WyQMEoQBEEQBEE0GySMEgRBEARBEM0GCaMcqI5uRNbRbNlkmZITq3Hx3VgU3MJ3+ZsLS3mtL0jEpbc2Gs+bKgPKpEQUqmTzHcLa+rnT3O3pu1l+7/mqvXwYl94eg4yJ7HpjHnKS8mWX3zHm+qA6FTlvLcO1AtlMEARxl3D3vme05Ap+PHQIJ7LL0cb7/+A//HF4t5XdbEzpyY3If3cDavPZZOTxAhz+uRKd+7s2SOrXN9yDQnyFHq8PkG3Mc/2DB1G4zQ9t4jfjfnfZ8jYgCgOVf5kOLyNfMir9NgJ5samyqZFWIZvR9WkP2dQUs3mtTEbWhAhgwQF0edhBttThzGqkT10Gh803mLtsZ0DJmX0oPHAQ6gJP2A8NhPtoP7S1kx3rMpAXcxjVslGLw7PG86jFfP1U40ZcDMpcAtBlqLdsl428D+KbxKPBB25ThsFNNvFQkRGHGwcOo+qyAxTDx6L9yAGNeWJY237MIZaf6ptEVP0G2D89DG1HszJsIzvK1Jdm4NrHMSg/oYTd4LFwfbmpH7P1IGMpHN588cRlK7jjUrO2HByO+gnv4d4hnWGnVqKyzhvuXpp2balORXjqgiecxnLOQMteL8BlQgg8DbooT51KWOiDlcw9dxnQ7sM3ca+TbEkQBNHM3J2a0fwjWDjlLYTHHsL+xB+wM3YDxk9ZgsO3QXEhDs55bx2D/eITeOCHK7h/8cOoeesl5JwxLqrwcG/YL+h85PYKoqyQUPZ5BKpNaDla+81FxzUfouP8F9DiN1c4zWf3zOzlZ1oQNU81rq1/DXXj30dnY4KoiDTJsvCNChrVTHgZibyoM7AbuQCec8fCURUD5Y5U1Mg+UJCKsm3HUC8bbUFx3Bso2BCD6rOWGk8V6r6PgFrtChO5M4rYfi4vSkSLZ+ag48IwOF6NQt68fSiukz3YjGoUxL7EhHUl7EexuFZMh1NFLG48Nw95ulow9sCQM+llVDqPhcead9HG+TBuTFqN65WyO2s315azemDhOE5YiY7hY9Hq12VN02wxHB4447IJVsb1WyKq3cLgNroP2ri5wtnDp0EQtVynfHXB1TZEbeWkWajuEob7WP+855lqlP19Kq7qNldr6sJsHwScHn4TnuPTUbg+EVZVJUEQxO1E1IzeXaiFk2vGC36jxwv/+PyyZFPwzb+Fp0e/JDy95iehWrLRobZIyEq7JJTWymaryBJywtyFjINK2ayh+GCokBa2SyiSzfnr3YW09UksLpVQcPqYcO2nJKFA6yhTU6ESyot0ryqhRnYzpCo3hYUhhpMiqJpkSENdtVK4Ifk5JuRnqfTCqpLCTxdyprsLFxN14iypEupkPw0o9woZj4YKufpZbITlqUgnTw15NSR3l5AxLlq4Ya6czcRVlx4tpActFa5VyBbGEH8/NErIl40m4UxzXZaY5igh97+sPo3lSYe6q3uF8+ON5K+2SijJSjJRX6z9TBgqZP8qGyVUwpUF7sL5b1Syma/9aDFX7wJLm379Zgm5rA1cONwYV9G+YCFt1TGdflIlXFvVS8jYlyWbWRglKkGvGmpThOwglo902czgCYcnXzxxSZgt50bM9R2euOqq5b6SuFRIm75LuNGk7/DVqeW64AzndJSQNnuvUCwbRQr2BOmNSTx10YCl/i5SK457wUJOrmwmCIJoZu5CzWgGTh2vARRPIjSgg2TT/ulAjFEA6uPnkCnZNHJu2xsYP28+gradk22soCAV6rOBcOqvry1s238UWp5NRIWu1jFvLy68MgvFP6Wi8mg0ro8Zg6yzjdpT1b4JuDxHvqY+hdwR0SiS3Rqoy0bekpHI+lcsKk6zcE7EQPncVFzOk90lqlH42WxkPhME1VHm53QiShc/hYsrE1EuuadCKcUzDxW/sjJZrxPvBq0fTsRl94mDoYxJYPEkozjiJahS+8iO+hSe2AdhbADcTWhcJNw7oxV8YG9EI1x04lPglb/B09zSYH426vt6m9dM8qZZ1CYtSoTT2jfR1thypi6sXq6u3Ar7hdP18ldzIRaZAY/h2odiXKmoiIvAtedm62it8lH3mzda6uXXFW5PhaH2dAr0ttVaaD+W653B0qbXYSvzUXN1AFp1cZUt8lFx/DAUQ/3AuouMA+4dGoL646kolW1atnGFXjXYtUULvX0JfOFIWMiX5bh4ypnB0Xd44ipPjNL0lfX7gF83oqBJ3+GsU4664ArH3QMts9JRqaOmrC+tgp2LthdYURciZvpgA3beaP1MNSvDP94+ZoIgfqfIQundg/Ib4R+jXxL8wr8RMo6tFka/OF7497EMIS6c2Y1eJMQZPPFnffQas39JCPnokmxjBalRQtqjxjRxScKlR3sJl1I1JkkDNHuXUKSjNSvYE9xEo9GAqO0wEq6k4Zi7V1DphFNxfJGQtuCgUCabq39aKqQNnSLkXpUtJKqE8hL5tgGlkDvbXbh0WjaawqSmRKNdSVtxTEebVCXkLTamZVQKV+ZyxCWkCNkTtgrXZVMjmt9f/Ekl3PgmWrgwM0hInxAqXNiVJJToaiLFchs6WEgbNVhIH9dPuj+/K0Uob/DDmebaLCF3bj/h/MEsSXslabrNaEalMtcLU6ZWJZToafpYXCt6CekfpshmTR2c/1LZqCVjcV9ZPEKvbfC0H/56VwkFPyUIubsWCefHTxEu/azS0dCJmsAgISdLEOrStwoZ44KFHFErmLVLSA+KFm5oPDVB0lrrab35wrG6XzCaxsWwWM58fccQo3FpMaKR1MBXpxrM1QV/OKovZwlpz4QKFw8mCTcSlwoZixN08mltnZrqgwaI+Z97UGjSvAiCIJqBu3PPqExebgYK1TU4m2t6v5/3K5tweOdO7Hqli2xzm+jWA246WrP2AwPR4kQ6Krn3vmWj9OBhKAKHwb60GBUqzSV0GQj7bzNQIfmpRuHR1WgxfQE6ekkWMg5wtqTds5oUVH7qCacgPx1tkgPsTJzcqa8LRCuL2037oPP2MNwjm3SpZ+WkXhKOUudhuHfVfnRZNRf2p0ORF5PaqCV6KAT3fvgVun1xHD67T6L7F+tgd/BJXPlcq8HhSXM1rm96DRVd3sf9gd4cm6KLcePzWCiGDtTXqonYuaINC7u2Mh+FZxKR91kMKvM9IZRWyR48cH/4h8C6kTj/dgSyVs5GxvQY4EE/2V0Hs+3HmnpXofp0BmqlBlOM+uwcVOm0wXqVK1qwjNSWKplbJvtfDTg5oYWqyvheXEmDfBCKBWF6WmHucKzpFybislzOPH3HAFNxWcSKOjVbF5zh1GWj/HQl7KeMhf3VvShcEst+6oAWsrOIdXVqug/q4cH6Rl017s7TqwRB/Nm4+4TRtm6Q5uOScngHv4fdG9YhJrgL1CWipQfcjZyoV7S1l++sRByQkY4aw0NABUrUYaB54UucDMQJyOhMaAxx2Y4JZJvkZUHttSAGtb3YZCP5KUZtHtjE00Qssj1SHln+TQifTclGfZM1QX5aMoHA/s2V6PJXH7RRsDpz74NOMxcAHyewXMvYeaC9tytaycaWbQag/fjAxuVIjjSrz0ajKNYRdnbJUH6wEVnsKhBfP3R6L7uPxXXDPJQmo+rbsXDqa2RzQGUqct54DBcWbUC5kqV54N/Q9lHtiXwNLb0C0S3+ODq9PRceU1ag6+ZItHFi8Xl5wFH2YxS99mNNvXvDa8p0dJkSiW7bV0BxPFhHWPdEq75xUliK/gvQ48eTeKA/y1eeie0PlRnIXWTsUJqV4ehiql+YjIthsZx5+o4O5uLigL9OzdUFTzjVUK59HlVD30PX5wPRkfnpHn8CbdXLkLc2UX5Iu4W6MAcTbEkQJQjibuHuE0Ydu8CnB/uf9wvOFtjDq6MHFAXncIINxujhAx/DGb5Ohez0LJQZ08RYwuMROPbah8qTDeKQRPnJw2ySGwZnM8JovTgZeHlDwa2x9EarwUCrsA/hs32/waXVZHjAoZcH6tPT9fcb3g7cvWHnlCRNcpZhAqJXKmoLdPc4WgPLV58+qL1u8PJDBRNcLBzpFXTrlSfN7v5wfe9NuPTvwwRMzeXQiUmvnj7s/mEoDGfviymo6f8wnBo35DVwPSYYVYM/RPdVkeg03A/uHV1hb0xetHOAk3gi282BCdLFKP1+HxMgfHX2+DVFv/3cZL3beaPt0IGoP5kq73dk4XTzQM2FRoFIRHUhCejWGS6yWUIUAGe/DLXfZ/BuokG2IhwDjPYLs3HxlDNP35GxEBc31tZpk7qQMRuOqOnvA0U3nUZp5wrPFyah5afJzLfIzdeFOdQF1yBYemAiCIK4Q9x9wigbfIeM7MsG60ysWbgC0Vs+QOTCWPwIewwbORDtZV9abukAE5vk2oeEoXbTMly9rLGpvRwH5aZDsA8ZpR/XhRQUyFq1+tJk5CxbhpavBKCdxooDD7iPm47amMa4ROrV2SjIbhTy3J9ZwCaiZbjyfT5qZTvxHYOX45INXsXCJmwmqKt/YkKibAMmuPG/FskHrV/wRPWufVDJAp+Y99JEzb0+DmjTNwQ1J1Nu+rVL7iPnwo7l/bI273XFUO7bCiHEj+VENGfj8rrVUOrsyKjNP4zC/ybBfqQfNLKN5TQrvPrAc6Cf3uXSjcXg5cvu+8DVQJooyU0BnByMdIRq1FXobw+pzU9E4UEmBOhQn5eK6zreVJ+Ho/T8AiaYaA+yyFhoPxbrXSyf5RG4nFHcUAf1palQHYhDSyZ4t5bt3EctANZvRJ6s7a8viEPh+mI4DR/QkEfpwwUTJqAm6DM8MJoJerK9LjzhSFjIl+W4eMqZr+/w5IsHi3XKWReW24YPHIYnofL77MY+zFCdOIj64b5wls3cdWEFxSf3WnxgIgiCuFPcpS+9r0D2/vWY9fFpFIqqIoUzhr28CG+P6dJk8Mz+7zSM36OC97jlN7lvVDzFPA/X18dCmvWdfNBq5oe4/3mfhj2E4su9Vc5rYX98I6rVbCLJyEaLlzfD63UmJBnbj3ZGfPE00P7HN3GvbKVFdSgC11dvRL2rH1o4V0HI84Ti7XfRcag3E7c1VP4Wg6vzolCr9kYLj2II+Z2heD0S9wU2pkmkPi8OlyZOQK2CheUuhjUArp8yf0xyK4mbgLwlcbLPRlou/BXdA2WVr7icueRlVBx3YPFUQ/jLHLg+dBjFBTOavsi8MhEXx8TB6ZMV8OJe2tdHzNflORsheHUGCnKAwQtwz+wX0F7OVMPHB9ADLZxypHzbz2Xx6ebbmjTLSGWRZdy98NMxuK5cYNStoXzFukIVWvSfhPYD03HjrH+D/5KkjVBGbEC9B0szE6IEn0i4/XM6PHVOM/O2H0v1rlc+bkoIGdVoOeV93Bc6QC+c4m8joFwSD3TxgJDlCPuFa9Hlaa2WMB9X33oQpd9LBn0GszSteQHanTDmw+HJF19cPOUsYr7v8OdLQuyjH3o3tWfw1ClPXfCEI2lyF01lzdqT9WFmrmDt3nM63JeG4R4d7bKlurAKqS8nwHk/a1u6AwpBEEQzcfd+gUmkrgZl5TVQtHaGwpjQJ6MuYX5udt+olrpqVIivVGnjCgdzcZUWo87B1eiybgNmhFEt1SoWjp0jHNsY08ppEOOqrXOEQlriM40UFiz7M0VtZTHUcIWzhYmp5KupyEsNQedw3QNE1iOll5Whqfg0+QZasbowVe+8abYFYnrrnc3XuaU8aeFpP5bqXcp7tfny4W3PFrFlv7AATzmLSGVtoe/YAp465akLnnDq1cWoqmADsrn826ROq6FcF4Qynx3oNtLiiUSCIIg7wt0tjP6OEE+Li4d0RAo/fQnXUyehU+SwhqW2PwbiV5RegqpNJDqG9rklgZQgiDtNNW7sCEVh6Vx0en0A9V+CIO4aSBi1BeJ3rsfOgtrdE6hTQsgfiDbb1+J+vdf0/EGoK8aNkzlw7t8HzreicSMI4s5CfZcgiLsUEkZtRV01KkurpNelmF0+JQiCIAiCIBogYZQgCIIgCIJoNm7n/n+CIAiCIAiCMAsJowRBEARBEESzQcIoQRAEQRAE0WyQMEoQBEEQBEE0GySMEgRBEARBEM0GCaMcqI5uRNbRbNlkmZITq3Hx3VgUiJ8y/Z1hKa/S97/f2mg8b6oMKJMSUaiSzXcIa+vnTnO3p+9m+b3nq/byYVx6ewwyJrLrjXnISdL/Rv7vEnN9UJ2KnLeW4Zr8jXuCIIi7hbv71U7qfJz6Ih6ninwQMPlx3K53yDd8ZzqfTUYeL8DhnyvRub9rg6QufoO7EF+Z/Pa5Idc/eBCF2/zQJn4z7tf9DrWNEYWByr9Mh1dH2UKH0m8jkBebKpsaaRWyGV2fNv0ZQLN5rUxG1oQIYMEBdHnYQbbUQfoM6jI4bL7B3GU7A0rO7EPhgYNQF3jCfmgg3Ef7oa32nax1GciLOYxq2ajF4VnjedRivn6qcSMuBmUuAegy1Fu2y0beB/FN4tHgA7cpw2DN5/crMuJw48BhVF12gGL4WLQfOaAxTwxr2485xPJTfZOIqt8A+6eHoe1oVoY63zAXqS/NwLWPY1B+Qgm7wWPh+nJTP2brQcZSOLz54onLVnDHJX6oIjgc9RPew71DOsNOrURlnTfcvTTt2lKdivDUBU84jeWcgZa9XoDLhBB4GnRRHj8SFvpgJXPPXQa0+/BN3EufYCII4i7h7tSMnt+P2VPCMGzcLMyOPYSd8Rls0rs9iINz3lvHYL/4BB744QruX/wwat56CTlnjIsqPNwb9gs6H7m9giiQj7LPI1BtQsvR2m8uOq75EB3nv4AWv7nCaT67Z2Yvv5v9HnU1rq1/DXXj30dnY4KoiDTJsvCNChrip0RHIi/qDOxGLoDn3LFwVMVAuSMVNbIPFKSibNsx1MtGW1Ac9wYKNsSg+qwlrVcV6r6PgFrtChO5M4rYfi4vSkSLZ+ag48IwOF6NQt68fSiukz3YjGoUxL7EhHUl7EexuFZMh1NFLG48Nw95ulow9sCQM+llVDqPhcead9HG+TBuTFqN65WyO2s315azemDhOE5YiY7hY9Hq12VN02wxHB4447IJVsb1WyKq3cLgNroP2ri5wtnDp0EQtVynfHXB1TZEbeWkWajuEob7WP+855lqlP19Kq7qNlceP1rM9kHA6eE34Tk+HYXrE2FVVRIEQdxORM3oXcevu4VXX3tDeHXCeMFv9Evs2iaclZ2aUFskZKVdEkprZbNVZAk5Ye5CxkGlbNZQfDBUSAvbJRTJ5vz17kLa+iQWl0ooOH1MuPZTklCgdZSpqVAJ5UW6V5VQI7sZUpWbwsIQw0kRVNWypQF11UrhhuTnmJCfpdILq0oKP13Ime4uXEzUibOkSqiT/TSg3CtkPBoq5OpnsRGWpyKdPDXk1ZDcXULGuGjhhrlyNhNXXXq0kB60VLhWIVsYQ/z90CghXzaahDPNdVlimqOE3P+y+jSWJx3qru4Vzo83kr/aKqEkK8lEfbH2M2GokP2rbJRQCVcWuAvnv1HJZr72o8VcvQssbfr1myXksjZw4XBjXEX7goW0VceExmRWCddW9RIy9mXJZhZGiUrQq4baFCE7iOUjXTYzeMLhyRdPXBJmy7kRc32HJ666armvJC4V0qbvEm406Tt8dWq5LjjDOR0lpM3eKxTLRpGCPUH6YxKPHy2W+rtIrTjuBQs5ubKZIAiimbk7NaO9xiFm0zrEzHpStjDNuW1vYPy8+Qjadk62sYKCVKjPBsKpv762sG3/UWh5NhEVulrHvL248MosFP+Uisqj0bg+ZgyyzjZqT1X7JuDyHPma+hRyR0SjSHZroC4beUtGIutfsag4zcI5EQPlc1NxOU92l6hG4WezkflMEFRHmZ/TiShd/BQurkxEueSeCqUUzzxU/Aqo1+vEu0HrhxNx2X3iYChjElg8ySiOeAmq1D6yoz6FJ/ZBGBsAdxMaFwn3zmgFH9gb0QgXnfgUeOVv8DS3NJifjfq+3uY1k7xpFjV7ixLhtPZNtDVYOm0Cq5erK7fCfuF0vfzVXIhFZsBjuPahGFcqKuIicO252ToaqXzU/eaNlnr5dYXbU2GoPZ0CvW21FtqP5XpnsLTpddjKfNRcHYBWXVxli3xUHD8MxVA/KGQbsNK8d2gI6o+nolS2adnGFXrVYNcWLfT2JfCFI2EhX5bj4ilnBkff4YmrPDFK01fW7wN+3YiCJn2Hs0456oIrHHcPtMxKR6WOmrK+tAp2Ljq9gMePFjN9sAE7b7R+ppqV4R9vHzNBEL9TZKH07uSXbRY1o1kfvSb5CfnokmxjBalRQtqjxjRxScKlR3sJl1I1JkkDNHuXUKSjNSvYE9xEW9GAqMkwEq6kbZq7V1DphFNxfJGQtuCgUCabq39aKqQNnSLkXpUtJKqE8hL5tgGlkDvbXbh0WjaawqSmRKPpSltxTEebVCXkLTamZVQKV+ZyxCWkCNkTtgrXZVMjmt9f/Ekl3PgmWrgwM0hInxAqXNiVJJToaiLFchs6WEgbNVhIH9dPuj+/K0Uob/DDmebaLCF3bj/h/MEsSXslabrNaEalMtcLU6ZWJZToafpYXCt6CekfpshmTR2c/1LZqCVjcV9ZPEKvbfC0H/56VwkFPyUIubsWCefHTxEu/azS0dCJmsAgISdLEOrStwoZ44KFHFErmLVLSA+KFm5oPDVB0lrrab35wrG6XzCaxsWwWM58fccQo3FpMaJt1MBXpxrM1QV/OKovZwlpz4QKFw8mCTcSlwoZixP08inC40eDqT5ogJj/uQeFJs2LIAiiGbg7NaNW4P3KJhzeuRO7Xuki29wmuvWAm47WrP3AQLQ4kY5K7r1v2Sg9eBiKwGGwLy1GhUpzCV0Gwv7bDFRIfqpReHQ1WkxfgI56p7Uc4GxJu2c1Kaj81BNOQX462iQH2Jk4uVNfF4hWFreb9kHn7WG4RzbpUs/KSb0kHKXOw3Dvqv3osmou7E+HIi8mtVFL9FAI7v3wK3T74jh8dp9E9y/Wwe7gk7jyuVaDw5Pmalzf9BoquryP+wO9OTZFF+PG57FQDB2or1UTsXNFGxZ2bWU+Cs8kIu+zGFTme0IorZI9eOD+8A+BdSNx/u0IZK2cjYzpMcCDfrK7DmbbjzX1rkL16QzUSg2mGPXZOajSaYP1Kle0YBmpLVUyt0z2vxpwckILVZXxvbiSBvkgFAvC9LTC3OFY0y9MxGW5nHn6jgGm4rKIFXVqti44w6nLRvnpSthPGQv7q3tRuCSW/dQBLWRnCR4/DZjug3p4sL5RV4279/QqQRB/Jn73wqiIoq29fGcl4oCMdNQYHgIqUKIOA80LX+LELE5ARmdCY4jLdkwg2yQvC2qvBTGo7cUmfslPMWrzwISAJmKR7ZHyyPJvQvhsSjbq9dZnraMlEwjs31yJLn/1QRsFqzP3Pug0cwHwcQLLtYydB9p7u6KVbGzZZgDajw9sXBrmSLP6bDSKYh1hZ5cM5QcbkcWuAvH1Q6f3svtYXDfMQ2kyqr4dC6e+RpY8K1OR88ZjuLBoA8qVLM0D/4a2j2pP5Gto6RWIbvHH0entufCYsgJdN0eijROLz8sDjrIfo+i1H2vq3RteU6ajy5RIdNu+AorjwTrCuida9Y2TwlL0X4AeP57EA/1ZvvJMbH+ozEDuImOH0qwMRxdT/cJkXAyL5czTd3QwFxcH/HVqri54wqmGcu3zqBr6Hro+H4iOzE/3+BNoq16GvLWJ8kMaj5+bgD1kkCBKEMTdwu9fGK1TITs9C2XGNDGW8HgEjr32ofJkgzgkUX7yMJvkhsHZjDBaL07MXt5QcGssvdFqMNAq7EP4bN9vcGk1GR5w6OWB+vT0m59keHH3hp1TkiRwWIYJiF6pqC3Q3eNoDSxfffqg9rrByw8VTHCxcKRX0K1XnjS7+8P1vTfh0r8PEzA1l0MnJr16+rD7h6EwlE0upqCm/8Nwatwc2cD1mGBUDf4Q3VdFotNwP7h3dIW9MXnRzgFO4olsNwcmSBej9Pt9TJjz1dlv2RT99nOT9W7njbZDB6L+ZKq835GF080DNRcaBSIR1YUkoFtnuMhmCVEAnP0y1H6fwbuJBtmKcAww2i/MxsVTzjx9R8ZCXNxYW6dN6kLGbDiipr8PFN10GqWdKzxfmISWnyYz3yI8fqxHXXANgqUHJoIgiDvEXSiMqnDsP7MQNo1d647Idkfwb9E8bQ2OGWgxb+kAE5vk2oeEoXbTMly9rLGpvRwH5aZDsA8ZhfYaKw0XUlAga9XqS5ORs2wZWr4SgHYaKw484D5uOmpjGuMSqVdnoyC7Uchzf2YBm2SW4cr3+aiV7cR3DF6OSzZ4FQubsDt6QP0TExJlGzDBjf+1SD5o/YInqnftg0oW+MS8lyZq7vVxQJu+Iag5mXLTr11yHzkXdizvl7V5ryuGct9WCCF+LCeiORuX162GUufQSm3+YRT+Nwn2I/2gkW0sp1nh1QeeA/30LpduLAYvX3bfB64G0kRJbgrg5GCkI1SjrkL/3Tm1+YkoPMgEMh3q81JxXceb6vNwlJ5fwAQT7UEWGQvtx2K9i+WzPAKXM4ob6qC+NBWqA3FoyQTv1rKd+6gFwPqNyJP7SX1BHArXF8Np+ICGPEofLpgwATVBn+GB0UzQk+114QlHwkK+LMfFU858fYcnXzxYrFPOurDcNnzgMDwJld9nN/ZhhurEQdQP94WzZOLxYz3FJ/dafGAiCIK4U9yFL73PR/y8WViRLhv16I55H0QiQEdjmf3faRi/RwXvcctvct+oeIp5Hq6vj4U06zv5oNXMD3H/8z4NewjFl3urnNfC/vhGVKvZRJKRjRYvb4bX60xIMrYf7Yz44mmg/Y9v4l7ZSovqUASur96Ielc/tHCugpDnCcXb76LjUG9oNxtU/haDq/OiUKv2RguPYgj5naF4PRL3BTamSaQ+Lw6XJk5ArYKF5S6GNQCunzJ/THIriZuAvCVxss9GWi78Fd0D5QIUlzOXvIyK4w4snmoIf5kD14cOo7hgRtMXmVcm4uKYODh9sgJe3Ev7+oj5ujxnIwSvzkBBDjB4Ae6Z/QLay5lq+PgAeqCFU46Ub/u5LD7dfFuTZhmpLLKMuxd+OgbXlQuMujWUr1hXqEKL/pPQfmA6bpz1b/BfkrQRyogNqPdgaWZClOATCbd/Toenzmlm3vZjqd71ysdNCSGjGi2nvI/7QgfohVP8bQSUS+KBLh4Qshxhv3Atujyt1RLm4+pbD6L0e8mgz2CWpjUvoK1sNB8OT7744uIpZxHzfYc/XxJiH/3Qu6k9g6dOeeqCJxxJk7toKmvWnqwPM3MFa/ee0+G+NAz3aLXLPH6sQerLCXDez9qW7oBCEATRTNzdX2DiRF1Sc/P7RrXUVaNCfF1KG1c4GBMwZdSlxahzcDW6rNuAGWFUS7WKhWPnCMc2xrRyGsS4auscoZCW+EwjhQXL/kxRW1kMNVzhbGFiKvlqKvJSQ9A5XPcAkfVI6WVlaCo+Tb6BVqwuFCbqgjfNtkBMb72z+Tq3lCctPO3HUr1Lea82Xz687dkituwXFuApZxGprC30HVvAU6c8dcETTr26GFUVbEA2k38eP5aphnJdEMp8dqDbSIsnEgmCIO4Ifwhh9G5APC0uHtIRKfz0JVxPnYROkcNuehnt7kT8itJLULWJRMfQPrckkBIEcaepxo0doSgsnYtOrw+g/ksQxF0DCaO2QPzO9dhZULt7AnVKCPkD0Wb7Wtx/uz6m35zUFePGyRw49+8D51vRuBEEcWehvksQxF0KCaO2oq4alaVV0utSzC6fEgRBEARBEA2QMEoQBEEQBEE0G7dz/z9BEARBEARBmIWEUYIgCIIgCKKZAP4fUn/4eVla1hcAAAAASUVORK5CYII=;" vertex="1" parent="rPZamDuF4Wgf_CICPfCr-5">
          <mxGeometry y="30" width="340" height="89" as="geometry" />
        </mxCell>
        <mxCell id="rPZamDuF4Wgf_CICPfCr-9" value="" style="endArrow=classic;startArrow=classic;html=1;rounded=0;exitX=0.995;exitY=0.209;exitDx=0;exitDy=0;exitPerimeter=0;entryX=0;entryY=0.5;entryDx=0;entryDy=0;" edge="1" parent="1" source="rPZamDuF4Wgf_CICPfCr-14" target="rPZamDuF4Wgf_CICPfCr-5">
          <mxGeometry width="50" height="50" relative="1" as="geometry">
            <mxPoint x="293.19000000000005" y="211.20000000000005" as="sourcePoint" />
            <mxPoint x="515.24" y="327.79999999999995" as="targetPoint" />
            <Array as="points">
              <mxPoint x="390" y="240" />
            </Array>
          </mxGeometry>
        </mxCell>
        <mxCell id="rPZamDuF4Wgf_CICPfCr-10" value="1/n" style="text;html=1;align=center;verticalAlign=middle;whiteSpace=wrap;rounded=0;" vertex="1" parent="1">
          <mxGeometry x="320" y="210" width="60" height="30" as="geometry" />
        </mxCell>
        <mxCell id="rPZamDuF4Wgf_CICPfCr-11" value="n/1" style="text;html=1;align=center;verticalAlign=middle;whiteSpace=wrap;rounded=0;" vertex="1" parent="1">
          <mxGeometry x="460" y="200" width="60" height="30" as="geometry" />
        </mxCell>
        <mxCell id="rPZamDuF4Wgf_CICPfCr-16" value="-id _jeu" style="text;html=1;align=center;verticalAlign=middle;whiteSpace=wrap;rounded=0;" vertex="1" parent="1">
          <mxGeometry y="140" width="328.57" height="30" as="geometry" />
        </mxCell>
        <mxCell id="rPZamDuF4Wgf_CICPfCr-19" value="_id_user" style="text;html=1;align=center;verticalAlign=middle;whiteSpace=wrap;rounded=0;" vertex="1" parent="1">
          <mxGeometry x="530" y="140" width="80" height="30" as="geometry" />
        </mxCell>
        <mxCell id="rPZamDuF4Wgf_CICPfCr-20" value="_id_jeu= array de tout les jeux" style="text;html=1;align=center;verticalAlign=middle;whiteSpace=wrap;rounded=0;" vertex="1" parent="1">
          <mxGeometry x="530" y="300" width="170" height="30" as="geometry" />
        </mxCell>
      </root>
    </mxGraphModel>
  </diagram>
</mxfile>
